<?xml version="1.0" encoding="utf-8"?>
<!-- Generator: Adobe Illustrator 25.2.1, SVG Export Plug-In . SVG Version: 6.00 Build 0)  -->
<svg version="1.1" xmlns="http://www.w3.org/2000/svg" xmlns:xlink="http://www.w3.org/1999/xlink" x="0px" y="0px"
	 viewBox="0 0 131.74 193.02" style="enable-background:new 0 0 131.74 193.02;" xml:space="preserve">
<style type="text/css">
	.st0{fill:#205921;}
	.st1{fill:#E4CA5F;}
</style>
<g id="Camada_2">
	<polygon class="st0" points="16.72,124.6 29.87,124.6 65.87,87.57 103.91,124.6 115.15,124.6 66.72,75.57 	"/>
</g>
<g id="Camada_3">
	<path class="st1" d="M39.32,93.45l9.45-8.43c-0.35-1.7-0.73-4.36-0.43-7.57c0.26-2.77,0.6-6.35,3.11-9.57
		c2.17-2.79,4.88-3.93,7.28-4.94c3.97-1.66,7.76-2.02,10.72-1.91c-1.95,0.6-6.42,2.27-10.21,6.64c-3.23,3.72-4.4,7.6-4.85,9.57
		c2.88-2.42,5.9-4.85,9.06-7.28c1.1-0.84,2.19-1.66,3.28-2.47c2.09,1.36,4.31,2.97,6.6,4.85c3.35,2.76,6.13,5.54,8.38,8.09
		c0.51-2.02,1.05-5.26,0.47-9.11c-1.11-7.33-6-14.79-13.79-18.21c-10.24-4.5-21.41-0.26-27.66,6.3c-4.55,4.78-6,10.27-6.51,12.98
		c-0.56,2.96-0.27,5.33-0.13,6.72C34.69,85.19,37.09,90.07,39.32,93.45z"/>
</g>
<g id="Camada_4">
	<path class="st1" d="M86.43,85.91l7.15,6.89c1.56-2.84,3.81-7.76,4.53-14.3c0.77-6.88-0.5-12.43-1.47-15.57
		c-1.39-3.34-4.07-8.56-9.06-13.47C85.52,47.45,74.17,36.31,57,37.79c-18.14,1.56-27.59,15.9-28.72,17.68
		c-4.4,6.92-5.49,13.73-5.81,17.55c-0.24,3.2-0.22,8,1.28,13.53c1.85,6.82,5.11,11.68,7.28,14.43c1.45-1.32,2.89-2.64,4.34-3.96
		c-1.84-2.64-4.59-7.3-5.87-13.66c-0.58-2.86-3.04-15.1,4.66-25.85c4.2-5.86,9.67-8.83,13.09-10.28c2.29-0.93,6.03-2.14,10.78-2.24
		c5.06-0.11,9.07,1.08,11.43,1.98c2.69,1.2,9.97,4.89,14.68,13.28C90.76,72.06,87.09,83.9,86.43,85.91z"/>
</g>
<g id="Camada_5">
	<path class="st1" d="M98.34,97.53l4.17,4.72c2.6-3.55,8.61-12.8,8.81-25.72c0.35-23.03-18.11-36.4-19.28-37.21
		c-13.14-9.18-27.09-8.25-31.15-7.83c4.55,0.47,16.14,2.27,27.06,11.28c9.63,7.94,13.73,17.35,15.32,21.7
		c0.77,3.66,1.45,9.04,0.7,15.45C103.05,87.87,100.32,93.92,98.34,97.53z"/>
</g>
</svg>
