<svg width="436" height="433" viewBox="0 0 436 433" fill="none" xmlns="http://www.w3.org/2000/svg">
<path d="M177.752 91.4617H131.58C127.542 91.4617 124.228 94.3305 123.542 98.143H101.104C101.18 97.69 101.257 97.1993 101.257 96.7086C101.257 91.1975 96.7233 86.7055 91.1614 86.7055H74.7804C73.2185 84.4029 70.59 82.8931 67.5804 82.8931H34.8566C30.0566 82.8931 26.209 86.7433 26.209 91.4617C26.209 96.2179 30.0947 100.03 34.8566 100.03H47.9995C49.409 103.918 53.1043 106.712 57.4852 106.712H65.2566C64.9519 107.769 64.7233 108.863 64.7233 110.033C64.7233 111.204 64.9519 112.298 65.2566 113.355H37.79C32.99 113.355 29.1423 117.205 29.1423 121.924C29.1423 126.68 33.0281 130.492 37.79 130.492H104.152C108.952 130.492 112.8 126.642 112.8 121.924H139.276C145.904 121.924 151.314 116.601 151.314 109.996C151.314 109.165 151.238 108.373 151.085 107.618H177.79C182.323 107.618 185.981 103.994 185.981 99.5019C185.942 95.0854 182.285 91.4617 177.752 91.4617Z" fill="#ADC8E3"/>
<path d="M418.058 123.886H395.962C395.62 118.338 391.01 113.921 385.334 113.921H361.905C362.781 112.449 363.315 110.75 363.315 108.938C363.315 103.427 358.82 98.9732 353.258 98.9732H345.41C345.6 98.3692 345.715 97.7653 345.715 97.0858C345.715 93.3111 342.629 90.2158 338.781 90.2158H321.181C317.372 90.2158 314.248 93.2733 314.248 97.0858C314.248 97.7275 314.362 98.3692 314.553 98.9732H294.134C288.572 98.9732 284.077 103.427 284.077 108.938C284.077 114.45 288.572 118.904 294.134 118.904H320.953C319.924 120.527 319.315 122.452 319.315 124.528C319.315 126.604 319.924 128.492 320.953 130.153H313.639C307.734 130.153 302.934 134.909 302.934 140.76C302.934 146.61 307.734 151.367 313.639 151.367H352.648C358.553 151.367 363.353 146.61 363.353 140.76C363.353 138.683 362.743 136.796 361.715 135.135H375.315C376.534 138.079 379.467 140.118 382.858 140.118H418.096C422.629 140.118 426.286 136.494 426.286 132.002C426.286 127.51 422.553 123.886 418.058 123.886Z" fill="#ADC8E3"/>
<path d="M412.724 238.903L299.695 126.907C296 123.245 289.981 123.245 286.286 126.907L173.257 238.903H412.724Z" fill="#66A646"/>
<path d="M343.696 238.902L199.962 96.4817C195.238 91.801 187.619 91.801 182.896 96.4817L39.1621 238.902H343.696Z" fill="#3F8A49"/>
<path d="M194.286 237.77L103.39 147.705C100.419 144.761 95.5808 144.761 92.6094 147.705L1.71411 237.77H194.286Z" fill="#266B32"/>
<path d="M433.943 237.09L370.171 173.901C368.076 171.825 364.686 171.825 362.59 173.901L298.819 237.09H433.943Z" fill="#277C33"/>
<path d="M115.429 196.06H110.096V237.846H115.429V196.06Z" fill="#BC7637"/>
<path d="M134.362 198.437C134.362 194.624 132.457 191.265 129.6 189.151C130.781 187.49 131.467 185.452 131.467 183.262C131.467 177.638 126.896 173.071 121.219 172.957C120.991 169.183 117.867 166.201 113.981 166.201C111.01 166.201 108.419 167.975 107.315 170.542C107.277 170.542 107.238 170.542 107.2 170.542C102.629 170.542 98.9718 174.203 98.9718 178.695C98.9718 179.714 99.1622 180.658 99.5051 181.564C95.6575 184.319 93.1432 188.774 93.1432 193.832C93.1432 195.606 93.4861 197.305 94.0575 198.928C92.6099 200.626 91.6956 202.778 91.6956 205.156C91.6956 210.478 96.0384 214.782 101.41 214.782C103.353 214.782 105.105 214.215 106.629 213.234C108.686 216.442 112.305 218.594 116.457 218.594C122.324 218.594 127.124 214.291 127.924 208.704C131.696 206.855 134.362 202.967 134.362 198.437Z" fill="#66A646"/>
<path d="M129.601 189.188C130.782 187.527 131.467 185.489 131.467 183.3C131.467 178.317 127.886 174.165 123.125 173.221C120.648 179.261 116.039 184.206 110.286 187.188C110.82 188.924 111.125 190.774 111.125 192.699C111.125 202.438 103.62 210.44 94.0198 211.346C95.8103 213.46 98.4388 214.819 101.41 214.819C103.353 214.819 105.105 214.253 106.629 213.271C108.686 216.48 112.305 218.631 116.458 218.631C122.325 218.631 127.125 214.328 127.925 208.741C131.734 206.854 134.401 202.966 134.401 198.474C134.363 194.624 132.458 191.264 129.601 189.188Z" fill="#277C33"/>
<path d="M46.2477 203.495H41.8667V237.845H46.2477V203.495Z" fill="#BC7637"/>
<path d="M61.7906 205.458C61.7906 202.325 60.2287 199.569 57.8668 197.833C58.8192 196.474 59.3906 194.813 59.3906 193.001C59.3906 188.358 55.6191 184.621 50.9715 184.508C50.781 181.413 48.1905 178.959 45.0286 178.959C42.5905 178.959 40.4572 180.431 39.5429 182.507C39.5048 182.507 39.4667 182.507 39.4286 182.507C35.6953 182.507 32.6477 185.527 32.6477 189.226C32.6477 190.057 32.8382 190.849 33.1049 191.567C29.9429 193.831 27.8858 197.493 27.8858 201.645C27.8858 203.117 28.1524 204.514 28.6096 205.835C27.4286 207.232 26.6667 208.968 26.6667 210.931C26.6667 215.31 30.2477 218.82 34.6286 218.82C36.2286 218.82 37.6763 218.367 38.9334 217.575C40.6477 220.217 43.581 221.991 47.0096 221.991C51.8477 221.991 55.7715 218.443 56.4572 213.838C59.6191 212.365 61.7906 209.195 61.7906 205.458Z" fill="#66A646"/>
<path d="M57.8668 197.833C58.8192 196.474 59.3906 194.813 59.3906 193.001C59.3906 188.887 56.4192 185.489 52.5334 184.697C50.4763 189.642 46.7048 193.718 41.981 196.172C42.4382 197.606 42.6668 199.116 42.6668 200.702C42.6668 208.704 36.4953 215.272 28.6096 216.027C30.0572 217.763 32.2287 218.858 34.7049 218.858C36.3049 218.858 37.7525 218.405 39.0096 217.612C40.7239 220.255 43.6573 222.029 47.0858 222.029C51.9239 222.029 55.8477 218.481 56.5334 213.875C59.6573 212.328 61.8668 209.119 61.8668 205.42C61.7906 202.325 60.2287 199.569 57.8668 197.833Z" fill="#277C33"/>
<path d="M78.5904 196.06H73.2571V237.846H78.5904V196.06Z" fill="#BC7637"/>
<path d="M97.5236 198.437C97.5236 194.624 95.6188 191.265 92.7617 189.151C93.9427 187.49 94.6284 185.452 94.6284 183.262C94.6284 177.638 90.057 173.071 84.3808 172.957C84.1522 169.183 81.0284 166.201 77.1427 166.201C74.1713 166.201 71.5808 167.975 70.476 170.542C70.4379 170.542 70.3998 170.542 70.3617 170.542C65.7903 170.542 62.1331 174.203 62.1331 178.695C62.1331 179.714 62.3236 180.658 62.6665 181.564C58.8189 184.319 56.3046 188.774 56.3046 193.832C56.3046 195.606 56.6474 197.305 57.2188 198.928C55.7712 200.626 54.8569 202.778 54.8569 205.156C54.8569 210.478 59.1998 214.782 64.5712 214.782C66.5141 214.782 68.2665 214.215 69.7903 213.234C71.8474 216.442 75.4665 218.594 79.6189 218.594C85.4855 218.594 90.2856 214.291 91.0856 208.704C94.8951 206.855 97.5236 202.967 97.5236 198.437Z" fill="#66A646"/>
<path d="M92.7619 189.188C93.9428 187.527 94.6286 185.489 94.6286 183.3C94.6286 178.317 91.0476 174.165 86.2857 173.221C83.8095 179.261 79.2 184.206 73.4476 187.188C73.9809 188.924 74.2857 190.774 74.2857 192.699C74.2857 202.438 66.7809 210.44 57.1809 211.346C58.9714 213.46 61.6 214.819 64.5714 214.819C66.5143 214.819 68.2666 214.253 69.7904 213.271C71.8476 216.48 75.4666 218.631 79.619 218.631C85.4857 218.631 90.2857 214.328 91.0857 208.741C94.8952 206.854 97.5619 202.966 97.5619 198.474C97.5238 194.624 95.619 191.264 92.7619 189.188Z" fill="#277C33"/>
<path d="M384.419 190.888H378.438V237.808H384.419V190.888Z" fill="#BC7637"/>
<path d="M405.714 193.605C405.714 189.34 403.581 185.565 400.343 183.187C401.638 181.299 402.438 179.035 402.438 176.581C402.438 170.239 397.295 165.106 390.933 164.992C390.666 160.765 387.162 157.405 382.819 157.405C379.466 157.405 376.571 159.406 375.314 162.275C375.276 162.275 375.238 162.275 375.162 162.275C370.057 162.275 365.905 166.389 365.905 171.447C365.905 172.58 366.133 173.674 366.514 174.656C362.171 177.751 359.352 182.772 359.352 188.434C359.352 190.434 359.733 192.359 360.381 194.133C358.743 196.021 357.752 198.437 357.752 201.117C357.752 207.081 362.628 211.912 368.647 211.912C370.819 211.912 372.8 211.271 374.514 210.176C376.838 213.8 380.876 216.216 385.524 216.216C392.114 216.216 397.524 211.384 398.4 205.08C402.705 203.042 405.714 198.663 405.714 193.605Z" fill="#66A646"/>
<path d="M400.342 183.187C401.637 181.3 402.437 179.035 402.437 176.582C402.437 170.957 398.399 166.314 393.066 165.257C390.285 172.014 385.142 177.563 378.628 180.922C379.237 182.885 379.58 184.961 379.58 187.113C379.58 198.06 371.161 207.044 360.38 208.063C362.361 210.403 365.333 211.951 368.685 211.951C370.857 211.951 372.838 211.309 374.552 210.214C376.876 213.838 380.914 216.254 385.561 216.254C392.152 216.254 397.561 211.422 398.437 205.119C402.742 203.005 405.714 198.626 405.714 193.568C405.714 189.302 403.58 185.565 400.342 183.187Z" fill="#3F8A49"/>
<path d="M420.381 203.495H416V237.845H420.381V203.495Z" fill="#BC7637"/>
<path d="M435.924 205.458C435.924 202.325 434.362 199.569 432 197.833C432.952 196.474 433.524 194.813 433.524 193.001C433.524 188.358 429.752 184.621 425.105 184.508C424.914 181.413 422.324 178.959 419.162 178.959C416.724 178.959 414.591 180.431 413.676 182.507C413.638 182.507 413.6 182.507 413.562 182.507C409.829 182.507 406.781 185.527 406.781 189.226C406.781 190.057 406.971 190.849 407.238 191.567C404.076 193.831 402.019 197.493 402.019 201.645C402.019 203.117 402.286 204.514 402.743 205.835C401.562 207.232 400.8 208.968 400.8 210.931C400.8 215.31 404.381 218.82 408.762 218.82C410.362 218.82 411.81 218.367 413.067 217.575C414.781 220.217 417.714 221.991 421.143 221.991C425.981 221.991 429.905 218.443 430.591 213.838C433.752 212.365 435.924 209.195 435.924 205.458Z" fill="#66A646"/>
<path d="M432 197.833C432.952 196.474 433.524 194.813 433.524 193.001C433.524 188.887 430.552 185.489 426.667 184.697C424.61 189.642 420.838 193.718 416.114 196.172C416.572 197.606 416.8 199.116 416.8 200.702C416.8 208.704 410.629 215.272 402.743 216.027C404.191 217.763 406.362 218.858 408.838 218.858C410.438 218.858 411.886 218.405 413.143 217.612C414.857 220.255 417.791 222.029 421.219 222.029C426.057 222.029 429.981 218.481 430.667 213.875C433.791 212.328 436 209.119 436 205.42C435.924 202.325 434.362 199.569 432 197.833Z" fill="#3F8A49"/>
<path d="M0 237.091C10.2476 346.936 103.429 433 216.991 433C330.552 433 423.733 346.974 433.981 237.091H0Z" fill="#7F4C2F"/>
<path d="M19.6567 308.623C54.4377 382.117 129.676 433 216.99 433C304.304 433 379.543 382.079 414.324 308.623C414.324 308.623 341.143 345.54 216.99 325.609C92.0377 305.565 19.6567 308.623 19.6567 308.623Z" fill="#935638"/>
<path d="M67.5427 374.115C106.552 410.578 159.086 433 216.99 433C274.857 433 327.429 410.616 366.438 374.115C366.438 374.115 294.629 407.747 214.248 383.853C122.362 356.562 67.5427 374.115 67.5427 374.115Z" fill="#B16430"/>
<path d="M428.572 268.573C431.086 258.343 432.914 247.849 433.943 237.091H0C0.990477 247.849 2.81906 258.343 5.37144 268.573C5.37144 268.573 25.7524 264.307 32.5333 264.307C40.9143 264.307 57.7143 268.573 66.0952 268.573C75.3905 268.573 94.0191 264.307 103.314 264.307C113.676 264.307 134.438 268.573 144.8 268.573C155.467 268.573 176.838 264.307 187.505 264.307C198.781 264.307 221.371 268.573 232.648 268.573C244.229 268.573 267.429 264.307 279.01 264.307C289.981 264.307 311.962 268.573 322.933 268.573C334.057 268.573 356.343 264.307 367.467 264.307C375.391 264.307 391.238 268.573 399.2 268.573C406.514 268.573 428.572 268.573 428.572 268.573Z" fill="#66A646"/>
<path d="M173.791 147.553H196.153C193.867 119.809 190.819 84.2511 190.591 62.3577C190.4 43.484 190.896 31.0273 190.896 31.0273H179.162C179.162 31.0273 179.657 42.3516 179.467 62.3577C179.2 82.9677 176.076 119.205 173.791 147.553Z" fill="#CACCCB"/>
<path d="M180.114 147.553H192.571C191.2 119.809 189.333 84.2511 189.105 62.3577C188.914 43.484 189.143 31.0273 189.143 31.0273H182.59C182.59 31.0273 182.933 42.3516 182.895 62.3577C182.857 82.9677 181.257 119.205 180.114 147.553Z" fill="#BFBFBF"/>
<path d="M184.762 147.553H189.829C189.105 119.809 188.152 84.2511 187.962 62.3577C187.771 43.484 187.81 31.0273 187.81 31.0273H185.143C185.143 31.0273 185.333 42.3516 185.448 62.3577C185.524 82.9677 185.067 119.205 184.762 147.553Z" fill="#A0A0A0"/>
<path d="M191.505 30.7637H178.438V33.3682H191.505V30.7637Z" fill="#828282"/>
<path d="M190.781 56.0166H179.162V58.6212H190.781V56.0166Z" fill="#828282"/>
<path d="M192.229 89.5356H177.677V92.1402H192.229V89.5356Z" fill="#828282"/>
<path d="M227.733 172.504H250.095C247.81 144.76 244.762 109.202 244.533 87.3083C244.343 68.4347 244.838 55.978 244.838 55.978H233.105C233.105 55.978 233.6 67.3022 233.41 87.3083C233.143 107.918 230.057 144.156 227.733 172.504Z" fill="#CACCCB"/>
<path d="M234.057 172.504H246.514C245.143 144.76 243.276 109.202 243.047 87.3083C242.857 68.4347 243.085 55.978 243.085 55.978H236.533C236.533 55.978 236.876 67.3022 236.838 87.3083C236.8 107.918 235.238 144.156 234.057 172.504Z" fill="#BFBFBF"/>
<path d="M238.705 172.504H243.772C243.048 144.76 242.096 109.202 241.905 87.3083C241.715 68.4347 241.753 55.978 241.753 55.978H239.086C239.086 55.978 239.277 67.3022 239.391 87.3083C239.467 107.918 239.01 144.156 238.705 172.504Z" fill="#A0A0A0"/>
<path d="M245.448 55.7144H232.381V58.3189H245.448V55.7144Z" fill="#828282"/>
<path d="M244.724 80.9668H233.105V83.5713H244.724V80.9668Z" fill="#828282"/>
<path d="M246.21 114.486H231.658V117.091H246.21V114.486Z" fill="#828282"/>
<path d="M200.952 172.504H223.314C221.029 144.76 217.981 109.202 217.752 87.3083C217.562 68.4347 218.057 55.978 218.057 55.978H206.324C206.324 55.978 206.819 67.3022 206.629 87.3083C206.362 107.918 203.238 144.156 200.952 172.504Z" fill="#CACCCB"/>
<path d="M207.276 172.504H219.733C218.362 144.76 216.495 109.202 216.266 87.3083C216.076 68.4347 216.304 55.978 216.304 55.978H209.752C209.752 55.978 210.095 67.3022 210.057 87.3083C210.019 107.918 208.419 144.156 207.276 172.504Z" fill="#BFBFBF"/>
<path d="M211.924 172.504H216.99C216.266 144.76 215.314 109.202 215.124 87.3083C214.933 68.4347 214.971 55.978 214.971 55.978H212.305C212.305 55.978 212.495 67.3022 212.609 87.3083C212.686 107.918 212.228 144.156 211.924 172.504Z" fill="#A0A0A0"/>
<path d="M218.628 55.7144H205.562V58.3189H218.628V55.7144Z" fill="#828282"/>
<path d="M217.943 80.9668H206.324V83.5713H217.943V80.9668Z" fill="#828282"/>
<path d="M219.391 114.486H204.838V117.091H219.391V114.486Z" fill="#828282"/>
<path d="M262.286 146.686H167.81V237.053H262.286V146.686Z" fill="#A0A0A0"/>
<path d="M184.114 157.405H176.876V180.167H184.114V157.405Z" fill="#FFD527"/>
<path d="M198.058 157.405H190.82V180.167H198.058V157.405Z" fill="#FFD527"/>
<path d="M212 157.405H204.762V180.167H212V157.405Z" fill="#FFD527"/>
<path d="M298.058 164.994L280.153 153.745V164.956L262.286 153.745V164.956L244.458 153.745V164.956L226.591 153.745V164.994H222.477V193.984H185.334V237.054H313.372V164.994H298.058Z" fill="#CACCCB"/>
<path d="M200 213.424H193.181V226.937H200V213.424Z" fill="#FFD527"/>
<path d="M213.372 213.424H206.552V226.937H213.372V213.424Z" fill="#FFD527"/>
<path d="M226.743 213.424H219.924V226.937H226.743V213.424Z" fill="#FFD527"/>
<path d="M240.114 213.424H233.295V226.937H240.114V213.424Z" fill="#FFD527"/>
<path d="M253.486 213.424H246.667V226.937H253.486V213.424Z" fill="#FFD527"/>
<path d="M266.857 213.424H260.038V226.937H266.857V213.424Z" fill="#FFD527"/>
<path d="M280.229 213.424H273.41V226.937H280.229V213.424Z" fill="#FFD527"/>
<path d="M293.6 213.424H286.781V226.937H293.6V213.424Z" fill="#FFD527"/>
<path d="M306.972 213.424H300.153V226.937H306.972V213.424Z" fill="#FFD527"/>
<path d="M284.839 208.365C295.232 208.365 303.658 200.016 303.658 189.718C303.658 179.419 295.232 171.07 284.839 171.07C274.445 171.07 266.02 179.419 266.02 189.718C266.02 200.016 274.445 208.365 284.839 208.365Z" fill="white"/>
<path d="M285.676 199.834H285.524C284.914 199.834 284.381 199.645 283.886 199.381V205.76H286.21V199.834C286.057 199.796 285.867 199.834 285.676 199.834Z" fill="#BC7637"/>
<path d="M294.21 185.829C294.515 185.112 294.667 184.357 294.667 183.564C294.667 180.733 292.648 178.355 289.943 177.789C289.334 175.977 287.581 174.694 285.6 174.694C284.077 174.694 282.667 175.449 281.829 176.657C279.429 177.034 277.6 179.11 277.6 181.564C277.6 181.79 277.638 182.055 277.677 182.281C276.038 183.791 275.086 185.943 275.086 188.17C275.086 188.811 275.162 189.491 275.353 190.133C274.781 191.038 274.477 192.058 274.477 193.115C274.477 196.21 277.029 198.739 280.153 198.739C280.8 198.739 281.41 198.626 282.019 198.437C283.238 199.72 284.915 200.438 286.705 200.438C289.677 200.438 292.267 198.399 292.991 195.606C294.858 194.436 295.962 192.397 295.962 190.208C295.962 188.547 295.315 186.999 294.21 185.829ZM291.696 194.662C291.353 197.116 289.258 199.003 286.667 199.003C284.838 199.003 283.277 198.059 282.362 196.663C281.715 197.078 280.915 197.342 280.077 197.342C277.753 197.342 275.848 195.455 275.848 193.152C275.848 192.095 276.229 191.152 276.877 190.434C276.61 189.755 276.496 189 276.496 188.207C276.496 185.98 277.6 184.055 279.277 182.847C279.124 182.47 279.048 182.055 279.048 181.602C279.048 179.639 280.648 178.016 282.667 178.016H282.705C283.2 176.883 284.305 176.128 285.638 176.128C287.315 176.128 288.686 177.449 288.8 179.072C291.277 179.11 293.257 181.111 293.257 183.564C293.257 184.508 292.953 185.414 292.457 186.131C293.715 187.037 294.553 188.509 294.553 190.17C294.515 192.133 293.372 193.832 291.696 194.662Z" fill="#66A646"/>
<path d="M169.105 217.917H130.476C130.476 217.993 130.476 218.031 130.476 218.106V224.335H169.105C170.324 224.335 171.314 222.9 171.314 221.126C171.314 219.352 170.324 217.917 169.105 217.917Z" fill="#935638"/>
<path d="M130.476 223.353V224.334H169.105C169.714 224.334 170.286 223.956 170.705 223.353H130.476Z" fill="#7A4026"/>
<path d="M130.743 224.371C132.215 224.371 133.409 222.918 133.409 221.125C133.409 219.332 132.215 217.878 130.743 217.878C129.27 217.878 128.076 219.332 128.076 221.125C128.076 222.918 129.27 224.371 130.743 224.371Z" fill="#B16430"/>
<path d="M130.742 224.144C129.409 224.144 128.343 222.785 128.343 221.124C128.343 219.463 129.409 218.142 130.742 218.142C132.076 218.142 133.143 219.501 133.143 221.124C133.143 222.785 132.076 224.144 130.742 224.144Z" fill="#F9A56B"/>
<path d="M130.742 218.293C131.885 218.331 132.799 219.539 132.799 221.011C132.799 222.521 131.847 223.729 130.666 223.729C129.485 223.729 128.571 222.521 128.532 221.049V221.087C128.532 222.634 129.523 223.918 130.742 223.918C131.961 223.918 132.952 222.634 132.952 221.087C132.952 219.577 131.961 218.293 130.742 218.293Z" fill="#B16430"/>
<path d="M130.667 223.239C129.79 223.202 129.067 222.296 129.067 221.126C129.067 219.955 129.828 219.012 130.743 219.012C131.657 219.012 132.381 219.955 132.419 221.088V221.05C132.419 219.842 131.657 218.861 130.705 218.861C129.752 218.861 128.99 219.842 128.99 221.05C128.952 222.258 129.714 223.239 130.667 223.239Z" fill="#B16430"/>
<path d="M130.781 219.539C130.743 219.539 130.743 219.539 130.781 219.539C131.429 219.539 131.962 220.256 131.962 221.087C131.962 221.955 131.429 222.634 130.743 222.634C130.095 222.634 129.524 221.955 129.524 221.124V221.162C129.524 222.068 130.095 222.785 130.781 222.785C131.467 222.785 132.038 222.068 132.038 221.162C132.038 220.256 131.467 219.539 130.781 219.539Z" fill="#B16430"/>
<path d="M130.857 221.956C130.514 221.956 130.247 221.616 130.247 221.201C130.247 220.786 130.514 220.446 130.857 220.446C131.085 220.446 131.314 220.635 131.39 220.899C131.276 220.559 131.047 220.295 130.742 220.295C130.361 220.295 130.057 220.672 130.057 221.163C130.057 221.654 130.361 222.031 130.742 222.031C130.857 222.031 130.971 221.994 131.085 221.918C131.009 221.918 130.933 221.956 130.857 221.956Z" fill="#B16430"/>
<path d="M176 217.917H137.372C137.372 217.993 137.372 218.031 137.372 218.106V224.335H176C177.219 224.335 178.21 222.9 178.21 221.126C178.21 219.352 177.219 217.917 176 217.917Z" fill="#935638"/>
<path d="M137.372 223.353V224.334H176C176.61 224.334 177.181 223.956 177.6 223.353H137.372Z" fill="#7A4026"/>
<path d="M140.343 221.125C140.343 222.899 139.124 224.371 137.676 224.371C136.19 224.371 135.009 222.937 135.009 221.125C135.009 219.313 136.228 217.878 137.676 217.878C139.124 217.878 140.343 219.351 140.343 221.125Z" fill="#B16430"/>
<path d="M137.638 224.144C136.305 224.144 135.238 222.785 135.238 221.124C135.238 219.463 136.305 218.142 137.638 218.142C138.972 218.142 140.038 219.501 140.038 221.124C140.038 222.785 138.972 224.144 137.638 224.144Z" fill="#F9A56B"/>
<path d="M137.638 218.293C138.781 218.331 139.696 219.539 139.696 221.011C139.696 222.521 138.743 223.729 137.562 223.729C136.381 223.729 135.467 222.521 135.429 221.049V221.087C135.429 222.634 136.419 223.918 137.638 223.918C138.857 223.918 139.848 222.634 139.848 221.087C139.848 219.577 138.857 218.293 137.638 218.293Z" fill="#B16430"/>
<path d="M137.562 223.239C136.686 223.202 135.962 222.296 135.962 221.126C135.962 219.955 136.724 219.012 137.638 219.012C138.553 219.012 139.276 219.955 139.314 221.088V221.05C139.314 219.842 138.553 218.861 137.6 218.861C136.648 218.861 135.886 219.842 135.886 221.05C135.848 222.258 136.61 223.239 137.562 223.239Z" fill="#B16430"/>
<path d="M137.676 219.539C137.638 219.539 137.638 219.539 137.676 219.539C138.324 219.539 138.857 220.256 138.857 221.087C138.857 221.955 138.324 222.634 137.638 222.634C136.991 222.634 136.419 221.955 136.419 221.124V221.162C136.419 222.068 136.991 222.785 137.676 222.785C138.362 222.785 138.933 222.068 138.933 221.162C138.933 220.256 138.362 219.539 137.676 219.539Z" fill="#B16430"/>
<path d="M137.752 221.956C137.409 221.956 137.143 221.616 137.143 221.201C137.143 220.786 137.409 220.446 137.752 220.446C137.981 220.446 138.209 220.635 138.286 220.899C138.171 220.559 137.943 220.295 137.638 220.295C137.257 220.295 136.952 220.672 136.952 221.163C136.952 221.654 137.257 222.031 137.638 222.031C137.752 222.031 137.866 221.994 137.981 221.918C137.905 221.918 137.828 221.956 137.752 221.956Z" fill="#B16430"/>
<path d="M165.448 224.332H126.819C126.819 224.407 126.819 224.445 126.819 224.52V230.749H165.448C166.667 230.749 167.657 229.314 167.657 227.54C167.657 225.766 166.667 224.332 165.448 224.332Z" fill="#935638"/>
<path d="M126.819 229.769V230.75H165.448C166.057 230.75 166.629 230.373 167.048 229.769H126.819Z" fill="#7A4026"/>
<path d="M129.79 227.541C129.79 229.315 128.571 230.787 127.124 230.787C125.638 230.787 124.457 229.353 124.457 227.541C124.457 225.729 125.676 224.294 127.124 224.294C128.571 224.294 129.79 225.767 129.79 227.541Z" fill="#B16430"/>
<path d="M127.086 230.56C125.752 230.56 124.686 229.201 124.686 227.54C124.686 225.879 125.752 224.558 127.086 224.558C128.419 224.558 129.486 225.917 129.486 227.54C129.486 229.201 128.419 230.56 127.086 230.56Z" fill="#F9A56B"/>
<path d="M127.086 224.709C128.229 224.747 129.143 225.955 129.143 227.427C129.143 228.937 128.19 230.145 127.01 230.145C125.829 230.145 124.914 228.937 124.876 227.465V227.502C124.876 229.05 125.867 230.333 127.086 230.333C128.305 230.333 129.295 229.05 129.295 227.502C129.295 225.992 128.305 224.709 127.086 224.709Z" fill="#B16430"/>
<path d="M127.01 229.654C126.133 229.616 125.41 228.71 125.41 227.54C125.41 226.37 126.172 225.426 127.086 225.426C128 225.426 128.724 226.332 128.762 227.502V227.464C128.762 226.256 128 225.275 127.048 225.275C126.095 225.275 125.333 226.256 125.333 227.464C125.295 228.672 126.057 229.654 127.01 229.654Z" fill="#B16430"/>
<path d="M127.086 225.955C127.734 225.955 128.267 226.672 128.267 227.503C128.267 228.371 127.734 229.05 127.048 229.05C126.4 229.05 125.829 228.371 125.829 227.541V227.578C125.829 228.484 126.4 229.201 127.086 229.201C127.772 229.201 128.343 228.484 128.343 227.578C128.343 226.672 127.81 225.955 127.086 225.955Z" fill="#B16430"/>
<path d="M127.2 228.372C126.857 228.372 126.59 228.032 126.59 227.617C126.59 227.202 126.857 226.862 127.2 226.862C127.428 226.862 127.657 227.051 127.733 227.315C127.619 226.975 127.39 226.711 127.086 226.711C126.705 226.711 126.4 227.088 126.4 227.579C126.4 228.07 126.705 228.447 127.086 228.447C127.2 228.447 127.314 228.41 127.428 228.334C127.352 228.334 127.276 228.372 127.2 228.372Z" fill="#B16430"/>
<path d="M172.343 224.332H133.715C133.715 224.407 133.715 224.445 133.715 224.52V230.749H172.343C173.562 230.749 174.553 229.314 174.553 227.54C174.553 225.766 173.562 224.332 172.343 224.332Z" fill="#935638"/>
<path d="M133.715 229.769V230.75H172.343C172.953 230.75 173.524 230.373 173.943 229.769H133.715Z" fill="#7A4026"/>
<path d="M136.686 227.541C136.686 229.315 135.467 230.787 134.019 230.787C132.533 230.787 131.352 229.353 131.352 227.541C131.352 225.729 132.571 224.294 134.019 224.294C135.467 224.294 136.686 225.767 136.686 227.541Z" fill="#B16430"/>
<path d="M133.981 230.56C132.648 230.56 131.581 229.201 131.581 227.54C131.581 225.879 132.648 224.558 133.981 224.558C135.315 224.558 136.381 225.917 136.381 227.54C136.381 229.201 135.315 230.56 133.981 230.56Z" fill="#F9A56B"/>
<path d="M133.981 224.709C135.124 224.747 136.038 225.955 136.038 227.427C136.038 228.937 135.086 230.145 133.905 230.145C132.724 230.145 131.81 228.937 131.772 227.465V227.502C131.772 229.05 132.762 230.333 133.981 230.333C135.2 230.333 136.191 229.05 136.191 227.502C136.191 225.992 135.2 224.709 133.981 224.709Z" fill="#B16430"/>
<path d="M133.905 229.654C133.029 229.616 132.305 228.71 132.305 227.54C132.305 226.37 133.067 225.426 133.981 225.426C134.896 225.426 135.619 226.332 135.658 227.502V227.464C135.658 226.256 134.896 225.275 133.943 225.275C132.991 225.275 132.229 226.256 132.229 227.464C132.191 228.672 132.953 229.654 133.905 229.654Z" fill="#B16430"/>
<path d="M133.982 225.955C134.629 225.955 135.162 226.672 135.162 227.503C135.162 228.371 134.629 229.05 133.943 229.05C133.296 229.05 132.724 228.371 132.724 227.541V227.578C132.724 228.484 133.296 229.201 133.982 229.201C134.667 229.201 135.239 228.484 135.239 227.578C135.239 226.672 134.705 225.955 133.982 225.955Z" fill="#B16430"/>
<path d="M134.095 228.372C133.753 228.372 133.486 228.032 133.486 227.617C133.486 227.202 133.753 226.862 134.095 226.862C134.324 226.862 134.553 227.051 134.629 227.315C134.514 226.975 134.286 226.711 133.981 226.711C133.6 226.711 133.295 227.088 133.295 227.579C133.295 228.07 133.6 228.447 133.981 228.447C134.095 228.447 134.21 228.41 134.324 228.334C134.248 228.334 134.172 228.372 134.095 228.372Z" fill="#B16430"/>
<path d="M172.343 211.5H133.715C133.715 211.575 133.715 211.613 133.715 211.688V217.917H172.343C173.562 217.917 174.553 216.482 174.553 214.708C174.553 212.934 173.562 211.5 172.343 211.5Z" fill="#935638"/>
<path d="M133.715 216.935V217.917H172.343C172.953 217.917 173.524 217.539 173.943 216.935H133.715Z" fill="#7A4026"/>
<path d="M136.686 214.707C136.686 216.481 135.467 217.953 134.019 217.953C132.533 217.953 131.352 216.519 131.352 214.707C131.352 212.933 132.571 211.461 134.019 211.461C135.467 211.499 136.686 212.933 136.686 214.707Z" fill="#B16430"/>
<path d="M133.981 217.726C132.648 217.726 131.581 216.367 131.581 214.706C131.581 213.045 132.648 211.724 133.981 211.724C135.315 211.724 136.381 213.083 136.381 214.706C136.381 216.367 135.315 217.726 133.981 217.726Z" fill="#F9A56B"/>
<path d="M133.981 211.914C135.124 211.952 136.038 213.16 136.038 214.632C136.038 216.142 135.086 217.35 133.905 217.35C132.724 217.35 131.81 216.142 131.772 214.67V214.707C131.772 216.255 132.762 217.538 133.981 217.538C135.2 217.538 136.191 216.255 136.191 214.707C136.191 213.16 135.2 211.914 133.981 211.914Z" fill="#B16430"/>
<path d="M133.905 216.822C133.029 216.784 132.305 215.878 132.305 214.708C132.305 213.538 133.067 212.594 133.981 212.594C134.896 212.594 135.619 213.538 135.658 214.67V214.633C135.658 213.425 134.896 212.443 133.943 212.443C132.991 212.443 132.229 213.425 132.229 214.633C132.191 215.841 132.953 216.822 133.905 216.822Z" fill="#B16430"/>
<path d="M133.982 213.122C134.629 213.122 135.162 213.839 135.162 214.669C135.162 215.537 134.629 216.217 133.943 216.217C133.296 216.217 132.724 215.537 132.724 214.707V214.745C132.724 215.651 133.296 216.368 133.982 216.368C134.667 216.368 135.239 215.651 135.239 214.745C135.239 213.839 134.705 213.122 133.982 213.122Z" fill="#B16430"/>
<path d="M134.095 215.538C133.753 215.538 133.486 215.198 133.486 214.783C133.486 214.368 133.753 214.028 134.095 214.028C134.324 214.028 134.553 214.217 134.629 214.481C134.514 214.141 134.286 213.877 133.981 213.877C133.6 213.877 133.295 214.254 133.295 214.745C133.295 215.236 133.6 215.613 133.981 215.613C134.095 215.613 134.21 215.576 134.324 215.5C134.248 215.5 134.172 215.538 134.095 215.538Z" fill="#B16430"/>
<path d="M179.239 224.332H140.61C140.61 224.407 140.61 224.445 140.61 224.52V230.749H179.239C180.458 230.749 181.448 229.314 181.448 227.54C181.448 225.766 180.458 224.332 179.239 224.332Z" fill="#935638"/>
<path d="M140.61 229.769V230.75H179.239C179.848 230.75 180.42 230.373 180.839 229.769H140.61Z" fill="#7A4026"/>
<path d="M143.581 227.541C143.581 229.315 142.362 230.787 140.914 230.787C139.429 230.787 138.248 229.353 138.248 227.541C138.248 225.729 139.467 224.294 140.914 224.294C142.362 224.294 143.581 225.767 143.581 227.541Z" fill="#B16430"/>
<path d="M140.877 230.56C139.543 230.56 138.477 229.201 138.477 227.54C138.477 225.879 139.543 224.558 140.877 224.558C142.21 224.558 143.277 225.917 143.277 227.54C143.277 229.201 142.21 230.56 140.877 230.56Z" fill="#F9A56B"/>
<path d="M140.877 224.709C142.02 224.747 142.934 225.955 142.934 227.427C142.934 228.937 141.982 230.145 140.801 230.145C139.62 230.145 138.705 228.937 138.667 227.465V227.502C138.667 229.05 139.658 230.333 140.877 230.333C142.096 230.333 143.086 229.05 143.086 227.502C143.086 225.992 142.096 224.709 140.877 224.709Z" fill="#B16430"/>
<path d="M140.801 229.654C139.924 229.616 139.201 228.71 139.201 227.54C139.201 226.37 139.963 225.426 140.877 225.426C141.791 225.426 142.515 226.332 142.553 227.502V227.464C142.553 226.256 141.791 225.275 140.839 225.275C139.886 225.275 139.124 226.256 139.124 227.464C139.086 228.672 139.848 229.654 140.801 229.654Z" fill="#B16430"/>
<path d="M140.877 225.955C141.524 225.955 142.058 226.672 142.058 227.503C142.058 228.371 141.524 229.05 140.839 229.05C140.191 229.05 139.62 228.371 139.62 227.541V227.578C139.62 228.484 140.191 229.201 140.877 229.201C141.562 229.201 142.134 228.484 142.134 227.578C142.134 226.672 141.601 225.955 140.877 225.955Z" fill="#B16430"/>
<path d="M140.991 228.372C140.648 228.372 140.381 228.032 140.381 227.617C140.381 227.202 140.648 226.862 140.991 226.862C141.219 226.862 141.448 227.051 141.524 227.315C141.41 226.975 141.181 226.711 140.876 226.711C140.495 226.711 140.191 227.088 140.191 227.579C140.191 228.07 140.495 228.447 140.876 228.447C140.991 228.447 141.105 228.41 141.219 228.334C141.143 228.334 141.067 228.372 140.991 228.372Z" fill="#B16430"/>
<path d="M161.867 230.712H123.239C123.239 230.788 123.239 230.826 123.239 230.901V237.129H161.867C163.086 237.129 164.077 235.695 164.077 233.921C164.077 232.147 163.124 230.712 161.867 230.712Z" fill="#935638"/>
<path d="M123.276 236.147V237.129H161.904C162.514 237.129 163.085 236.751 163.504 236.147H123.276Z" fill="#7A4026"/>
<path d="M126.21 233.92C126.21 235.694 124.99 237.166 123.543 237.166C122.057 237.166 120.876 235.732 120.876 233.92C120.876 232.108 122.095 230.674 123.543 230.674C125.029 230.674 126.21 232.146 126.21 233.92Z" fill="#B16430"/>
<path d="M123.543 236.939C122.21 236.939 121.143 235.58 121.143 233.919C121.143 232.258 122.21 230.937 123.543 230.937C124.876 230.937 125.943 232.296 125.943 233.919C125.943 235.58 124.838 236.939 123.543 236.939Z" fill="#F9A56B"/>
<path d="M123.543 231.088C124.686 231.126 125.6 232.334 125.6 233.806C125.6 235.316 124.648 236.524 123.467 236.524C122.286 236.524 121.372 235.316 121.334 233.844V233.882C121.334 235.429 122.324 236.713 123.543 236.713C124.762 236.713 125.753 235.429 125.753 233.882C125.753 232.372 124.762 231.088 123.543 231.088Z" fill="#B16430"/>
<path d="M123.467 236.034C122.591 235.997 121.867 235.091 121.867 233.921C121.867 232.75 122.629 231.807 123.543 231.807C124.458 231.807 125.181 232.75 125.219 233.883V233.845C125.219 232.637 124.458 231.656 123.505 231.656C122.553 231.656 121.791 232.637 121.791 233.845C121.753 235.053 122.515 236.034 123.467 236.034Z" fill="#B16430"/>
<path d="M123.543 232.334C124.191 232.334 124.724 233.052 124.724 233.882C124.724 234.75 124.191 235.43 123.505 235.43C122.858 235.43 122.286 234.75 122.286 233.92V233.958C122.286 234.864 122.858 235.581 123.543 235.581C124.229 235.581 124.8 234.864 124.8 233.958C124.8 233.052 124.229 232.334 123.543 232.334Z" fill="#B16430"/>
<path d="M123.657 234.751C123.314 234.751 123.048 234.411 123.048 233.996C123.048 233.581 123.314 233.241 123.657 233.241C123.886 233.241 124.114 233.43 124.19 233.694C124.076 233.354 123.848 233.09 123.543 233.09C123.162 233.09 122.857 233.467 122.857 233.958C122.857 234.449 123.162 234.826 123.543 234.826C123.657 234.826 123.771 234.789 123.886 234.713C123.81 234.713 123.733 234.751 123.657 234.751Z" fill="#B16430"/>
<path d="M168.763 230.712H130.134C130.134 230.788 130.134 230.826 130.134 230.901V237.129H168.763C169.982 237.129 170.972 235.695 170.972 233.921C170.972 232.147 170.02 230.712 168.763 230.712Z" fill="#935638"/>
<path d="M130.171 236.147V237.129H168.8C169.409 237.129 169.981 236.751 170.4 236.147H130.171Z" fill="#7A4026"/>
<path d="M130.438 237.166C131.911 237.166 133.105 235.713 133.105 233.92C133.105 232.127 131.911 230.674 130.438 230.674C128.966 230.674 127.772 232.127 127.772 233.92C127.772 235.713 128.966 237.166 130.438 237.166Z" fill="#B16430"/>
<path d="M130.439 236.939C129.105 236.939 128.039 235.58 128.039 233.919C128.039 232.258 129.105 230.937 130.439 230.937C131.772 230.937 132.839 232.296 132.839 233.919C132.839 235.58 131.734 236.939 130.439 236.939Z" fill="#F9A56B"/>
<path d="M130.439 231.088C131.582 231.126 132.496 232.334 132.496 233.806C132.496 235.316 131.544 236.524 130.363 236.524C129.182 236.524 128.267 235.316 128.229 233.844V233.882C128.229 235.429 129.22 236.713 130.439 236.713C131.658 236.713 132.648 235.429 132.648 233.882C132.648 232.372 131.658 231.088 130.439 231.088Z" fill="#B16430"/>
<path d="M130.362 236.034C129.486 235.997 128.762 235.091 128.762 233.921C128.762 232.75 129.524 231.807 130.439 231.807C131.353 231.807 132.077 232.75 132.115 233.883V233.845C132.115 232.637 131.353 231.656 130.4 231.656C129.448 231.656 128.686 232.637 128.686 233.845C128.648 235.053 129.41 236.034 130.362 236.034Z" fill="#B16430"/>
<path d="M130.439 232.334C131.086 232.334 131.62 233.052 131.62 233.882C131.62 234.75 131.086 235.43 130.401 235.43C129.753 235.43 129.182 234.75 129.182 233.92V233.958C129.182 234.864 129.753 235.581 130.439 235.581C131.124 235.581 131.696 234.864 131.696 233.958C131.696 233.052 131.124 232.334 130.439 232.334Z" fill="#B16430"/>
<path d="M130.553 234.751C130.21 234.751 129.943 234.411 129.943 233.996C129.943 233.581 130.21 233.241 130.553 233.241C130.781 233.241 131.01 233.43 131.086 233.694C130.972 233.354 130.743 233.09 130.438 233.09C130.057 233.09 129.753 233.467 129.753 233.958C129.753 234.449 130.057 234.826 130.438 234.826C130.553 234.826 130.667 234.789 130.781 234.713C130.705 234.713 130.629 234.751 130.553 234.751Z" fill="#B16430"/>
<path d="M175.658 230.712H137.03C137.03 230.788 137.03 230.826 137.03 230.901V237.129H175.658C176.877 237.129 177.868 235.695 177.868 233.921C177.868 232.147 176.915 230.712 175.658 230.712Z" fill="#935638"/>
<path d="M137.067 236.147V237.129H175.695C176.305 237.129 176.876 236.751 177.295 236.147H137.067Z" fill="#7A4026"/>
<path d="M137.334 237.166C138.807 237.166 140.001 235.713 140.001 233.92C140.001 232.127 138.807 230.674 137.334 230.674C135.861 230.674 134.667 232.127 134.667 233.92C134.667 235.713 135.861 237.166 137.334 237.166Z" fill="#B16430"/>
<path d="M137.334 236.939C136.001 236.939 134.934 235.58 134.934 233.919C134.934 232.258 136.001 230.937 137.334 230.937C138.667 230.937 139.734 232.296 139.734 233.919C139.734 235.58 138.629 236.939 137.334 236.939Z" fill="#F9A56B"/>
<path d="M137.334 231.088C138.477 231.126 139.391 232.334 139.391 233.806C139.391 235.316 138.439 236.524 137.258 236.524C136.077 236.524 135.163 235.316 135.125 233.844V233.882C135.125 235.429 136.115 236.713 137.334 236.713C138.553 236.713 139.544 235.429 139.544 233.882C139.544 232.372 138.553 231.088 137.334 231.088Z" fill="#B16430"/>
<path d="M137.258 236.034C136.382 235.997 135.658 235.091 135.658 233.921C135.658 232.75 136.42 231.807 137.334 231.807C138.248 231.807 138.972 232.75 139.01 233.883V233.845C139.01 232.637 138.248 231.656 137.296 231.656C136.344 231.656 135.582 232.637 135.582 233.845C135.544 235.053 136.306 236.034 137.258 236.034Z" fill="#B16430"/>
<path d="M137.334 232.334C137.982 232.334 138.515 233.052 138.515 233.882C138.515 234.75 137.982 235.43 137.296 235.43C136.648 235.43 136.077 234.75 136.077 233.92V233.958C136.077 234.864 136.648 235.581 137.334 235.581C138.02 235.581 138.591 234.864 138.591 233.958C138.591 233.052 138.02 232.334 137.334 232.334Z" fill="#B16430"/>
<path d="M137.448 234.751C137.105 234.751 136.839 234.411 136.839 233.996C136.839 233.581 137.105 233.241 137.448 233.241C137.677 233.241 137.905 233.43 137.982 233.694C137.867 233.354 137.639 233.09 137.334 233.09C136.953 233.09 136.648 233.467 136.648 233.958C136.648 234.449 136.953 234.826 137.334 234.826C137.448 234.826 137.562 234.789 137.677 234.713C137.601 234.713 137.524 234.751 137.448 234.751Z" fill="#B16430"/>
<path d="M182.551 230.712H143.923C143.923 230.788 143.923 230.826 143.923 230.901V237.129H182.551C183.77 237.129 184.761 235.695 184.761 233.921C184.761 232.147 183.809 230.712 182.551 230.712Z" fill="#935638"/>
<path d="M143.961 236.147V237.129H182.59C183.199 237.129 183.771 236.751 184.19 236.147H143.961Z" fill="#7A4026"/>
<path d="M146.895 233.92C146.895 235.694 145.676 237.166 144.228 237.166C142.742 237.166 141.562 235.732 141.562 233.92C141.562 232.108 142.781 230.674 144.228 230.674C145.714 230.674 146.895 232.146 146.895 233.92Z" fill="#B16430"/>
<path d="M144.229 236.939C142.895 236.939 141.829 235.58 141.829 233.919C141.829 232.258 142.895 230.937 144.229 230.937C145.562 230.937 146.629 232.296 146.629 233.919C146.629 235.58 145.524 236.939 144.229 236.939Z" fill="#F9A56B"/>
<path d="M144.228 231.088C145.371 231.126 146.285 232.334 146.285 233.806C146.285 235.316 145.333 236.524 144.152 236.524C142.971 236.524 142.056 235.316 142.018 233.844V233.882C142.018 235.429 143.009 236.713 144.228 236.713C145.447 236.713 146.437 235.429 146.437 233.882C146.437 232.372 145.447 231.088 144.228 231.088Z" fill="#B16430"/>
<path d="M144.152 236.034C143.275 235.997 142.552 235.091 142.552 233.921C142.552 232.75 143.314 231.807 144.228 231.807C145.142 231.807 145.866 232.75 145.904 233.883V233.845C145.904 232.637 145.142 231.656 144.19 231.656C143.237 231.656 142.475 232.637 142.475 233.845C142.437 235.053 143.199 236.034 144.152 236.034Z" fill="#B16430"/>
<path d="M144.228 232.334C144.875 232.334 145.409 233.052 145.409 233.882C145.409 234.75 144.875 235.43 144.19 235.43C143.542 235.43 142.971 234.75 142.971 233.92V233.958C142.971 234.864 143.542 235.581 144.228 235.581C144.914 235.581 145.485 234.864 145.485 233.958C145.485 233.052 144.914 232.334 144.228 232.334Z" fill="#B16430"/>
<path d="M144.343 234.751C144 234.751 143.733 234.411 143.733 233.996C143.733 233.581 144 233.241 144.343 233.241C144.571 233.241 144.8 233.43 144.876 233.694C144.762 233.354 144.533 233.09 144.228 233.09C143.848 233.09 143.543 233.467 143.543 233.958C143.543 234.449 143.848 234.826 144.228 234.826C144.343 234.826 144.457 234.789 144.571 234.713C144.495 234.713 144.419 234.751 144.343 234.751Z" fill="#B16430"/>
<path d="M240.915 217.917H202.286C202.286 217.993 202.286 218.031 202.286 218.106V224.335H240.915C242.134 224.335 243.124 222.9 243.124 221.126C243.124 219.352 242.172 217.917 240.915 217.917Z" fill="#935638"/>
<path d="M202.323 223.353V224.334H240.952C241.562 224.334 242.133 223.956 242.552 223.353H202.323Z" fill="#7A4026"/>
<path d="M205.257 221.125C205.257 222.899 204.038 224.371 202.59 224.371C201.105 224.371 199.924 222.937 199.924 221.125C199.924 219.313 201.143 217.878 202.59 217.878C204.076 217.878 205.257 219.351 205.257 221.125Z" fill="#B16430"/>
<path d="M202.591 224.144C201.257 224.144 200.191 222.785 200.191 221.124C200.191 219.463 201.257 218.142 202.591 218.142C203.924 218.142 204.991 219.501 204.991 221.124C204.991 222.785 203.886 224.144 202.591 224.144Z" fill="#F9A56B"/>
<path d="M202.591 218.293C203.734 218.331 204.648 219.539 204.648 221.011C204.648 222.521 203.696 223.729 202.515 223.729C201.334 223.729 200.419 222.521 200.381 221.049V221.087C200.381 222.634 201.372 223.918 202.591 223.918C203.81 223.918 204.8 222.634 204.8 221.087C204.8 219.577 203.81 218.293 202.591 218.293Z" fill="#B16430"/>
<path d="M202.515 223.239C201.639 223.202 200.915 222.296 200.915 221.126C200.915 219.955 201.677 219.012 202.591 219.012C203.505 219.012 204.229 219.955 204.267 221.088V221.05C204.267 219.842 203.505 218.861 202.553 218.861C201.6 218.861 200.839 219.842 200.839 221.05C200.8 222.258 201.562 223.239 202.515 223.239Z" fill="#B16430"/>
<path d="M202.591 219.539C203.239 219.539 203.772 220.256 203.772 221.087C203.772 221.955 203.239 222.634 202.553 222.634C201.905 222.634 201.334 221.955 201.334 221.124V221.162C201.334 222.068 201.905 222.785 202.591 222.785C203.277 222.785 203.848 222.068 203.848 221.162C203.848 220.256 203.277 219.539 202.591 219.539Z" fill="#B16430"/>
<path d="M202.705 221.956C202.362 221.956 202.096 221.616 202.096 221.201C202.096 220.786 202.362 220.446 202.705 220.446C202.934 220.446 203.162 220.635 203.238 220.899C203.124 220.559 202.895 220.295 202.591 220.295C202.21 220.295 201.905 220.672 201.905 221.163C201.905 221.654 202.21 222.031 202.591 222.031C202.705 222.031 202.819 221.994 202.934 221.918C202.857 221.918 202.781 221.956 202.705 221.956Z" fill="#B16430"/>
<path d="M247.81 217.917H209.182C209.182 217.993 209.182 218.031 209.182 218.106V224.335H247.81C249.029 224.335 250.02 222.9 250.02 221.126C250.02 219.352 249.067 217.917 247.81 217.917Z" fill="#935638"/>
<path d="M209.219 223.353V224.334H247.848C248.457 224.334 249.029 223.956 249.448 223.353H209.219Z" fill="#7A4026"/>
<path d="M212.153 221.125C212.153 222.899 210.934 224.371 209.486 224.371C208 224.371 206.819 222.937 206.819 221.125C206.819 219.313 208.038 217.878 209.486 217.878C210.972 217.878 212.153 219.351 212.153 221.125Z" fill="#B16430"/>
<path d="M209.486 224.144C208.153 224.144 207.086 222.785 207.086 221.124C207.086 219.463 208.153 218.142 209.486 218.142C210.819 218.142 211.886 219.501 211.886 221.124C211.886 222.785 210.781 224.144 209.486 224.144Z" fill="#F9A56B"/>
<path d="M209.486 218.293C210.629 218.331 211.544 219.539 211.544 221.011C211.544 222.521 210.591 223.729 209.41 223.729C208.229 223.729 207.315 222.521 207.277 221.049V221.087C207.277 222.634 208.267 223.918 209.486 223.918C210.705 223.918 211.696 222.634 211.696 221.087C211.696 219.577 210.705 218.293 209.486 218.293Z" fill="#B16430"/>
<path d="M209.41 223.239C208.534 223.202 207.81 222.296 207.81 221.126C207.81 219.955 208.572 219.012 209.486 219.012C210.401 219.012 211.124 219.955 211.163 221.088V221.05C211.163 219.842 210.401 218.861 209.448 218.861C208.496 218.861 207.734 219.842 207.734 221.05C207.696 222.258 208.458 223.239 209.41 223.239Z" fill="#B16430"/>
<path d="M209.486 219.539C210.134 219.539 210.667 220.256 210.667 221.087C210.667 221.955 210.134 222.634 209.448 222.634C208.801 222.634 208.229 221.955 208.229 221.124V221.162C208.229 222.068 208.801 222.785 209.486 222.785C210.172 222.785 210.743 222.068 210.743 221.162C210.743 220.256 210.172 219.539 209.486 219.539Z" fill="#B16430"/>
<path d="M209.6 221.956C209.257 221.956 208.991 221.616 208.991 221.201C208.991 220.786 209.257 220.446 209.6 220.446C209.829 220.446 210.057 220.635 210.134 220.899C210.019 220.559 209.791 220.295 209.486 220.295C209.105 220.295 208.8 220.672 208.8 221.163C208.8 221.654 209.105 222.031 209.486 222.031C209.6 222.031 209.715 221.994 209.829 221.918C209.753 221.918 209.676 221.956 209.6 221.956Z" fill="#B16430"/>
<path d="M237.258 224.332H198.629C198.629 224.407 198.629 224.445 198.629 224.52V230.749H237.258C238.477 230.749 239.467 229.314 239.467 227.54C239.467 225.766 238.515 224.332 237.258 224.332Z" fill="#935638"/>
<path d="M198.666 229.769V230.75H237.295C237.904 230.75 238.476 230.373 238.895 229.769H198.666Z" fill="#7A4026"/>
<path d="M201.6 227.541C201.6 229.315 200.381 230.787 198.934 230.787C197.448 230.787 196.267 229.353 196.267 227.541C196.267 225.729 197.486 224.294 198.934 224.294C200.419 224.294 201.6 225.767 201.6 227.541Z" fill="#B16430"/>
<path d="M198.934 230.56C197.6 230.56 196.534 229.201 196.534 227.54C196.534 225.879 197.6 224.558 198.934 224.558C200.267 224.558 201.334 225.917 201.334 227.54C201.334 229.201 200.229 230.56 198.934 230.56Z" fill="#F9A56B"/>
<path d="M198.934 224.709C200.077 224.747 200.991 225.955 200.991 227.427C200.991 228.937 200.039 230.145 198.858 230.145C197.677 230.145 196.763 228.937 196.725 227.465V227.502C196.725 229.05 197.715 230.333 198.934 230.333C200.153 230.333 201.144 229.05 201.144 227.502C201.144 225.992 200.153 224.709 198.934 224.709Z" fill="#B16430"/>
<path d="M198.858 229.654C197.982 229.616 197.258 228.71 197.258 227.54C197.258 226.37 198.02 225.426 198.934 225.426C199.848 225.426 200.572 226.332 200.61 227.502V227.464C200.61 226.256 199.848 225.275 198.896 225.275C197.943 225.275 197.182 226.256 197.182 227.464C197.143 228.672 197.905 229.654 198.858 229.654Z" fill="#B16430"/>
<path d="M198.934 225.955C199.582 225.955 200.115 226.672 200.115 227.503C200.115 228.371 199.581 229.05 198.896 229.05C198.248 229.05 197.677 228.371 197.677 227.541V227.578C197.677 228.484 198.248 229.201 198.934 229.201C199.62 229.201 200.191 228.484 200.191 227.578C200.191 226.672 199.62 225.955 198.934 225.955Z" fill="#B16430"/>
<path d="M199.048 228.372C198.705 228.372 198.438 228.032 198.438 227.617C198.438 227.202 198.705 226.862 199.048 226.862C199.276 226.862 199.505 227.051 199.581 227.315C199.467 226.975 199.238 226.711 198.934 226.711C198.553 226.711 198.248 227.088 198.248 227.579C198.248 228.07 198.553 228.447 198.934 228.447C199.048 228.447 199.162 228.41 199.276 228.334C199.2 228.334 199.124 228.372 199.048 228.372Z" fill="#B16430"/>
<path d="M244.153 224.332H205.525C205.525 224.407 205.525 224.445 205.525 224.52V230.749H244.153C245.372 230.749 246.363 229.314 246.363 227.54C246.363 225.766 245.41 224.332 244.153 224.332Z" fill="#935638"/>
<path d="M205.562 229.769V230.75H244.19C244.8 230.75 245.371 230.373 245.79 229.769H205.562Z" fill="#7A4026"/>
<path d="M205.829 230.787C207.302 230.787 208.496 229.334 208.496 227.541C208.496 225.748 207.302 224.294 205.829 224.294C204.356 224.294 203.162 225.748 203.162 227.541C203.162 229.334 204.356 230.787 205.829 230.787Z" fill="#B16430"/>
<path d="M205.829 230.56C204.496 230.56 203.429 229.201 203.429 227.54C203.429 225.879 204.496 224.558 205.829 224.558C207.163 224.558 208.229 225.917 208.229 227.54C208.191 229.201 207.124 230.56 205.829 230.56Z" fill="#F9A56B"/>
<path d="M205.829 224.709C206.972 224.747 207.887 225.955 207.887 227.427C207.887 228.937 206.934 230.145 205.753 230.145C204.572 230.145 203.658 228.937 203.62 227.465V227.502C203.62 229.05 204.61 230.333 205.829 230.333C207.048 230.333 208.039 229.05 208.039 227.502C208.039 225.992 207.048 224.709 205.829 224.709Z" fill="#B16430"/>
<path d="M205.753 229.654C204.877 229.616 204.153 228.71 204.153 227.54C204.153 226.37 204.915 225.426 205.829 225.426C206.744 225.426 207.467 226.332 207.505 227.502V227.464C207.505 226.256 206.743 225.275 205.791 225.275C204.839 225.275 204.077 226.256 204.077 227.464C204.039 228.672 204.801 229.654 205.753 229.654Z" fill="#B16430"/>
<path d="M205.829 225.955C206.477 225.955 207.01 226.672 207.01 227.503C207.01 228.371 206.477 229.05 205.791 229.05C205.144 229.05 204.572 228.371 204.572 227.541V227.578C204.572 228.484 205.144 229.201 205.829 229.201C206.515 229.201 207.087 228.484 207.087 227.578C207.087 226.672 206.515 225.955 205.829 225.955Z" fill="#B16430"/>
<path d="M205.943 228.372C205.6 228.372 205.334 228.032 205.334 227.617C205.334 227.202 205.6 226.862 205.943 226.862C206.172 226.862 206.4 227.051 206.477 227.315C206.362 226.975 206.134 226.711 205.829 226.711C205.448 226.711 205.143 227.088 205.143 227.579C205.143 228.07 205.448 228.447 205.829 228.447C205.943 228.447 206.058 228.41 206.172 228.334C206.096 228.334 206.02 228.372 205.943 228.372Z" fill="#B16430"/>
<path d="M244.153 211.5H205.525C205.525 211.575 205.525 211.613 205.525 211.688V217.917H244.153C245.372 217.917 246.363 216.482 246.363 214.708C246.401 212.934 245.41 211.5 244.153 211.5Z" fill="#935638"/>
<path d="M205.562 216.935V217.917H244.19C244.8 217.917 245.371 217.539 245.79 216.935H205.562Z" fill="#7A4026"/>
<path d="M205.829 217.953C207.302 217.953 208.496 216.5 208.496 214.707C208.496 212.914 207.302 211.461 205.829 211.461C204.356 211.461 203.162 212.914 203.162 214.707C203.162 216.5 204.356 217.953 205.829 217.953Z" fill="#B16430"/>
<path d="M205.829 217.726C204.496 217.726 203.429 216.367 203.429 214.706C203.429 213.045 204.496 211.724 205.829 211.724C207.163 211.724 208.229 213.083 208.229 214.706C208.191 216.367 207.124 217.726 205.829 217.726Z" fill="#F9A56B"/>
<path d="M205.829 211.914C206.972 211.952 207.887 213.16 207.887 214.632C207.887 216.142 206.934 217.35 205.753 217.35C204.572 217.35 203.658 216.142 203.62 214.67V214.707C203.62 216.255 204.61 217.538 205.829 217.538C207.048 217.538 208.039 216.255 208.039 214.707C208.039 213.16 207.048 211.914 205.829 211.914Z" fill="#B16430"/>
<path d="M205.753 216.822C204.877 216.784 204.153 215.878 204.153 214.708C204.153 213.538 204.915 212.594 205.829 212.594C206.744 212.594 207.467 213.538 207.505 214.67V214.633C207.505 213.425 206.743 212.443 205.791 212.443C204.839 212.443 204.077 213.425 204.077 214.633C204.039 215.841 204.801 216.822 205.753 216.822Z" fill="#B16430"/>
<path d="M205.829 213.122C206.477 213.122 207.01 213.839 207.01 214.669C207.01 215.537 206.477 216.217 205.791 216.217C205.144 216.217 204.572 215.537 204.572 214.707V214.745C204.572 215.651 205.144 216.368 205.829 216.368C206.515 216.368 207.087 215.651 207.087 214.745C207.087 213.839 206.515 213.122 205.829 213.122Z" fill="#B16430"/>
<path d="M205.943 215.538C205.6 215.538 205.334 215.198 205.334 214.783C205.334 214.368 205.6 214.028 205.943 214.028C206.172 214.028 206.4 214.217 206.477 214.481C206.362 214.141 206.134 213.877 205.829 213.877C205.448 213.877 205.143 214.254 205.143 214.745C205.143 215.236 205.448 215.613 205.829 215.613C205.943 215.613 206.058 215.576 206.172 215.5C206.096 215.5 206.02 215.538 205.943 215.538Z" fill="#B16430"/>
<path d="M251.049 224.332H212.42C212.42 224.407 212.42 224.445 212.42 224.52V230.749H251.049C252.268 230.749 253.258 229.314 253.258 227.54C253.258 225.766 252.306 224.332 251.049 224.332Z" fill="#935638"/>
<path d="M212.457 229.769V230.75H251.086C251.695 230.75 252.267 230.373 252.686 229.769H212.457Z" fill="#7A4026"/>
<path d="M212.725 230.787C214.197 230.787 215.391 229.334 215.391 227.541C215.391 225.748 214.197 224.294 212.725 224.294C211.252 224.294 210.058 225.748 210.058 227.541C210.058 229.334 211.252 230.787 212.725 230.787Z" fill="#B16430"/>
<path d="M212.725 230.56C211.391 230.56 210.325 229.201 210.325 227.54C210.325 225.879 211.391 224.558 212.725 224.558C214.058 224.558 215.125 225.917 215.125 227.54C215.087 229.201 214.02 230.56 212.725 230.56Z" fill="#F9A56B"/>
<path d="M212.725 224.709C213.868 224.747 214.782 225.955 214.782 227.427C214.782 228.937 213.83 230.145 212.649 230.145C211.468 230.145 210.553 228.937 210.515 227.465V227.502C210.515 229.05 211.506 230.333 212.725 230.333C213.944 230.333 214.934 229.05 214.934 227.502C214.934 225.992 213.944 224.709 212.725 224.709Z" fill="#B16430"/>
<path d="M212.649 229.654C211.772 229.616 211.049 228.71 211.049 227.54C211.049 226.37 211.81 225.426 212.725 225.426C213.639 225.426 214.363 226.332 214.401 227.502V227.464C214.401 226.256 213.639 225.275 212.687 225.275C211.734 225.275 210.972 226.256 210.972 227.464C210.934 228.672 211.696 229.654 212.649 229.654Z" fill="#B16430"/>
<path d="M212.725 225.955C213.373 225.955 213.906 226.672 213.906 227.503C213.906 228.371 213.373 229.05 212.687 229.05C212.039 229.05 211.468 228.371 211.468 227.541V227.578C211.468 228.484 212.039 229.201 212.725 229.201C213.411 229.201 213.982 228.484 213.982 227.578C213.982 226.672 213.411 225.955 212.725 225.955Z" fill="#B16430"/>
<path d="M212.839 228.372C212.496 228.372 212.229 228.032 212.229 227.617C212.229 227.202 212.496 226.862 212.839 226.862C213.067 226.862 213.296 227.051 213.372 227.315C213.258 226.975 213.029 226.711 212.725 226.711C212.344 226.711 212.039 227.088 212.039 227.579C212.039 228.07 212.344 228.447 212.725 228.447C212.839 228.447 212.953 228.41 213.067 228.334C212.991 228.334 212.915 228.372 212.839 228.372Z" fill="#B16430"/>
<path d="M233.714 230.712H195.086C195.086 230.788 195.086 230.826 195.086 230.901V237.129H233.714C234.933 237.129 235.924 235.695 235.924 233.921C235.924 232.147 234.933 230.712 233.714 230.712Z" fill="#935638"/>
<path d="M195.086 236.147V237.129H233.714C234.324 237.129 234.895 236.751 235.314 236.147H195.086Z" fill="#7A4026"/>
<path d="M198.057 233.92C198.057 235.694 196.838 237.166 195.391 237.166C193.905 237.166 192.724 235.732 192.724 233.92C192.724 232.108 193.943 230.674 195.391 230.674C196.838 230.674 198.057 232.146 198.057 233.92Z" fill="#B16430"/>
<path d="M195.391 236.939C194.058 236.939 192.991 235.58 192.991 233.919C192.991 232.258 194.058 230.937 195.391 230.937C196.725 230.937 197.791 232.296 197.791 233.919C197.753 235.58 196.686 236.939 195.391 236.939Z" fill="#F9A56B"/>
<path d="M195.39 231.088C195.352 231.126 195.352 231.088 195.39 231.088C196.533 231.126 197.448 232.334 197.448 233.806C197.448 235.316 196.495 236.524 195.314 236.524C194.133 236.524 193.219 235.316 193.181 233.844V233.882C193.181 235.429 194.171 236.713 195.39 236.713C196.609 236.713 197.6 235.429 197.6 233.882C197.6 232.372 196.571 231.088 195.39 231.088Z" fill="#B16430"/>
<path d="M195.277 236.034C195.315 236.034 195.315 236.034 195.277 236.034C194.401 235.997 193.677 235.091 193.677 233.921C193.677 232.75 194.439 231.807 195.353 231.807C196.267 231.807 196.991 232.75 197.029 233.883V233.845C197.029 232.637 196.267 231.656 195.315 231.656C194.363 231.656 193.601 232.637 193.601 233.845C193.563 235.053 194.325 236.034 195.277 236.034Z" fill="#B16430"/>
<path d="M195.39 232.334C196.038 232.334 196.571 233.052 196.571 233.882C196.571 234.75 196.038 235.43 195.352 235.43C194.705 235.43 194.133 234.75 194.133 233.92V233.958C194.133 234.864 194.704 235.581 195.39 235.581C196.076 235.581 196.647 234.864 196.647 233.958C196.647 233.052 196.076 232.334 195.39 232.334Z" fill="#B16430"/>
<path d="M195.467 234.751C195.124 234.751 194.858 234.411 194.858 233.996C194.858 233.581 195.124 233.241 195.467 233.241C195.696 233.241 195.924 233.43 196.001 233.694C195.886 233.354 195.658 233.09 195.353 233.09C194.972 233.09 194.667 233.467 194.667 233.958C194.667 234.449 194.972 234.826 195.353 234.826C195.467 234.826 195.582 234.789 195.696 234.713C195.658 234.713 195.543 234.751 195.467 234.751Z" fill="#B16430"/>
<path d="M240.61 230.712H201.981C201.981 230.788 201.981 230.826 201.981 230.901V237.129H240.61C241.829 237.129 242.819 235.695 242.819 233.921C242.819 232.147 241.829 230.712 240.61 230.712Z" fill="#935638"/>
<path d="M201.981 236.147V237.129H240.61C241.219 237.129 241.791 236.751 242.21 236.147H201.981Z" fill="#7A4026"/>
<path d="M204.953 233.92C204.953 235.694 203.734 237.166 202.286 237.166C200.801 237.166 199.62 235.732 199.62 233.92C199.62 232.108 200.839 230.674 202.286 230.674C203.734 230.674 204.953 232.146 204.953 233.92Z" fill="#B16430"/>
<path d="M202.287 236.939C200.953 236.939 199.887 235.58 199.887 233.919C199.887 232.258 200.953 230.937 202.287 230.937C203.62 230.937 204.687 232.296 204.687 233.919C204.649 235.58 203.582 236.939 202.287 236.939Z" fill="#F9A56B"/>
<path d="M202.286 231.088C202.248 231.126 202.248 231.088 202.286 231.088C203.429 231.126 204.343 232.334 204.343 233.806C204.343 235.316 203.391 236.524 202.21 236.524C201.029 236.524 200.115 235.316 200.076 233.844V233.882C200.076 235.429 201.067 236.713 202.286 236.713C203.505 236.713 204.495 235.429 204.495 233.882C204.457 232.372 203.467 231.088 202.286 231.088Z" fill="#B16430"/>
<path d="M202.172 236.034C202.211 236.034 202.211 236.034 202.172 236.034C201.296 235.997 200.572 235.091 200.572 233.921C200.572 232.75 201.334 231.807 202.249 231.807C203.163 231.807 203.887 232.75 203.925 233.883V233.845C203.925 232.637 203.163 231.656 202.211 231.656C201.258 231.656 200.496 232.637 200.496 233.845C200.458 235.053 201.22 236.034 202.172 236.034Z" fill="#B16430"/>
<path d="M202.286 232.334C202.933 232.334 203.467 233.052 203.467 233.882C203.467 234.75 202.933 235.43 202.248 235.43C201.6 235.43 201.029 234.75 201.029 233.92V233.958C201.029 234.864 201.6 235.581 202.286 235.581C202.971 235.581 203.543 234.864 203.543 233.958C203.543 233.052 202.971 232.334 202.286 232.334Z" fill="#B16430"/>
<path d="M202.363 234.751C202.02 234.751 201.753 234.411 201.753 233.996C201.753 233.581 202.02 233.241 202.363 233.241C202.591 233.241 202.82 233.43 202.896 233.694C202.782 233.354 202.553 233.09 202.248 233.09C201.867 233.09 201.563 233.467 201.563 233.958C201.563 234.449 201.867 234.826 202.248 234.826C202.363 234.826 202.477 234.789 202.591 234.713C202.553 234.713 202.439 234.751 202.363 234.751Z" fill="#B16430"/>
<path d="M247.505 230.712H208.876C208.876 230.788 208.876 230.826 208.876 230.901V237.129H247.505C248.724 237.129 249.715 235.695 249.715 233.921C249.715 232.147 248.724 230.712 247.505 230.712Z" fill="#935638"/>
<path d="M208.876 236.147V237.129H247.505C248.115 237.129 248.686 236.751 249.105 236.147H208.876Z" fill="#7A4026"/>
<path d="M211.848 233.92C211.848 235.694 210.628 237.166 209.181 237.166C207.695 237.166 206.514 235.732 206.514 233.92C206.514 232.108 207.733 230.674 209.181 230.674C210.628 230.674 211.848 232.146 211.848 233.92Z" fill="#B16430"/>
<path d="M209.143 236.939C207.81 236.939 206.743 235.58 206.743 233.919C206.743 232.258 207.81 230.937 209.143 230.937C210.477 230.937 211.543 232.296 211.543 233.919C211.543 235.58 210.477 236.939 209.143 236.939Z" fill="#F9A56B"/>
<path d="M209.143 231.088C210.286 231.126 211.2 232.334 211.2 233.806C211.2 235.316 210.248 236.524 209.067 236.524C207.886 236.524 206.972 235.316 206.934 233.844V233.882C206.934 235.429 207.924 236.713 209.143 236.713C210.362 236.713 211.353 235.429 211.353 233.882C211.353 232.372 210.362 231.088 209.143 231.088Z" fill="#B16430"/>
<path d="M209.067 236.034C209.105 236.034 209.105 236.034 209.067 236.034C208.191 235.997 207.467 235.091 207.467 233.921C207.467 232.75 208.229 231.807 209.143 231.807C210.057 231.807 210.781 232.75 210.819 233.883V233.845C210.819 232.637 210.057 231.656 209.105 231.656C208.153 231.656 207.391 232.637 207.391 233.845C207.353 235.053 208.115 236.034 209.067 236.034Z" fill="#B16430"/>
<path d="M209.181 232.334C209.143 232.334 209.143 232.334 209.181 232.334C209.829 232.334 210.362 233.052 210.362 233.882C210.362 234.75 209.829 235.43 209.143 235.43C208.495 235.43 207.924 234.75 207.924 233.92V233.958C207.924 234.864 208.496 235.581 209.181 235.581C209.867 235.581 210.438 234.864 210.438 233.958C210.438 233.052 209.867 232.334 209.181 232.334Z" fill="#B16430"/>
<path d="M209.257 234.751C208.914 234.751 208.648 234.411 208.648 233.996C208.648 233.581 208.914 233.241 209.257 233.241C209.486 233.241 209.714 233.43 209.791 233.694C209.676 233.354 209.448 233.09 209.143 233.09C208.762 233.09 208.457 233.467 208.457 233.958C208.457 234.449 208.762 234.826 209.143 234.826C209.257 234.826 209.372 234.789 209.486 234.713C209.448 234.713 209.333 234.751 209.257 234.751Z" fill="#B16430"/>
<path d="M254.401 230.712H215.772C215.772 230.788 215.772 230.826 215.772 230.901V237.129H254.401C255.62 237.129 256.61 235.695 256.61 233.921C256.61 232.147 255.62 230.712 254.401 230.712Z" fill="#935638"/>
<path d="M215.772 236.147V237.129H254.401C255.01 237.129 255.582 236.751 256.001 236.147H215.772Z" fill="#7A4026"/>
<path d="M218.743 233.92C218.743 235.694 217.524 237.166 216.076 237.166C214.591 237.166 213.41 235.732 213.41 233.92C213.41 232.108 214.629 230.674 216.076 230.674C217.524 230.674 218.743 232.146 218.743 233.92Z" fill="#B16430"/>
<path d="M216.038 236.939C214.705 236.939 213.638 235.58 213.638 233.919C213.638 232.258 214.705 230.937 216.038 230.937C217.372 230.937 218.438 232.296 218.438 233.919C218.438 235.58 217.372 236.939 216.038 236.939Z" fill="#F9A56B"/>
<path d="M216.039 231.088C217.181 231.126 218.096 232.334 218.096 233.806C218.096 235.316 217.143 236.524 215.962 236.524C214.782 236.524 213.867 235.316 213.829 233.844V233.882C213.829 235.429 214.82 236.713 216.039 236.713C217.258 236.713 218.248 235.429 218.248 233.882C218.248 232.372 217.258 231.088 216.039 231.088Z" fill="#B16430"/>
<path d="M215.962 236.034C215.086 235.997 214.362 235.091 214.362 233.921C214.362 232.75 215.124 231.807 216.039 231.807C216.953 231.807 217.677 232.75 217.715 233.883V233.845C217.715 232.637 216.953 231.656 216.001 231.656C215.048 231.656 214.286 232.637 214.286 233.845C214.248 235.053 215.01 236.034 215.962 236.034Z" fill="#B16430"/>
<path d="M216.077 232.334C216.039 232.334 216.039 232.334 216.077 232.334C216.725 232.334 217.258 233.052 217.258 233.882C217.258 234.75 216.725 235.43 216.039 235.43C215.391 235.43 214.82 234.75 214.82 233.92V233.958C214.82 234.864 215.391 235.581 216.077 235.581C216.763 235.581 217.334 234.864 217.334 233.958C217.334 233.052 216.763 232.334 216.077 232.334Z" fill="#B16430"/>
<path d="M216.153 234.751C215.81 234.751 215.543 234.411 215.543 233.996C215.543 233.581 215.81 233.241 216.153 233.241C216.381 233.241 216.61 233.43 216.686 233.694C216.572 233.354 216.343 233.09 216.038 233.09C215.657 233.09 215.353 233.467 215.353 233.958C215.353 234.449 215.657 234.826 216.038 234.826C216.153 234.826 216.267 234.789 216.381 234.713C216.343 234.713 216.229 234.751 216.153 234.751Z" fill="#B16430"/>
<path d="M350.323 217.917H311.695C311.695 217.993 311.695 218.031 311.695 218.106V224.335H350.323C351.542 224.335 352.533 222.9 352.533 221.126C352.533 219.352 351.542 217.917 350.323 217.917Z" fill="#935638"/>
<path d="M311.695 223.353V224.334H350.323C350.933 224.334 351.504 223.956 351.923 223.353H311.695Z" fill="#7A4026"/>
<path d="M314.667 221.125C314.667 222.899 313.448 224.371 312 224.371C310.514 224.371 309.333 222.937 309.333 221.125C309.333 219.313 310.552 217.878 312 217.878C313.448 217.878 314.667 219.351 314.667 221.125Z" fill="#B16430"/>
<path d="M311.962 224.144C310.629 224.144 309.562 222.785 309.562 221.124C309.562 219.463 310.629 218.142 311.962 218.142C313.295 218.142 314.362 219.501 314.362 221.124C314.362 222.785 313.295 224.144 311.962 224.144Z" fill="#F9A56B"/>
<path d="M311.962 218.293C313.105 218.331 314.02 219.539 314.02 221.011C314.02 222.521 313.067 223.729 311.886 223.729C310.705 223.729 309.791 222.521 309.753 221.049V221.087C309.753 222.634 310.743 223.918 311.962 223.918C313.182 223.918 314.172 222.634 314.172 221.087C314.172 219.577 313.182 218.293 311.962 218.293Z" fill="#B16430"/>
<path d="M311.886 223.239C311.01 223.202 310.286 222.296 310.286 221.126C310.286 219.955 311.048 219.012 311.962 219.012C312.877 219.012 313.6 219.955 313.638 221.088V221.05C313.638 219.842 312.877 218.861 311.924 218.861C310.972 218.861 310.21 219.842 310.21 221.05C310.172 222.258 310.934 223.239 311.886 223.239Z" fill="#B16430"/>
<path d="M311.962 219.539C312.61 219.539 313.143 220.256 313.143 221.087C313.143 221.955 312.61 222.634 311.924 222.634C311.276 222.634 310.705 221.955 310.705 221.124V221.162C310.705 222.068 311.277 222.785 311.962 222.785C312.648 222.785 313.219 222.068 313.219 221.162C313.219 220.256 312.686 219.539 311.962 219.539Z" fill="#B16430"/>
<path d="M312.076 221.956C311.733 221.956 311.467 221.616 311.467 221.201C311.467 220.786 311.733 220.446 312.076 220.446C312.305 220.446 312.533 220.635 312.609 220.899C312.495 220.559 312.267 220.295 311.962 220.295C311.581 220.295 311.276 220.672 311.276 221.163C311.276 221.654 311.581 222.031 311.962 222.031C312.076 222.031 312.19 221.994 312.305 221.918C312.229 221.918 312.152 221.956 312.076 221.956Z" fill="#B16430"/>
<path d="M357.219 217.917H318.59C318.59 217.993 318.59 218.031 318.59 218.106V224.335H357.219C358.438 224.335 359.428 222.9 359.428 221.126C359.428 219.352 358.438 217.917 357.219 217.917Z" fill="#935638"/>
<path d="M318.59 223.353V224.334H357.219C357.828 224.334 358.4 223.956 358.819 223.353H318.59Z" fill="#7A4026"/>
<path d="M321.562 221.125C321.562 222.899 320.343 224.371 318.895 224.371C317.41 224.371 316.229 222.937 316.229 221.125C316.229 219.313 317.448 217.878 318.895 217.878C320.343 217.878 321.562 219.351 321.562 221.125Z" fill="#B16430"/>
<path d="M318.858 224.144C317.524 224.144 316.458 222.785 316.458 221.124C316.458 219.463 317.524 218.142 318.858 218.142C320.191 218.142 321.258 219.501 321.258 221.124C321.258 222.785 320.191 224.144 318.858 224.144Z" fill="#F9A56B"/>
<path d="M318.858 218.293C320.001 218.331 320.915 219.539 320.915 221.011C320.915 222.521 319.962 223.729 318.782 223.729C317.601 223.729 316.686 222.521 316.648 221.049V221.087C316.648 222.634 317.639 223.918 318.858 223.918C320.077 223.918 321.067 222.634 321.067 221.087C321.067 219.577 320.077 218.293 318.858 218.293Z" fill="#B16430"/>
<path d="M318.782 223.239C317.905 223.202 317.182 222.296 317.182 221.126C317.182 219.955 317.943 219.012 318.858 219.012C319.772 219.012 320.496 219.955 320.534 221.088V221.05C320.534 219.842 319.772 218.861 318.82 218.861C317.867 218.861 317.105 219.842 317.105 221.05C317.067 222.258 317.829 223.239 318.782 223.239Z" fill="#B16430"/>
<path d="M318.858 219.539C319.505 219.539 320.039 220.256 320.039 221.087C320.039 221.955 319.505 222.634 318.82 222.634C318.172 222.634 317.601 221.955 317.601 221.124V221.162C317.601 222.068 318.172 222.785 318.858 222.785C319.543 222.785 320.115 222.068 320.115 221.162C320.115 220.256 319.582 219.539 318.858 219.539Z" fill="#B16430"/>
<path d="M318.972 221.956C318.629 221.956 318.362 221.616 318.362 221.201C318.362 220.786 318.629 220.446 318.972 220.446C319.2 220.446 319.429 220.635 319.505 220.899C319.391 220.559 319.162 220.295 318.857 220.295C318.476 220.295 318.172 220.672 318.172 221.163C318.172 221.654 318.476 222.031 318.857 222.031C318.972 222.031 319.086 221.994 319.2 221.918C319.124 221.918 319.048 221.956 318.972 221.956Z" fill="#B16430"/>
<path d="M346.667 224.332H308.039C308.039 224.407 308.039 224.445 308.039 224.52V230.749H346.667C347.886 230.749 348.877 229.314 348.877 227.54C348.877 225.766 347.886 224.332 346.667 224.332Z" fill="#935638"/>
<path d="M308.039 229.769V230.75H346.667C347.277 230.75 347.848 230.373 348.267 229.769H308.039Z" fill="#7A4026"/>
<path d="M311.01 227.541C311.01 229.315 309.791 230.787 308.343 230.787C306.858 230.787 305.677 229.353 305.677 227.541C305.677 225.729 306.896 224.294 308.343 224.294C309.791 224.294 311.01 225.767 311.01 227.541Z" fill="#B16430"/>
<path d="M308.305 230.56C306.972 230.56 305.905 229.201 305.905 227.54C305.905 225.879 306.972 224.558 308.305 224.558C309.639 224.558 310.705 225.917 310.705 227.54C310.705 229.201 309.639 230.56 308.305 230.56Z" fill="#F9A56B"/>
<path d="M308.305 224.709C309.448 224.747 310.362 225.955 310.362 227.427C310.362 228.937 309.41 230.145 308.229 230.145C307.048 230.145 306.134 228.937 306.096 227.465V227.502C306.096 229.05 307.086 230.333 308.305 230.333C309.524 230.333 310.515 229.05 310.515 227.502C310.515 225.992 309.524 224.709 308.305 224.709Z" fill="#B16430"/>
<path d="M308.229 229.654C307.353 229.616 306.629 228.71 306.629 227.54C306.629 226.37 307.391 225.426 308.305 225.426C309.22 225.426 309.943 226.332 309.981 227.502V227.464C309.981 226.256 309.22 225.275 308.267 225.275C307.315 225.275 306.553 226.256 306.553 227.464C306.515 228.672 307.277 229.654 308.229 229.654Z" fill="#B16430"/>
<path d="M308.305 225.955C308.953 225.955 309.486 226.672 309.486 227.503C309.486 228.371 308.953 229.05 308.267 229.05C307.62 229.05 307.048 228.371 307.048 227.541V227.578C307.048 228.484 307.62 229.201 308.305 229.201C308.991 229.201 309.563 228.484 309.563 227.578C309.563 226.672 308.991 225.955 308.305 225.955Z" fill="#B16430"/>
<path d="M308.419 228.372C308.076 228.372 307.81 228.032 307.81 227.617C307.81 227.202 308.076 226.862 308.419 226.862C308.648 226.862 308.876 227.051 308.952 227.315C308.838 226.975 308.61 226.711 308.305 226.711C307.924 226.711 307.619 227.088 307.619 227.579C307.619 228.07 307.924 228.447 308.305 228.447C308.419 228.447 308.533 228.41 308.648 228.334C308.571 228.334 308.495 228.372 308.419 228.372Z" fill="#B16430"/>
<path d="M353.562 224.332H314.933C314.933 224.407 314.933 224.445 314.933 224.52V230.749H353.562C354.781 230.749 355.771 229.314 355.771 227.54C355.771 225.766 354.781 224.332 353.562 224.332Z" fill="#935638"/>
<path d="M314.933 229.769V230.75H353.562C354.171 230.75 354.743 230.373 355.162 229.769H314.933Z" fill="#7A4026"/>
<path d="M317.867 227.541C317.867 229.315 316.648 230.787 315.2 230.787C313.715 230.787 312.534 229.353 312.534 227.541C312.534 225.729 313.753 224.294 315.2 224.294C316.686 224.294 317.867 225.767 317.867 227.541Z" fill="#B16430"/>
<path d="M315.2 230.56C313.867 230.56 312.801 229.201 312.801 227.54C312.801 225.879 313.867 224.558 315.2 224.558C316.534 224.558 317.601 225.917 317.601 227.54C317.601 229.201 316.534 230.56 315.2 230.56Z" fill="#F9A56B"/>
<path d="M315.201 224.709C316.344 224.747 317.258 225.955 317.258 227.427C317.258 228.937 316.305 230.145 315.125 230.145C313.944 230.145 313.029 228.937 312.991 227.465V227.502C312.991 229.05 313.982 230.333 315.201 230.333C316.42 230.333 317.41 229.05 317.41 227.502C317.41 225.992 316.42 224.709 315.201 224.709Z" fill="#B16430"/>
<path d="M315.125 229.654C314.248 229.616 313.525 228.71 313.525 227.54C313.525 226.37 314.286 225.426 315.201 225.426C316.115 225.426 316.839 226.332 316.877 227.502V227.464C316.877 226.256 316.115 225.275 315.163 225.275C314.21 225.275 313.448 226.256 313.448 227.464C313.41 228.672 314.172 229.654 315.125 229.654Z" fill="#B16430"/>
<path d="M315.201 225.955C315.848 225.955 316.382 226.672 316.382 227.503C316.382 228.371 315.848 229.05 315.163 229.05C314.515 229.05 313.944 228.371 313.944 227.541V227.578C313.944 228.484 314.515 229.201 315.201 229.201C315.886 229.201 316.458 228.484 316.458 227.578C316.458 226.672 315.886 225.955 315.201 225.955Z" fill="#B16430"/>
<path d="M315.315 228.372C314.972 228.372 314.705 228.032 314.705 227.617C314.705 227.202 314.972 226.862 315.315 226.862C315.543 226.862 315.772 227.051 315.848 227.315C315.734 226.975 315.505 226.711 315.2 226.711C314.819 226.711 314.515 227.088 314.515 227.579C314.515 228.07 314.819 228.447 315.2 228.447C315.315 228.447 315.429 228.41 315.543 228.334C315.467 228.334 315.391 228.372 315.315 228.372Z" fill="#B16430"/>
<path d="M353.562 211.5H314.933C314.933 211.575 314.933 211.613 314.933 211.688V217.917H353.562C354.781 217.917 355.771 216.482 355.771 214.708C355.771 212.934 354.781 211.5 353.562 211.5Z" fill="#935638"/>
<path d="M314.933 216.935V217.917H353.562C354.171 217.917 354.743 217.539 355.162 216.935H314.933Z" fill="#7A4026"/>
<path d="M317.867 214.707C317.867 216.481 316.648 217.953 315.2 217.953C313.715 217.953 312.534 216.519 312.534 214.707C312.534 212.933 313.753 211.461 315.2 211.461C316.686 211.499 317.867 212.933 317.867 214.707Z" fill="#B16430"/>
<path d="M315.2 217.726C313.867 217.726 312.801 216.367 312.801 214.706C312.801 213.045 313.867 211.724 315.2 211.724C316.534 211.724 317.601 213.083 317.601 214.706C317.601 216.367 316.534 217.726 315.2 217.726Z" fill="#F9A56B"/>
<path d="M315.201 211.914C316.344 211.952 317.258 213.16 317.258 214.632C317.258 216.142 316.305 217.35 315.125 217.35C313.944 217.35 313.029 216.142 312.991 214.67V214.707C312.991 216.255 313.982 217.538 315.201 217.538C316.42 217.538 317.41 216.255 317.41 214.707C317.41 213.16 316.42 211.914 315.201 211.914Z" fill="#B16430"/>
<path d="M315.125 216.822C314.248 216.784 313.525 215.878 313.525 214.708C313.525 213.538 314.286 212.594 315.201 212.594C316.115 212.594 316.839 213.538 316.877 214.67V214.633C316.877 213.425 316.115 212.443 315.163 212.443C314.21 212.443 313.448 213.425 313.448 214.633C313.41 215.841 314.172 216.822 315.125 216.822Z" fill="#B16430"/>
<path d="M315.201 213.122C315.848 213.122 316.382 213.839 316.382 214.669C316.382 215.537 315.848 216.217 315.163 216.217C314.515 216.217 313.944 215.537 313.944 214.707V214.745C313.944 215.651 314.515 216.368 315.201 216.368C315.886 216.368 316.458 215.651 316.458 214.745C316.458 213.839 315.886 213.122 315.201 213.122Z" fill="#B16430"/>
<path d="M315.315 215.538C314.972 215.538 314.705 215.198 314.705 214.783C314.705 214.368 314.972 214.028 315.315 214.028C315.543 214.028 315.772 214.217 315.848 214.481C315.734 214.141 315.505 213.877 315.2 213.877C314.819 213.877 314.515 214.254 314.515 214.745C314.515 215.236 314.819 215.613 315.2 215.613C315.315 215.613 315.429 215.576 315.543 215.5C315.467 215.5 315.391 215.538 315.315 215.538Z" fill="#B16430"/>
<path d="M360.457 224.332H321.829C321.829 224.407 321.829 224.445 321.829 224.52V230.749H360.457C361.676 230.749 362.667 229.314 362.667 227.54C362.667 225.766 361.676 224.332 360.457 224.332Z" fill="#935638"/>
<path d="M321.829 229.769V230.75H360.457C361.067 230.75 361.638 230.373 362.057 229.769H321.829Z" fill="#7A4026"/>
<path d="M324.763 227.541C324.763 229.315 323.544 230.787 322.096 230.787C320.61 230.787 319.429 229.353 319.429 227.541C319.429 225.729 320.648 224.294 322.096 224.294C323.582 224.294 324.763 225.767 324.763 227.541Z" fill="#B16430"/>
<path d="M322.096 230.56C320.763 230.56 319.696 229.201 319.696 227.54C319.696 225.879 320.763 224.558 322.096 224.558C323.429 224.558 324.496 225.917 324.496 227.54C324.496 229.201 323.429 230.56 322.096 230.56Z" fill="#F9A56B"/>
<path d="M322.096 224.709C323.239 224.747 324.153 225.955 324.153 227.427C324.153 228.937 323.201 230.145 322.02 230.145C320.839 230.145 319.925 228.937 319.887 227.465V227.502C319.887 229.05 320.877 230.333 322.096 230.333C323.315 230.333 324.306 229.05 324.306 227.502C324.306 225.992 323.315 224.709 322.096 224.709Z" fill="#B16430"/>
<path d="M322.02 229.654C321.144 229.616 320.42 228.71 320.42 227.54C320.42 226.37 321.182 225.426 322.096 225.426C323.011 225.426 323.734 226.332 323.772 227.502V227.464C323.772 226.256 323.011 225.275 322.058 225.275C321.106 225.275 320.344 226.256 320.344 227.464C320.306 228.672 321.068 229.654 322.02 229.654Z" fill="#B16430"/>
<path d="M322.096 225.955C322.744 225.955 323.277 226.672 323.277 227.503C323.277 228.371 322.744 229.05 322.058 229.05C321.411 229.05 320.839 228.371 320.839 227.541V227.578C320.839 228.484 321.411 229.201 322.096 229.201C322.782 229.201 323.353 228.484 323.353 227.578C323.353 226.672 322.782 225.955 322.096 225.955Z" fill="#B16430"/>
<path d="M322.21 228.372C321.867 228.372 321.6 228.032 321.6 227.617C321.6 227.202 321.867 226.862 322.21 226.862C322.439 226.862 322.667 227.051 322.743 227.315C322.629 226.975 322.4 226.711 322.096 226.711C321.715 226.711 321.41 227.088 321.41 227.579C321.41 228.07 321.715 228.447 322.096 228.447C322.21 228.447 322.324 228.41 322.439 228.334C322.362 228.334 322.286 228.372 322.21 228.372Z" fill="#B16430"/>
<path d="M343.086 230.712H304.457C304.457 230.788 304.457 230.826 304.457 230.901V237.129H343.086C344.305 237.129 345.295 235.695 345.295 233.921C345.295 232.147 344.343 230.712 343.086 230.712Z" fill="#935638"/>
<path d="M304.495 236.147V237.129H343.124C343.733 237.129 344.305 236.751 344.724 236.147H304.495Z" fill="#7A4026"/>
<path d="M307.429 233.92C307.429 235.694 306.21 237.166 304.762 237.166C303.276 237.166 302.095 235.732 302.095 233.92C302.095 232.108 303.314 230.674 304.762 230.674C306.248 230.674 307.429 232.146 307.429 233.92Z" fill="#B16430"/>
<path d="M304.763 236.939C303.429 236.939 302.363 235.58 302.363 233.919C302.363 232.258 303.429 230.937 304.763 230.937C306.096 230.937 307.163 232.296 307.163 233.919C307.124 235.58 306.058 236.939 304.763 236.939Z" fill="#F9A56B"/>
<path d="M304.762 231.088C304.724 231.126 304.724 231.088 304.762 231.088C305.905 231.126 306.819 232.334 306.819 233.806C306.819 235.316 305.867 236.524 304.686 236.524C303.505 236.524 302.59 235.316 302.552 233.844V233.882C302.552 235.429 303.543 236.713 304.762 236.713C305.981 236.713 306.971 235.429 306.971 233.882C306.971 232.372 305.981 231.088 304.762 231.088Z" fill="#B16430"/>
<path d="M304.686 236.034C303.81 235.997 303.086 235.091 303.086 233.921C303.086 232.75 303.848 231.807 304.763 231.807C305.677 231.807 306.401 232.75 306.439 233.883V233.845C306.439 232.637 305.677 231.656 304.724 231.656C303.772 231.656 303.01 232.637 303.01 233.845C302.934 235.053 303.734 236.034 304.686 236.034Z" fill="#B16430"/>
<path d="M304.762 232.334C305.409 232.334 305.943 233.052 305.943 233.882C305.943 234.75 305.409 235.43 304.724 235.43C304.076 235.43 303.505 234.75 303.505 233.92V233.958C303.505 234.864 304.076 235.581 304.762 235.581C305.448 235.581 306.019 234.864 306.019 233.958C306.019 233.052 305.448 232.334 304.762 232.334Z" fill="#B16430"/>
<path d="M304.877 234.751C304.534 234.751 304.267 234.411 304.267 233.996C304.267 233.581 304.534 233.241 304.877 233.241C305.105 233.241 305.334 233.43 305.41 233.694C305.296 233.354 305.067 233.09 304.762 233.09C304.381 233.09 304.077 233.467 304.077 233.958C304.077 234.449 304.381 234.826 304.762 234.826C304.877 234.826 304.991 234.789 305.105 234.713C305.029 234.713 304.953 234.751 304.877 234.751Z" fill="#B16430"/>
<path d="M349.981 230.712H311.352C311.352 230.788 311.352 230.826 311.352 230.901V237.129H349.981C351.2 237.129 352.19 235.695 352.19 233.921C352.19 232.147 351.238 230.712 349.981 230.712Z" fill="#935638"/>
<path d="M311.391 236.147V237.129H350.019C350.629 237.129 351.2 236.751 351.619 236.147H311.391Z" fill="#7A4026"/>
<path d="M314.324 233.92C314.324 235.694 313.105 237.166 311.658 237.166C310.172 237.166 308.991 235.732 308.991 233.92C308.991 232.108 310.21 230.674 311.658 230.674C313.143 230.674 314.324 232.146 314.324 233.92Z" fill="#B16430"/>
<path d="M311.658 236.939C310.325 236.939 309.258 235.58 309.258 233.919C309.258 232.258 310.325 230.937 311.658 230.937C312.991 230.937 314.058 232.296 314.058 233.919C314.02 235.58 312.953 236.939 311.658 236.939Z" fill="#F9A56B"/>
<path d="M311.657 231.088C311.619 231.126 311.619 231.088 311.657 231.088C312.8 231.126 313.714 232.334 313.714 233.806C313.714 235.316 312.762 236.524 311.581 236.524C310.4 236.524 309.486 235.316 309.448 233.844V233.882C309.448 235.429 310.438 236.713 311.657 236.713C312.876 236.713 313.867 235.429 313.867 233.882C313.867 232.372 312.876 231.088 311.657 231.088Z" fill="#B16430"/>
<path d="M311.582 236.034C310.706 235.997 309.982 235.091 309.982 233.921C309.982 232.75 310.744 231.807 311.658 231.807C312.572 231.807 313.296 232.75 313.334 233.883V233.845C313.334 232.637 312.572 231.656 311.62 231.656C310.668 231.656 309.906 232.637 309.906 233.845C309.829 235.053 310.629 236.034 311.582 236.034Z" fill="#B16430"/>
<path d="M311.657 232.334C312.305 232.334 312.838 233.052 312.838 233.882C312.838 234.75 312.305 235.43 311.619 235.43C310.972 235.43 310.4 234.75 310.4 233.92V233.958C310.4 234.864 310.972 235.581 311.657 235.581C312.343 235.581 312.914 234.864 312.914 233.958C312.914 233.052 312.343 232.334 311.657 232.334Z" fill="#B16430"/>
<path d="M311.772 234.751C311.429 234.751 311.163 234.411 311.163 233.996C311.163 233.581 311.429 233.241 311.772 233.241C312.001 233.241 312.229 233.43 312.306 233.694C312.191 233.354 311.963 233.09 311.658 233.09C311.277 233.09 310.972 233.467 310.972 233.958C310.972 234.449 311.277 234.826 311.658 234.826C311.772 234.826 311.886 234.789 312.001 234.713C311.925 234.713 311.848 234.751 311.772 234.751Z" fill="#B16430"/>
<path d="M356.876 230.712H318.248C318.248 230.788 318.248 230.826 318.248 230.901V237.129H356.876C358.095 237.129 359.086 235.695 359.086 233.921C359.086 232.147 358.134 230.712 356.876 230.712Z" fill="#935638"/>
<path d="M318.285 236.147V237.129H356.914C357.523 237.129 358.095 236.751 358.514 236.147H318.285Z" fill="#7A4026"/>
<path d="M321.219 233.92C321.219 235.694 320 237.166 318.552 237.166C317.066 237.166 315.885 235.732 315.885 233.92C315.885 232.108 317.105 230.674 318.552 230.674C320.038 230.674 321.219 232.146 321.219 233.92Z" fill="#B16430"/>
<path d="M318.553 236.939C317.219 236.939 316.153 235.58 316.153 233.919C316.153 232.258 317.219 230.937 318.553 230.937C319.886 230.937 320.953 232.296 320.953 233.919C320.915 235.58 319.848 236.939 318.553 236.939Z" fill="#F9A56B"/>
<path d="M318.553 231.088C318.514 231.126 318.514 231.088 318.553 231.088C319.695 231.126 320.61 232.334 320.61 233.806C320.61 235.316 319.657 236.524 318.476 236.524C317.295 236.524 316.381 235.316 316.343 233.844V233.882C316.343 235.429 317.334 236.713 318.553 236.713C319.772 236.713 320.762 235.429 320.762 233.882C320.762 232.372 319.772 231.088 318.553 231.088Z" fill="#B16430"/>
<path d="M318.438 236.034C318.476 236.034 318.476 236.034 318.438 236.034C317.562 235.997 316.838 235.091 316.838 233.921C316.838 232.75 317.6 231.807 318.514 231.807C319.429 231.807 320.153 232.75 320.191 233.883V233.845C320.191 232.637 319.429 231.656 318.476 231.656C317.524 231.656 316.762 232.637 316.762 233.845C316.724 235.053 317.524 236.034 318.438 236.034Z" fill="#B16430"/>
<path d="M318.553 232.334C319.2 232.334 319.734 233.052 319.734 233.882C319.734 234.75 319.2 235.43 318.515 235.43C317.867 235.43 317.296 234.75 317.296 233.92V233.958C317.296 234.864 317.867 235.581 318.553 235.581C319.239 235.581 319.81 234.864 319.81 233.958C319.81 233.052 319.239 232.334 318.553 232.334Z" fill="#B16430"/>
<path d="M318.628 234.751C318.286 234.751 318.019 234.411 318.019 233.996C318.019 233.581 318.286 233.241 318.628 233.241C318.857 233.241 319.086 233.43 319.162 233.694C319.047 233.354 318.819 233.09 318.514 233.09C318.133 233.09 317.828 233.467 317.828 233.958C317.828 234.449 318.133 234.826 318.514 234.826C318.628 234.826 318.743 234.789 318.857 234.713C318.819 234.713 318.743 234.751 318.628 234.751Z" fill="#B16430"/>
<path d="M363.772 230.712H325.143C325.143 230.788 325.143 230.826 325.143 230.901V237.129H363.772C364.991 237.129 365.981 235.695 365.981 233.921C365.981 232.147 365.029 230.712 363.772 230.712Z" fill="#935638"/>
<path d="M325.181 236.147V237.129H363.809C364.419 237.129 364.99 236.751 365.409 236.147H325.181Z" fill="#7A4026"/>
<path d="M328.114 233.92C328.114 235.694 326.895 237.166 325.448 237.166C323.962 237.166 322.781 235.732 322.781 233.92C322.781 232.108 324 230.674 325.448 230.674C326.933 230.674 328.114 232.146 328.114 233.92Z" fill="#B16430"/>
<path d="M325.448 236.939C324.114 236.939 323.048 235.58 323.048 233.919C323.048 232.258 324.114 230.937 325.448 230.937C326.781 230.937 327.848 232.296 327.848 233.919C327.81 235.58 326.743 236.939 325.448 236.939Z" fill="#F9A56B"/>
<path d="M325.448 231.088C325.41 231.126 325.41 231.088 325.448 231.088C326.591 231.126 327.505 232.334 327.505 233.806C327.505 235.316 326.553 236.524 325.372 236.524C324.191 236.524 323.277 235.316 323.239 233.844V233.882C323.239 235.429 324.229 236.713 325.448 236.713C326.667 236.713 327.658 235.429 327.658 233.882C327.658 232.372 326.667 231.088 325.448 231.088Z" fill="#B16430"/>
<path d="M325.334 236.034C325.372 236.034 325.372 236.034 325.334 236.034C324.458 235.997 323.734 235.091 323.734 233.921C323.734 232.75 324.496 231.807 325.41 231.807C326.324 231.807 327.048 232.75 327.086 233.883V233.845C327.086 232.637 326.324 231.656 325.372 231.656C324.42 231.656 323.658 232.637 323.658 233.845C323.619 235.053 324.419 236.034 325.334 236.034Z" fill="#B16430"/>
<path d="M325.448 232.334C326.096 232.334 326.629 233.052 326.629 233.882C326.629 234.75 326.096 235.43 325.41 235.43C324.762 235.43 324.191 234.75 324.191 233.92V233.958C324.191 234.864 324.762 235.581 325.448 235.581C326.134 235.581 326.705 234.864 326.705 233.958C326.705 233.052 326.134 232.334 325.448 232.334Z" fill="#B16430"/>
<path d="M325.524 234.751C325.181 234.751 324.914 234.411 324.914 233.996C324.914 233.581 325.181 233.241 325.524 233.241C325.752 233.241 325.981 233.43 326.057 233.694C325.943 233.354 325.714 233.09 325.41 233.09C325.029 233.09 324.724 233.467 324.724 233.958C324.724 234.449 325.029 234.826 325.41 234.826C325.524 234.826 325.638 234.789 325.752 234.713C325.714 234.713 325.638 234.751 325.524 234.751Z" fill="#B16430"/>
<path d="M299.276 31.6318H259.047C256.8 31.6318 255.009 33.3682 254.781 35.5198H246.438C244.495 35.5198 242.895 37.1052 242.895 39.0303C242.895 39.7853 243.162 40.427 243.581 40.9932H237.981C235.924 40.9932 234.247 42.6541 234.247 44.6924C234.247 45.7116 234.666 46.6176 235.314 47.297C234.057 47.448 233.066 48.4671 233.066 49.7883C233.066 51.185 234.209 52.3174 235.619 52.3174H241.524C242.933 52.3174 244.076 51.185 244.076 49.7883C244.076 49.2598 243.885 48.8069 243.619 48.4294H263.581C265.143 48.4294 266.514 47.448 267.047 46.0891H282.324C285.143 46.0891 287.466 43.8242 287.466 40.9932C287.466 40.7289 287.428 40.4647 287.39 40.2005H299.314C301.714 40.2005 303.657 38.2754 303.657 35.8973C303.657 33.5192 301.676 31.6318 299.276 31.6318Z" fill="#ADC8E3"/>
<path d="M276.42 17.9668H238.172C235.353 17.9668 233.029 20.2316 233.029 23.0627C233.029 24.0818 233.334 24.9878 233.829 25.7805H220.381C218.21 25.7805 216.458 27.5169 216.458 29.7062C216.458 30.4234 216.724 31.0651 217.067 31.669H215.277C212.877 31.669 210.934 33.5942 210.934 35.9723C210.934 37.0292 211.353 37.9729 212 38.6901H207.581C205.067 38.6901 203.048 40.6907 203.048 43.182C203.048 45.2204 204.458 46.8813 206.324 47.4097C205.753 47.976 205.41 48.7686 205.41 49.599C205.41 51.3354 206.82 52.7321 208.572 52.7321H214.896C216.648 52.7321 218.058 51.3354 218.058 49.599C218.058 48.8441 217.753 48.2024 217.296 47.6362H223.772C226.286 47.6362 228.305 45.6356 228.305 43.1443C228.305 42.0119 227.848 40.9927 227.162 40.2H229.105C231.505 40.2 233.448 38.2749 233.448 35.8968C233.448 35.0286 233.105 34.2359 232.648 33.5564H244.077C246.248 33.5564 248 31.8201 248 29.6307C248 29.0645 247.886 28.536 247.658 28.0831H276.381C279.201 28.0831 281.524 25.8183 281.524 22.9872C281.562 20.2316 279.239 17.9668 276.42 17.9668Z" fill="#ADC8E3"/>
<path d="M261.638 0H237.6C234.553 0 232.076 2.18937 231.581 5.09592H210.972C208.153 5.09592 205.829 7.36078 205.829 10.1918C205.829 10.758 205.943 11.2487 206.095 11.7394H201.486C199.086 11.7394 197.143 13.6645 197.143 16.0426C197.143 16.3069 197.257 16.5711 197.295 16.8353H189.067C186.553 16.8353 184.534 18.836 184.534 21.3273C184.534 22.12 184.8 22.8372 185.143 23.4789H184.914C183.391 23.4789 182.172 24.6868 182.172 26.1967C182.172 27.7066 183.391 28.9145 184.914 28.9145H191.619C193.143 28.9145 194.362 27.7066 194.362 26.1967C194.362 26.0457 194.286 25.9325 194.286 25.8192H208.762C211.276 25.8192 213.295 23.8186 213.295 21.3273C213.295 20.9876 213.181 20.6855 213.105 20.3458H216.838C219.238 20.3458 221.181 18.4207 221.181 16.0426C221.181 15.7784 221.067 15.5142 221.029 15.25H244.038C246.172 15.25 248 13.9665 248.762 12.1169H261.562C264.953 12.1169 267.657 9.39909 267.657 6.07733C267.734 2.71781 265.029 0 261.638 0Z" fill="#ADC8E3"/>
</svg>
