<svg width="467" height="433" viewBox="0 0 467 433" fill="none" xmlns="http://www.w3.org/2000/svg">
<path d="M192.898 21.8422H145.029C140.843 21.8422 137.406 25.1457 136.696 29.5359H113.432C113.511 29.0143 113.59 28.4492 113.59 27.8841C113.59 21.5379 108.89 16.3653 103.124 16.3653H86.1408C84.5214 13.7138 81.7962 11.9751 78.676 11.9751H44.749C39.7726 11.9751 35.7834 16.4088 35.7834 21.8422C35.7834 27.3191 39.812 31.7093 44.749 31.7093H58.3751C59.8365 36.1864 63.6675 39.403 68.2096 39.403H76.2668C75.9508 40.6201 75.7138 41.9241 75.7138 43.2281C75.7138 44.5756 75.9508 45.8361 76.2668 47.0532H47.7902C42.8137 47.0532 38.8247 51.4869 38.8247 56.9203C38.8247 62.3972 42.8532 66.7874 47.7902 66.7874H116.632C121.608 66.7874 125.597 62.3537 125.597 56.9203H153.047C159.919 56.9203 165.528 50.7914 165.528 43.1846C165.528 42.2284 165.449 41.3155 165.291 40.4462H192.977C197.677 40.4462 201.469 36.2733 201.469 31.1007C201.39 26.015 197.559 21.8422 192.898 21.8422Z" fill="#ADC8E3"/>
<path d="M457.245 93.3455H430.901C430.506 85.9995 425.016 80.1314 418.223 80.1314H390.299C391.326 78.1754 391.958 75.9586 391.958 73.5244C391.958 66.2219 386.586 60.3103 379.951 60.3103H370.591C370.788 59.5279 370.946 58.7021 370.946 57.8327C370.946 52.834 367.233 48.748 362.691 48.748H341.68C337.137 48.748 333.425 52.834 333.425 57.8327C333.425 58.7021 333.583 59.5279 333.78 60.3103H309.411C302.776 60.3103 297.405 66.2219 297.405 73.5244C297.405 80.8269 302.776 86.7385 309.411 86.7385H341.403C340.179 88.9118 339.428 91.4329 339.428 94.1714C339.428 96.9098 340.179 99.4309 341.403 101.604H332.674C325.644 101.604 319.917 107.907 319.917 115.644C319.917 123.381 325.644 129.684 332.674 129.684H379.201C386.231 129.684 391.958 123.381 391.958 115.644C391.958 112.906 391.207 110.385 389.983 108.211H406.216C407.677 112.08 411.153 114.818 415.221 114.818H457.245C462.616 114.818 467 109.993 467 104.082C467 98.1269 462.616 93.3455 457.245 93.3455Z" fill="#ADC8E3"/>
<path d="M449.344 209.491L263.556 5.02047C257.473 -1.67349 247.599 -1.67349 241.477 5.02047L55.6885 209.491H449.344Z" fill="#3F8A49"/>
<path d="M271.218 208.144L144.041 68.1788C139.855 63.5713 133.101 63.5713 128.954 68.1788L1.7771 208.144H271.218Z" fill="#266B32"/>
<path d="M439.55 220.922L306.843 74.8722C302.499 70.0908 295.429 70.0908 291.084 74.8722L158.378 220.922H439.55Z" fill="#277C33"/>
<path d="M133.062 160.112H127.532V208.23H133.062V160.112Z" fill="#BC7637"/>
<path d="M152.691 162.894C152.691 158.504 150.716 154.635 147.754 152.201C148.978 150.288 149.689 147.941 149.689 145.42C149.689 138.944 144.95 133.684 139.065 133.554C138.828 129.207 135.589 125.773 131.561 125.773C128.48 125.773 125.794 127.816 124.649 130.772C124.609 130.772 124.57 130.772 124.53 130.772C119.791 130.772 115.999 134.988 115.999 140.161C115.999 141.334 116.197 142.421 116.552 143.464C112.563 146.637 109.956 151.766 109.956 157.591C109.956 159.634 110.312 161.59 110.904 163.459C109.404 165.372 108.456 167.893 108.456 170.631C108.456 176.76 112.958 181.715 118.527 181.715C120.541 181.715 122.358 181.063 123.938 179.933C126.071 183.628 129.823 186.106 134.128 186.106C140.21 186.106 145.187 181.15 146.016 174.717C149.926 172.544 152.691 168.11 152.691 162.894Z" fill="#66A646"/>
<path d="M147.754 152.244C148.979 150.331 149.69 147.984 149.69 145.463C149.69 139.725 145.977 134.944 141.04 133.857C138.473 140.812 133.694 146.506 127.73 149.94C128.283 151.939 128.599 154.069 128.599 156.286C128.599 167.501 120.818 176.716 110.865 177.759C112.722 180.193 115.447 181.758 118.527 181.758C120.542 181.758 122.359 181.106 123.938 179.976C126.071 183.67 129.823 186.148 134.128 186.148C140.211 186.148 145.187 181.193 146.017 174.76C149.966 172.586 152.731 168.109 152.731 162.937C152.691 158.503 150.717 154.634 147.754 152.244Z" fill="#277C33"/>
<path d="M47.9481 168.676H43.406V208.231H47.9481V168.676Z" fill="#BC7637"/>
<path d="M64.0622 170.978C64.0622 167.371 62.4429 164.198 59.9942 162.198C60.9816 160.633 61.574 158.721 61.574 156.634C61.574 151.288 57.6638 146.984 52.8453 146.854C52.6479 143.29 49.9621 140.464 46.684 140.464C44.1562 140.464 41.9445 142.16 40.9966 144.55C40.9571 144.55 40.9176 144.55 40.8781 144.55C37.0075 144.55 33.8478 148.028 33.8478 152.287C33.8478 153.244 34.0453 154.157 34.3218 154.982C31.0436 157.59 28.9108 161.807 28.9108 166.588C28.9108 168.283 29.1873 169.892 29.6612 171.413C28.4369 173.021 27.647 175.021 27.647 177.281C27.647 182.323 31.3596 186.366 35.9016 186.366C37.5604 186.366 39.0613 185.844 40.3647 184.931C42.142 187.974 45.1832 190.017 48.7378 190.017C53.7538 190.017 57.8218 185.931 58.5328 180.628C61.8109 178.933 64.0622 175.238 64.0622 170.978Z" fill="#66A646"/>
<path d="M59.9943 162.198C60.9817 160.633 61.5741 158.721 61.5741 156.634C61.5741 151.896 58.4934 147.984 54.4648 147.071C52.332 152.766 48.4219 157.46 43.5244 160.285C43.9984 161.937 44.2354 163.676 44.2354 165.501C44.2354 174.717 37.837 182.28 29.6614 183.149C31.1622 185.149 33.4135 186.409 35.9412 186.409C37.6 186.409 39.1009 185.888 40.4043 184.975C42.1816 188.017 45.2228 190.06 48.7774 190.06C53.7934 190.06 57.8615 185.975 58.5724 180.672C61.8111 178.889 64.1018 175.195 64.1018 170.935C64.0623 167.371 62.443 164.197 59.9943 162.198Z" fill="#277C33"/>
<path d="M81.5197 160.112H75.9902V208.23H81.5197V160.112Z" fill="#BC7637"/>
<path d="M101.149 162.894C101.149 158.504 99.1738 154.635 96.2116 152.201C97.436 150.288 98.1468 147.941 98.1468 145.42C98.1468 138.944 93.4073 133.684 87.5224 133.554C87.2855 129.207 84.0468 125.773 80.0182 125.773C76.9375 125.773 74.2518 127.816 73.1064 130.772C73.0669 130.772 73.0275 130.772 72.988 130.772C68.2484 130.772 64.4568 134.988 64.4568 140.161C64.4568 141.334 64.6543 142.421 65.0098 143.464C61.0207 146.637 58.414 151.766 58.414 157.591C58.414 159.634 58.7694 161.59 59.3619 163.459C57.861 165.372 56.9131 167.893 56.9131 170.631C56.9131 176.76 61.4156 181.715 66.9846 181.715C68.9989 181.715 70.8157 181.063 72.3955 179.933C74.5283 183.628 78.2804 186.106 82.5854 186.106C88.6678 186.106 93.6443 181.15 94.4738 174.717C98.3839 172.544 101.149 168.11 101.149 162.894Z" fill="#66A646"/>
<path d="M96.1726 152.244C97.397 150.331 98.108 147.984 98.108 145.463C98.108 139.725 94.3953 134.944 89.4583 133.857C86.8911 140.812 82.1121 146.506 76.1482 149.94C76.7012 151.939 77.0171 154.069 77.0171 156.286C77.0171 167.501 69.2364 176.716 59.2834 177.759C61.1398 180.193 63.865 181.758 66.9457 181.758C68.96 181.758 70.7768 181.106 72.3566 179.976C74.4894 183.67 78.2415 186.148 82.5465 186.148C88.6289 186.148 93.6054 181.193 94.4348 174.76C98.3844 172.586 101.149 168.109 101.149 162.937C101.149 158.503 99.1743 154.634 96.1726 152.244Z" fill="#277C33"/>
<path d="M337.967 154.201H331.766V208.231H337.967V154.201Z" fill="#BC7637"/>
<path d="M360.045 157.287C360.045 152.375 357.833 148.029 354.476 145.29C355.819 143.117 356.649 140.509 356.649 137.683C356.649 130.381 351.317 124.469 344.721 124.339C344.444 119.471 340.811 115.602 336.308 115.602C332.833 115.602 329.831 117.906 328.527 121.209C328.488 121.209 328.448 121.209 328.369 121.209C323.077 121.209 318.772 125.947 318.772 131.772C318.772 133.076 319.009 134.336 319.404 135.467C314.901 139.031 311.979 144.812 311.979 151.332C311.979 153.636 312.374 155.853 313.045 157.896C311.347 160.069 310.32 162.851 310.32 165.937C310.32 172.805 315.375 178.369 321.616 178.369C323.867 178.369 325.921 177.63 327.698 176.369C330.107 180.542 334.294 183.324 339.112 183.324C345.945 183.324 351.554 177.76 352.462 170.501C356.925 168.154 360.045 163.155 360.045 157.287Z" fill="#66A646"/>
<path d="M354.476 145.333C355.819 143.16 356.648 140.552 356.648 137.727C356.648 131.25 352.462 125.904 346.932 124.687C344.049 132.467 338.717 138.857 331.963 142.725C332.595 144.986 332.951 147.376 332.951 149.854C332.951 162.46 324.222 172.805 313.045 173.978C315.099 176.673 318.179 178.456 321.655 178.456C323.906 178.456 325.96 177.717 327.737 176.456C330.147 180.629 334.333 183.411 339.152 183.411C345.985 183.411 351.593 177.847 352.501 170.588C356.964 168.154 360.045 163.112 360.045 157.287C360.045 152.375 357.833 148.028 354.476 145.333Z" fill="#3F8A49"/>
<path d="M279.868 168.676H275.326V208.231H279.868V168.676Z" fill="#BC7637"/>
<path d="M296.022 170.978C296.022 167.371 294.402 164.198 291.954 162.198C292.941 160.633 293.533 158.721 293.533 156.634C293.533 151.288 289.623 146.984 284.805 146.854C284.607 143.29 281.922 140.464 278.643 140.464C276.116 140.464 273.904 142.16 272.956 144.55C272.917 144.55 272.877 144.55 272.838 144.55C268.967 144.55 265.807 148.028 265.807 152.287C265.807 153.244 266.005 154.157 266.281 154.982C263.003 157.59 260.87 161.807 260.87 166.588C260.87 168.283 261.147 169.892 261.621 171.413C260.396 173.021 259.606 175.021 259.606 177.281C259.606 182.323 263.319 186.366 267.861 186.366C269.52 186.366 271.021 185.844 272.324 184.931C274.101 187.974 277.143 190.017 280.697 190.017C285.713 190.017 289.781 185.931 290.492 180.628C293.731 178.933 296.022 175.238 296.022 170.978Z" fill="#66A646"/>
<path d="M291.954 162.198C292.941 160.633 293.534 158.721 293.534 156.634C293.534 151.896 290.453 147.984 286.424 147.071C284.292 152.766 280.381 157.46 275.484 160.285C275.958 161.937 276.195 163.676 276.195 165.501C276.195 174.717 269.797 182.28 261.621 183.149C263.122 185.149 265.373 186.409 267.94 186.409C269.599 186.409 271.1 185.888 272.403 184.975C274.181 188.017 277.222 190.06 280.776 190.06C285.792 190.06 289.86 185.975 290.571 180.672C293.81 178.889 296.101 175.195 296.101 170.935C296.022 167.371 294.403 164.197 291.954 162.198Z" fill="#3F8A49"/>
<path d="M0 207.403C10.6244 333.893 107.231 432.999 224.969 432.999C342.706 432.999 439.313 333.937 449.938 207.403H0Z" fill="#7F4C2F"/>
<path d="M20.3794 289.731C56.4392 374.362 134.444 432.999 224.968 432.999C315.493 432.999 393.498 374.362 429.557 289.731C429.557 289.731 353.686 332.242 224.968 309.291C95.4612 286.254 20.3794 289.731 20.3794 289.731Z" fill="#935638"/>
<path d="M70.0261 365.191C110.47 407.18 164.935 433 224.969 433C284.963 433 339.467 407.224 379.911 365.191C379.911 365.191 305.461 403.92 222.125 376.405C126.861 344.935 70.0261 365.191 70.0261 365.191Z" fill="#B16430"/>
<path d="M444.369 243.655C446.975 231.875 448.871 219.792 449.938 207.403H0C1.02689 219.792 2.92265 231.875 5.56888 243.655C5.56888 243.655 26.6992 238.743 33.7295 238.743C42.4186 238.743 59.8363 243.655 68.5254 243.655C78.1624 243.655 97.4759 238.743 107.113 238.743C117.856 238.743 139.381 243.655 150.124 243.655C161.183 243.655 183.34 238.743 194.399 238.743C206.09 238.743 229.511 243.655 241.202 243.655C253.208 243.655 277.261 238.743 289.268 238.743C300.643 238.743 323.432 243.655 334.807 243.655C346.34 243.655 369.445 238.743 380.978 238.743C389.193 238.743 405.623 243.655 413.878 243.655C421.461 243.655 444.369 243.655 444.369 243.655Z" fill="#66A646"/>
<path d="M298.51 207.449L301.986 62.6157H306.252L309.727 207.449H298.51Z" fill="#CACCCB"/>
<path d="M284.134 25.4946C268.138 36.0137 259.647 57.2258 264.623 78.0466C267.546 90.3044 274.616 100.171 283.739 106.3C273.865 100.171 266.164 89.8263 263.043 76.7861C257.988 55.574 266.677 33.9708 283.068 23.4082L284.134 25.4946Z" fill="#E5E5E5"/>
<path d="M284.647 101.084C300.722 111.429 321.694 109.343 335.874 94.5203C344.207 85.7834 348.631 74.1776 349.105 62.4414C348.986 74.9165 344.484 87.3482 335.637 96.6502C321.221 111.777 299.814 113.776 283.462 103.127L284.647 101.084Z" fill="#E5E5E5"/>
<path d="M343.812 62.7894C343.496 42.2728 331.015 23.6253 312.136 18.018C300.998 14.7145 289.742 16.5401 280.342 22.1909C290.098 15.8012 302.065 13.5844 313.874 17.1052C333.109 22.8429 345.787 41.8816 345.984 62.7894H343.812Z" fill="#E5E5E5"/>
<path d="M321.853 58.269L344.01 61.0944C346.775 61.3117 346.893 63.9632 344.01 64.1371L315.454 67.3102C314.664 67.3971 304.711 64.0936 304.711 64.0936C304.277 63.7024 304.159 63.0939 304.356 62.5723C306.528 62.1811 314.546 60.5728 316.442 59.573C317.903 58.8775 320.273 58.1386 321.853 58.269Z" fill="#CACCCB"/>
<path d="M304.711 64.0935C304.395 63.8327 304.277 63.4415 304.277 63.0938H346.024C345.787 63.6154 345.115 64.05 344.01 64.137L315.454 67.3101C314.664 67.397 304.711 64.0935 304.711 64.0935Z" fill="#E5E5E5"/>
<path d="M299.301 82.2636L285.99 101.954C284.45 104.519 282.317 103.258 283.581 100.433L295.351 71.6576C295.667 70.8751 303.25 63.0075 303.25 63.0075C303.803 62.7902 304.316 62.9641 304.632 63.4422C303.843 65.7025 301.117 74.1352 300.92 76.4824C300.762 78.2211 300.169 80.8291 299.301 82.2636Z" fill="#CACCCB"/>
<path d="M303.25 63.0084C303.605 62.878 304 62.878 304.277 63.0954L283.383 102.911C283.107 102.433 283.067 101.564 283.581 100.477L295.351 71.7019C295.667 70.876 303.25 63.0084 303.25 63.0084Z" fill="#E5E5E5"/>
<path d="M291.638 48.7496L282.791 26.2335C281.567 23.4951 283.581 22.0607 285.2 24.7122L301.986 50.3579C302.46 51.0533 304.83 62.181 304.83 62.181C304.751 62.833 304.316 63.2242 303.803 63.2677C302.421 61.3986 297.128 54.5742 295.39 53.2267C294.126 52.1835 292.349 50.3144 291.638 48.7496Z" fill="#CACCCB"/>
<path d="M304.83 62.1816C304.751 62.6163 304.553 62.9205 304.277 63.1379L283.383 23.3218C283.936 23.2783 284.608 23.713 285.2 24.7128L301.986 50.3585C302.46 51.0105 304.83 62.1816 304.83 62.1816Z" fill="#E5E5E5"/>
<path d="M308.108 62.7886C308.108 60.4414 306.41 58.5723 304.277 58.5723C302.144 58.5723 300.446 60.4848 300.446 62.7886C300.446 65.1358 302.184 67.0049 304.277 67.0049C306.37 67.0049 308.108 65.0924 308.108 62.7886Z" fill="#CACCCB"/>
<path d="M308.108 62.9194C308.029 65.1797 306.37 67.0054 304.277 67.0054C302.184 67.0054 300.485 65.1797 300.446 62.9194H308.108Z" fill="#B5B5B5"/>
<path d="M303.802 62.9193C303.802 62.9193 303.052 60.1374 302.736 59.7896C303.131 59.6158 303.566 59.4854 304.039 59.4854C305.817 59.4854 307.278 61.0067 307.397 62.9193H303.802Z" fill="#E5E5E5"/>
<path d="M214.424 207.448L217.346 86.1304H220.901L223.784 207.448H214.424Z" fill="#CACCCB"/>
<path d="M202.377 55.0522C188.988 63.876 181.879 81.6107 186.026 99.0411C188.475 109.343 194.399 117.558 202.061 122.731C193.807 117.602 187.329 108.952 184.723 98.0413C180.497 80.2632 187.764 62.1808 201.508 53.3135L202.377 55.0522Z" fill="#E5E5E5"/>
<path d="M202.812 118.384C216.28 127.034 233.856 125.339 245.704 112.864C252.695 105.518 256.408 95.8246 256.803 86.001C256.724 96.4766 252.932 106.865 245.507 114.646C233.421 127.295 215.49 128.99 201.824 120.079L202.812 118.384Z" fill="#E5E5E5"/>
<path d="M252.379 86.2608C252.102 69.0913 241.675 53.4865 225.838 48.7486C216.516 45.9666 207.077 47.5315 199.217 52.2694C207.393 46.9229 217.425 45.0973 227.338 48.0096C243.453 52.791 254.077 68.787 254.235 86.3043L252.379 86.2608Z" fill="#E5E5E5"/>
<path d="M233.975 82.4795L252.538 84.8702C254.868 85.0441 254.947 87.2609 252.538 87.4348L228.643 90.0863C227.972 90.1732 219.638 87.3913 219.638 87.3913C219.243 87.0436 219.164 86.5654 219.322 86.1308C221.139 85.8265 227.853 84.4355 229.472 83.6531C230.657 83.0011 232.632 82.3926 233.975 82.4795Z" fill="#CACCCB"/>
<path d="M219.598 87.3908C219.361 87.1735 219.203 86.8692 219.203 86.5649H254.197C253.999 86.9996 253.446 87.3908 252.498 87.4343L228.603 90.0858C227.932 90.1727 219.598 87.3908 219.598 87.3908Z" fill="#E5E5E5"/>
<path d="M215.056 102.605L203.919 119.123C202.615 121.253 200.838 120.209 201.904 117.862L211.778 93.7379C212.055 93.0859 218.374 86.5223 218.374 86.5223C218.848 86.3485 219.283 86.4789 219.52 86.8701C218.848 88.7826 216.557 95.8243 216.399 97.7804C216.32 99.2148 215.807 101.388 215.056 102.605Z" fill="#CACCCB"/>
<path d="M218.374 86.4786C218.69 86.3482 219.006 86.3917 219.243 86.5221L201.746 119.862C201.509 119.427 201.469 118.731 201.904 117.819L211.778 93.6942C212.054 93.0422 218.374 86.4786 218.374 86.4786Z" fill="#E5E5E5"/>
<path d="M208.658 74.5259L201.232 55.6611C200.205 53.3574 201.904 52.1837 203.247 54.4006L217.307 75.8734C217.702 76.482 219.677 85.784 219.677 85.784C219.598 86.3056 219.242 86.6533 218.808 86.6968C217.663 85.132 213.239 79.3943 211.778 78.2641C210.751 77.4383 209.289 75.83 208.658 74.5259Z" fill="#CACCCB"/>
<path d="M219.716 85.7403C219.677 86.088 219.479 86.3488 219.242 86.5227L201.746 53.1833C202.18 53.1398 202.772 53.4876 203.286 54.3569L217.346 75.8297C217.702 76.4383 219.716 85.7403 219.716 85.7403Z" fill="#E5E5E5"/>
<path d="M222.442 86.2616C222.442 84.3056 221.02 82.7407 219.243 82.7407C217.465 82.7407 216.043 84.3056 216.043 86.2616C216.043 88.2176 217.465 89.7824 219.243 89.7824C221.02 89.8259 222.442 88.2176 222.442 86.2616Z" fill="#CACCCB"/>
<path d="M222.442 86.3916C222.402 88.3042 220.98 89.8255 219.243 89.8255C217.505 89.8255 216.083 88.3042 216.043 86.3916H222.442Z" fill="#B5B5B5"/>
<path d="M218.848 86.3923C218.848 86.3923 218.216 84.0451 217.939 83.7842C218.295 83.6104 218.65 83.5234 219.045 83.5234C220.546 83.5234 221.731 84.784 221.849 86.3923H218.848Z" fill="#E5E5E5"/>
<path d="M139.499 207.448L142.066 100.692H145.186L147.753 207.448H139.499Z" fill="#CACCCB"/>
<path d="M128.875 73.307C117.066 81.0442 110.825 96.6924 114.498 112.036C116.671 121.078 121.884 128.337 128.598 132.857C121.331 128.337 115.644 120.73 113.353 111.124C109.601 95.4753 116.039 79.5663 128.125 71.7422L128.875 73.307Z" fill="#E5E5E5"/>
<path d="M129.27 129.034C141.119 136.64 156.601 135.119 167.028 124.209C173.19 117.776 176.428 109.212 176.784 100.562C176.705 109.778 173.387 118.906 166.831 125.774C156.206 136.901 140.408 138.423 128.401 130.555L129.27 129.034Z" fill="#E5E5E5"/>
<path d="M172.874 100.823C172.637 85.6959 163.434 71.9603 149.531 67.8309C141.316 65.3967 133.022 66.7442 126.11 70.917C133.299 66.2226 142.146 64.5708 150.835 67.1788C165.014 71.3952 174.374 85.4786 174.493 100.866L172.874 100.823Z" fill="#E5E5E5"/>
<path d="M156.68 97.4758L173.032 99.5623C175.085 99.7361 175.164 101.649 173.032 101.823L151.98 104.17C151.388 104.257 144.081 101.823 144.081 101.823C143.765 101.518 143.647 101.084 143.805 100.692C145.424 100.388 151.309 99.2145 152.731 98.4756C153.797 97.9105 155.535 97.3889 156.68 97.4758Z" fill="#CACCCB"/>
<path d="M144.041 101.779C143.804 101.562 143.725 101.301 143.725 101.041H174.492C174.295 101.432 173.821 101.736 172.992 101.823L151.94 104.17C151.387 104.214 144.041 101.779 144.041 101.779Z" fill="#E5E5E5"/>
<path d="M140.053 115.166L130.258 129.685C129.112 131.554 127.532 130.641 128.48 128.554L137.169 107.342C137.406 106.734 142.975 100.996 142.975 100.996C143.37 100.822 143.765 100.953 144.002 101.3C143.41 102.952 141.395 109.211 141.277 110.907C141.158 112.167 140.684 114.123 140.053 115.166Z" fill="#CACCCB"/>
<path d="M142.975 100.996C143.252 100.865 143.528 100.909 143.725 101.039L128.322 130.38C128.125 130.032 128.085 129.38 128.441 128.554L137.13 107.342C137.406 106.777 142.975 100.996 142.975 100.996Z" fill="#E5E5E5"/>
<path d="M134.444 90.477L127.927 73.8725C127.019 71.8296 128.52 70.7864 129.704 72.7424L142.067 91.6507C142.422 92.1723 144.16 100.388 144.16 100.388C144.081 100.866 143.765 101.17 143.409 101.213C142.383 99.8225 138.512 94.7803 137.209 93.824C136.261 92.9981 134.957 91.6507 134.444 90.477Z" fill="#CACCCB"/>
<path d="M144.16 100.345C144.121 100.649 143.963 100.91 143.726 101.04L128.322 71.6998C128.717 71.6564 129.231 71.9607 129.665 72.7431L142.027 91.6513C142.383 92.1295 144.16 100.345 144.16 100.345Z" fill="#E5E5E5"/>
<path d="M146.569 100.823C146.569 99.0843 145.305 97.6934 143.725 97.6934C142.145 97.6934 140.882 99.0843 140.882 100.823C140.882 102.562 142.145 103.953 143.725 103.953C145.305 103.909 146.569 102.518 146.569 100.823Z" fill="#CACCCB"/>
<path d="M146.569 100.909C146.53 102.604 145.266 103.951 143.725 103.951C142.185 103.951 140.961 102.604 140.882 100.909H146.569Z" fill="#B5B5B5"/>
<path d="M143.409 100.91C143.409 100.91 142.856 98.8673 142.619 98.6065C142.896 98.4761 143.251 98.3892 143.567 98.3892C144.871 98.3892 145.937 99.5193 146.056 100.91H143.409Z" fill="#E5E5E5"/>
</svg>
