<svg width="409" height="433" viewBox="0 0 409 433" fill="none" xmlns="http://www.w3.org/2000/svg">
<path d="M344.713 138.12H64.4307V249.068H344.713V138.12Z" fill="#A0A0A0"/>
<path d="M140.982 159.36H124.428V142.34H140.982V159.36ZM164.259 142.34H147.704V159.36H164.259V142.34ZM187.535 142.34H170.981V159.36H187.535V142.34ZM210.776 142.34H194.221V159.36H210.776V142.34ZM234.052 142.34H217.498V159.36H234.052V142.34ZM257.329 142.34H240.774V159.36H257.329V142.34ZM280.605 142.34H264.051V159.36H280.605V142.34Z" fill="#207491"/>
<path d="M123.569 138.478H118.17V244.742H123.569V138.478Z" fill="#7C7C7C"/>
<path d="M146.953 138.478H141.554V244.742H146.953V138.478Z" fill="#7C7C7C"/>
<path d="M170.336 138.478H164.938V244.742H170.336V138.478Z" fill="#7C7C7C"/>
<path d="M193.542 138.478H188.143V244.742H193.542V138.478Z" fill="#7C7C7C"/>
<path d="M216.925 138.478H211.526V244.742H216.925V138.478Z" fill="#7C7C7C"/>
<path d="M240.13 138.478H234.731V244.742H240.13V138.478Z" fill="#7C7C7C"/>
<path d="M263.335 138.478H257.936V244.742H263.335V138.478Z" fill="#7C7C7C"/>
<path d="M286.54 138.478H281.141V244.742H286.54V138.478Z" fill="#7C7C7C"/>
<path d="M257.328 142.34H240.773V147.918H257.328V142.34Z" fill="#145D70"/>
<path d="M234.052 142.34H217.497V147.918H234.052V142.34Z" fill="#145D70"/>
<path d="M280.569 142.34H264.015V147.918H280.569V142.34Z" fill="#145D70"/>
<path d="M210.775 142.34H194.221V147.918H210.775V142.34Z" fill="#145D70"/>
<path d="M187.499 142.34H170.944V147.918H187.499V142.34Z" fill="#145D70"/>
<path d="M140.982 142.34H124.428V147.918H140.982V142.34Z" fill="#145D70"/>
<path d="M164.259 142.34H147.704V147.918H164.259V142.34Z" fill="#145D70"/>
<path d="M142.519 248.926H122.711L126.179 159.181H139.051L142.519 248.926Z" fill="#5FCEEC"/>
<path d="M134.438 248.926H143.592C143.592 248.926 141.589 240.881 141.589 224.398C141.589 212.527 140.159 208.058 140.159 187.642C140.159 176.808 136.798 159.181 136.798 159.181H134.438C134.438 159.181 134.331 174.019 134.331 184.817C134.331 206.449 134.975 216.174 134.76 228.152C134.474 244.492 134.438 248.926 134.438 248.926Z" fill="#AEF0FF"/>
<path d="M131.006 159.181H128.396C128.396 159.181 127.145 176.629 126.537 187.427C125.786 200.513 124.356 205.126 123.927 216.961C123.319 233.408 121.603 248.925 121.603 248.925H132.722C132.722 248.925 129.933 237.698 130.219 221.287C130.434 209.524 130.219 201.693 130.219 187.892C130.219 177.022 131.006 159.181 131.006 159.181Z" fill="#AEF0FF"/>
<path d="M165.367 248.926H145.559L149.027 159.181H161.899L165.367 248.926Z" fill="#5FCEEC"/>
<path d="M157.286 248.926H166.439C166.439 248.926 164.437 240.881 164.437 224.398C164.437 212.527 163.007 208.058 163.007 187.642C163.007 176.808 159.646 159.181 159.646 159.181H157.286C157.286 159.181 157.179 174.019 157.179 184.817C157.179 206.449 157.822 216.174 157.608 228.152C157.322 244.492 157.286 248.926 157.286 248.926Z" fill="#AEF0FF"/>
<path d="M153.854 159.181H151.244C151.244 159.181 149.992 176.629 149.384 187.427C148.634 200.513 147.203 205.126 146.774 216.961C146.166 233.408 144.45 248.925 144.45 248.925H155.57C155.57 248.925 152.781 237.698 153.067 221.287C153.282 209.524 153.067 201.693 153.067 187.892C153.067 177.022 153.854 159.181 153.854 159.181Z" fill="#AEF0FF"/>
<path d="M189.252 248.926H169.443L172.912 159.181H185.783L189.252 248.926Z" fill="#5FCEEC"/>
<path d="M181.171 248.926H190.324C190.324 248.926 188.322 240.881 188.322 224.398C188.322 212.527 186.892 208.058 186.892 187.642C186.892 176.808 183.531 159.181 183.531 159.181H181.171C181.171 159.181 181.063 174.019 181.063 184.817C181.063 206.449 181.707 216.174 181.493 228.152C181.207 244.492 181.171 248.926 181.171 248.926Z" fill="#AEF0FF"/>
<path d="M177.738 159.181H175.128C175.128 159.181 173.877 176.629 173.269 187.427C172.518 200.513 171.088 205.126 170.659 216.961C170.051 233.408 168.335 248.925 168.335 248.925H179.455C179.455 248.925 176.666 237.698 176.952 221.287C177.166 209.524 176.952 201.693 176.952 187.892C176.952 177.022 177.738 159.181 177.738 159.181Z" fill="#AEF0FF"/>
<path d="M212.456 248.926H192.612L196.081 159.181H208.988L212.456 248.926Z" fill="#5FCEEC"/>
<path d="M204.375 248.926H213.528C213.528 248.926 211.526 240.881 211.526 224.398C211.526 212.527 210.096 208.058 210.096 187.642C210.096 176.808 206.735 159.181 206.735 159.181H204.375C204.375 159.181 204.268 174.019 204.268 184.817C204.268 206.449 204.911 216.174 204.697 228.152C204.375 244.492 204.375 248.926 204.375 248.926Z" fill="#AEF0FF"/>
<path d="M200.943 159.181H198.332C198.332 159.181 197.081 176.629 196.473 187.427C195.722 200.513 194.292 205.126 193.863 216.961C193.255 233.408 191.539 248.925 191.539 248.925H202.659C202.659 248.925 199.87 237.698 200.156 221.287C200.371 209.524 200.156 201.693 200.156 187.892C200.156 177.022 200.943 159.181 200.943 159.181Z" fill="#AEF0FF"/>
<path d="M235.626 248.926H215.817L219.286 159.181H232.157L235.626 248.926Z" fill="#5FCEEC"/>
<path d="M227.581 248.926H236.734C236.734 248.926 234.732 240.881 234.732 224.398C234.732 212.527 233.302 208.058 233.302 187.642C233.302 176.808 229.941 159.181 229.941 159.181H227.581C227.581 159.181 227.474 174.019 227.474 184.817C227.474 206.449 228.117 216.174 227.903 228.152C227.581 244.492 227.581 248.926 227.581 248.926Z" fill="#AEF0FF"/>
<path d="M224.148 159.181H221.538C221.538 159.181 220.286 176.629 219.678 187.427C218.927 200.513 217.497 205.126 217.068 216.961C216.46 233.408 214.744 248.925 214.744 248.925H225.864C225.864 248.925 223.075 237.698 223.361 221.287C223.576 209.524 223.361 201.693 223.361 187.892C223.361 177.022 224.148 159.181 224.148 159.181Z" fill="#AEF0FF"/>
<path d="M258.83 248.926H239.021L242.49 159.181H255.361L258.83 248.926Z" fill="#5FCEEC"/>
<path d="M250.749 248.926H259.902C259.902 248.926 257.9 240.881 257.9 224.398C257.9 212.527 256.47 208.058 256.47 187.642C256.47 176.808 253.109 159.181 253.109 159.181H250.749C250.749 159.181 250.642 174.019 250.642 184.817C250.642 206.449 251.285 216.174 251.071 228.152C250.785 244.492 250.749 248.926 250.749 248.926Z" fill="#AEF0FF"/>
<path d="M247.317 159.181H244.707C244.707 159.181 243.455 176.629 242.847 187.427C242.096 200.513 240.666 205.126 240.237 216.961C239.629 233.408 237.913 248.925 237.913 248.925H249.033C249.033 248.925 246.244 237.698 246.53 221.287C246.745 209.524 246.53 201.693 246.53 187.892C246.53 177.022 247.317 159.181 247.317 159.181Z" fill="#AEF0FF"/>
<path d="M282.035 248.926H262.191L265.66 159.181H278.567L282.035 248.926Z" fill="#5FCEEC"/>
<path d="M273.954 248.926H283.107C283.107 248.926 281.105 240.881 281.105 224.398C281.105 212.527 279.675 208.058 279.675 187.642C279.675 176.808 276.314 159.181 276.314 159.181H273.954C273.954 159.181 273.847 174.019 273.847 184.817C273.847 206.449 274.49 216.174 274.276 228.152C273.954 244.492 273.954 248.926 273.954 248.926Z" fill="#AEF0FF"/>
<path d="M270.522 159.181H267.912C267.912 159.181 266.66 176.629 266.052 187.427C265.302 200.513 263.871 205.126 263.442 216.961C262.834 233.408 261.118 248.925 261.118 248.925H272.238C272.238 248.925 269.449 237.698 269.735 221.287C269.95 209.524 269.735 201.693 269.735 187.892C269.735 177.022 270.522 159.181 270.522 159.181Z" fill="#AEF0FF"/>
<path d="M344.713 135.261H64.4307V139.873H344.713V135.261Z" fill="#7C7C7C"/>
<path d="M292.94 28.2461H281.82C281.963 27.4595 282.071 26.6729 282.071 25.8148C282.071 18.6996 276.278 12.9073 269.163 12.9073H247.317C246.924 8.83127 243.527 5.64909 239.343 5.64909H228.581C226.937 2.32388 223.54 -0.000244141 219.571 -0.000244141H177.666C172.089 -0.000244141 167.583 4.5049 167.583 10.0827C167.583 12.0134 168.156 13.8012 169.085 15.3386H136.548C130.541 15.3386 125.679 20.2013 125.679 26.2081C125.679 32.215 130.541 37.0775 136.548 37.0775H136.941C136.441 38.329 136.119 39.6877 136.119 41.1179C136.119 46.9102 140.803 51.5941 146.595 51.5941H175.628C179.99 51.5941 183.709 48.9482 185.318 45.1582H201.157C202.73 50.7359 207.843 54.8477 213.957 54.8477H292.976C300.306 54.8477 306.277 48.8767 306.277 41.5469C306.241 34.1814 300.306 28.2461 292.94 28.2461Z" fill="#ADC8E3"/>
<path d="M131.828 239.127L61.9273 123.997C59.639 120.207 56.3496 120.207 54.5618 123.997L0.357422 239.127H131.828Z" fill="#266B32"/>
<path d="M275.742 239.127L345.643 123.997C347.931 120.207 351.221 120.207 353.008 123.997L407.213 239.127H275.742Z" fill="#266B32"/>
<path d="M408.821 239.128L402.743 233.05C395.628 225.935 384.687 225.363 378.287 231.763C371.886 238.163 361.518 238.163 355.117 231.763C348.717 225.363 338.348 225.363 331.948 231.763C325.548 238.163 315.179 238.163 308.779 231.763C302.379 225.363 292.01 225.363 285.61 231.763C279.21 238.163 268.841 238.163 262.441 231.763C256.041 225.363 245.672 225.363 239.272 231.763C232.871 238.163 222.503 238.163 216.102 231.763C209.702 225.363 199.333 225.363 192.933 231.763C186.533 238.163 176.164 238.163 169.764 231.763C163.364 225.363 152.995 225.363 146.595 231.763C140.195 238.163 129.826 238.163 123.426 231.763C117.026 225.363 106.657 225.363 100.257 231.763C93.8565 238.163 83.4876 238.163 77.0875 231.763C70.6873 225.363 60.3184 225.363 53.9183 231.763C47.5182 238.163 37.1493 238.163 30.7491 231.763C24.349 225.363 13.408 225.935 6.2928 233.05L0.178711 239.128C6.43581 346.5 95.4655 431.668 204.411 431.668C313.534 431.668 402.564 346.5 408.821 239.128Z" fill="#5FCEEC"/>
<path d="M230.404 429.987C322.723 418.367 395.842 345.213 407.498 252.894C348.467 311.925 289.436 370.956 230.404 429.987Z" fill="#3EC0DD"/>
<path d="M357.62 233.799C356.727 233.192 355.868 232.512 355.118 231.726C348.717 225.325 338.349 225.325 331.948 231.726C325.548 238.126 315.179 238.126 308.779 231.726C302.379 225.325 292.01 225.325 285.61 231.726C279.21 238.126 268.841 238.126 262.441 231.726C256.041 225.325 245.672 225.325 239.272 231.726C235.696 235.301 230.905 236.803 226.221 236.374C176.236 286.359 126.215 336.38 76.2295 386.365C101.258 406.531 131.113 420.94 163.829 427.555C228.474 362.982 293.047 298.408 357.62 233.799Z" fill="#3EC0DD"/>
<path d="M143.413 234.23C137.12 237.948 128.932 237.162 123.533 231.763C117.133 225.363 106.764 225.363 100.364 231.763C93.9639 238.163 83.595 238.163 77.1949 231.763C70.7948 225.363 60.4258 225.363 54.0257 231.763C47.6256 238.163 37.2567 238.163 30.8566 231.763C24.4564 225.363 13.5154 225.935 6.40022 233.05L0.286133 239.128C2.50294 277.207 15.1959 312.462 35.4332 342.138L143.413 234.23Z" fill="#3EC0DD"/>
<path d="M110.054 409.428C138.407 423.944 170.515 432.168 204.59 432.168C238.664 432.168 270.772 423.944 299.126 409.428H110.054Z" fill="#D68E58"/>
<path d="M370.098 76.838H326.763C322.973 76.838 319.863 79.5553 319.219 83.1666H298.159C298.231 82.7375 298.302 82.2727 298.302 81.8079C298.302 76.5876 294.047 72.3328 288.827 72.3328H273.453C271.987 70.1518 269.52 68.7216 266.695 68.7216H235.982C231.476 68.7216 227.865 72.3686 227.865 76.838C227.865 81.3431 231.512 84.9543 235.982 84.9543H248.317C249.64 88.6371 253.108 91.2829 257.22 91.2829H264.514C264.228 92.284 264.013 93.3567 264.013 94.4293C264.013 95.5377 264.228 96.5746 264.514 97.5758H238.735C234.23 97.5758 230.618 101.223 230.618 105.692C230.618 110.197 234.265 113.809 238.735 113.809H301.055C305.561 113.809 309.172 110.161 309.172 105.692H334.021C340.243 105.692 345.32 100.651 345.32 94.3935C345.32 93.6069 345.248 92.8562 345.105 92.1411H370.17C374.424 92.1411 377.857 88.7085 377.857 84.4537C377.785 80.2704 374.353 76.838 370.098 76.838Z" fill="#ADC8E3"/>
<path d="M160.324 73.619H148.776C148.776 73.4403 148.847 73.2258 148.847 73.0471C148.847 69.5431 146.023 66.7184 142.519 66.7184H119.528C116.024 66.7184 113.2 69.5431 113.2 73.0471C113.2 73.2258 113.235 73.4403 113.271 73.619H93.6774C91.3175 73.619 89.3153 75.0493 88.4214 77.0516H87.3487C82.7721 77.0516 79.0894 80.6271 78.7676 85.0964H64.3584C58.3158 85.0964 53.4531 89.9948 53.4531 96.0016C53.4531 102.008 58.3515 106.907 64.3584 106.907H66.1461C66.1461 107.086 66.0746 107.3 66.0746 107.479C66.0746 111.591 69.4356 114.952 73.5474 114.952H90.7812C94.893 114.952 98.254 111.591 98.254 107.479C98.254 107.3 98.2182 107.086 98.1825 106.907H98.8261C104.261 106.907 108.73 102.902 109.588 97.7179H133.902C138.335 97.7179 141.946 94.1067 141.946 89.6731C141.946 87.9568 141.41 86.3836 140.48 85.0607H160.324C163.507 85.0607 166.081 82.4864 166.081 79.3042C166.081 76.1935 163.507 73.619 160.324 73.619Z" fill="#ADC8E3"/>
<path d="M6.4715 239.951C13.5867 232.836 24.5277 232.264 30.9278 238.664C37.328 245.064 47.6969 245.064 54.097 238.664C60.4971 232.264 70.866 232.264 77.2662 238.664C83.6663 245.064 94.0352 245.064 100.435 238.664C106.835 232.264 117.204 232.264 123.604 238.664C130.005 245.064 140.374 245.064 146.774 238.664C153.174 232.264 163.543 232.264 169.943 238.664C176.343 245.064 186.712 245.064 193.112 238.664C199.512 232.264 209.881 232.264 216.281 238.664C222.681 245.064 233.05 245.064 239.45 238.664C245.85 232.264 256.219 232.264 262.619 238.664C269.02 245.064 279.388 245.064 285.789 238.664C292.189 232.264 302.558 232.264 308.958 238.664C315.358 245.064 325.727 245.064 332.127 238.664C338.527 232.264 348.896 232.264 355.296 238.664C361.696 245.064 372.065 245.064 378.465 238.664C384.865 232.264 395.806 232.836 402.922 239.951L408.464 245.493C408.642 243.383 408.857 241.274 409 239.129L402.922 233.05C395.806 225.935 384.865 225.363 378.465 231.763C372.065 238.163 361.696 238.163 355.296 231.763C348.896 225.363 338.527 225.363 332.127 231.763C325.727 238.163 315.358 238.163 308.958 231.763C302.558 225.363 292.189 225.363 285.789 231.763C279.388 238.163 269.02 238.163 262.619 231.763C256.219 225.363 245.85 225.363 239.45 231.763C233.05 238.163 222.681 238.163 216.281 231.763C209.881 225.363 199.512 225.363 193.112 231.763C186.712 238.163 176.343 238.163 169.943 231.763C163.543 225.363 153.174 225.363 146.774 231.763C140.374 238.163 130.005 238.163 123.604 231.763C117.204 225.363 106.835 225.363 100.435 231.763C94.0352 238.163 83.6663 238.163 77.2662 231.763C70.866 225.363 60.4971 225.363 54.097 231.763C47.6969 238.163 37.328 238.163 30.9278 231.763C24.5277 225.363 13.5867 225.935 6.4715 233.05L0.357422 239.129C0.464687 241.274 0.679214 243.383 0.893744 245.493L6.4715 239.951Z" fill="#AEF0FF"/>
<path opacity="0.2" d="M408.643 239.056L402.564 232.978C395.449 225.863 384.508 225.291 378.108 231.691C371.708 238.091 361.339 238.091 354.939 231.691C348.539 225.291 338.17 225.291 331.77 231.691C325.369 238.091 315 238.091 308.6 231.691C302.2 225.291 291.831 225.291 285.431 231.691C279.031 238.091 268.662 238.091 262.262 231.691C255.862 225.291 245.493 225.291 239.093 231.691C232.693 238.091 222.324 238.091 215.924 231.691C209.524 225.291 199.155 225.291 192.755 231.691C186.354 238.091 175.986 238.091 169.585 231.691C163.185 225.291 152.816 225.291 146.416 231.691C140.016 238.091 129.647 238.091 123.247 231.691C116.847 225.291 106.478 225.291 100.078 231.691C93.6778 238.091 83.3089 238.091 76.9087 231.691C70.5086 225.291 60.1397 225.291 53.7396 231.691C47.3395 238.091 36.9705 238.091 30.5704 231.691C24.1703 225.291 13.2293 225.863 6.11408 232.978L0 239.056C6.2571 346.428 95.2868 431.596 204.232 431.596C313.356 431.596 402.385 346.428 408.643 239.056Z" fill="#5FCEEC"/>
</svg>
