<svg width="434" height="433" viewBox="0 0 434 433" fill="none" xmlns="http://www.w3.org/2000/svg">
<path d="M393.161 65.7785H377.579C377.351 61.9048 374.113 58.8505 370.074 58.8505H353.54C354.15 57.8076 354.531 56.6529 354.531 55.3865C354.531 51.5501 351.369 48.4585 347.445 48.4585H341.921C342.035 48.0488 342.111 47.6018 342.111 47.1549C342.111 44.5103 339.94 42.3872 337.235 42.3872H324.815C322.11 42.3872 319.939 44.5103 319.939 47.1549C319.939 47.6018 320.015 48.0488 320.129 48.4585H305.729C301.805 48.4585 298.643 51.5501 298.643 55.3865C298.643 59.223 301.805 62.3145 305.729 62.3145H324.663C323.939 63.4319 323.482 64.7728 323.482 66.2255C323.482 67.6781 323.939 68.9818 324.663 70.1365H319.52C315.367 70.1365 311.976 73.4515 311.976 77.5114C311.976 81.5714 315.367 84.8864 319.52 84.8864H347.026C351.178 84.8864 354.569 81.5714 354.569 77.5114C354.569 76.0588 354.112 74.7551 353.388 73.6005H362.988C363.865 75.6491 365.922 77.0645 368.322 77.0645H393.161C396.361 77.0645 398.914 74.5316 398.914 71.4401C398.914 68.3113 396.323 65.7785 393.161 65.7785Z" fill="#ADC8E3"/>
<path d="M324.281 247.657L188.503 201.731C184.046 200.241 176.846 200.241 172.388 201.731L36.6108 247.657H324.281Z" fill="#3F8A49"/>
<path d="M192.58 240.693L102.481 220.02C99.5091 219.35 94.747 219.35 91.7755 220.02L1.67627 240.693H192.58Z" fill="#266B32"/>
<path d="M433.657 241.81L328.662 212.943C325.233 212.012 319.633 212.012 316.204 212.943L211.209 241.81H433.657Z" fill="#277C33"/>
<path d="M46.2503 206.499H41.8691V240.394H46.2503V206.499Z" fill="#BC7637"/>
<path d="M61.7933 208.472C61.7933 205.381 60.2314 202.662 57.8694 200.948C58.8218 199.607 59.3932 197.969 59.3932 196.181C59.3932 191.599 55.6216 187.912 50.9738 187.8C50.7833 184.746 48.1928 182.325 45.0307 182.325C42.5925 182.325 40.4591 183.777 39.5447 185.826C39.5066 185.826 39.4686 185.826 39.4305 185.826C35.697 185.826 32.6492 188.806 32.6492 192.456C32.6492 193.275 32.8397 194.058 33.1064 194.765C29.9443 197 27.8871 200.613 27.8871 204.71C27.8871 206.163 28.1537 207.541 28.6108 208.845C27.4298 210.223 26.668 211.936 26.668 213.873C26.668 218.194 30.2491 221.658 34.6302 221.658C36.2303 221.658 37.678 221.211 38.9352 220.429C40.6495 223.036 43.583 224.787 47.0117 224.787C51.85 224.787 55.774 221.285 56.4598 216.741C59.6218 215.289 61.7933 212.123 61.7933 208.472Z" fill="#66A646"/>
<path d="M57.8684 200.948C58.8208 199.607 59.3922 197.969 59.3922 196.181C59.3922 192.121 56.4207 188.769 52.5348 187.986C50.4776 192.866 46.7059 196.888 41.9819 199.31C42.4391 200.725 42.6676 202.215 42.6676 203.779C42.6676 211.676 36.4959 218.157 28.6099 218.902C30.0575 220.615 32.2291 221.695 34.7054 221.695C36.3055 221.695 37.7532 221.248 39.0104 220.466C40.7247 223.073 43.6582 224.824 47.0869 224.824C51.9252 224.824 55.8492 221.323 56.535 216.779C59.6589 215.251 61.8685 212.085 61.8685 208.435C61.7923 205.381 60.2685 202.662 57.8684 200.948Z" fill="#277C33"/>
<path d="M78.6329 199.16H73.2993V240.393H78.6329V199.16Z" fill="#BC7637"/>
<path d="M97.5664 201.545C97.5664 197.783 95.6616 194.468 92.8043 192.382C93.9853 190.743 94.6711 188.731 94.6711 186.571C94.6711 181.021 90.0995 176.514 84.4231 176.403C84.1945 172.678 81.0704 169.735 77.1846 169.735C74.213 169.735 71.6224 171.486 70.5176 174.019C70.4795 174.019 70.4414 174.019 70.4033 174.019C65.8317 174.019 62.1745 177.632 62.1745 182.064C62.1745 183.07 62.3649 184.001 62.7078 184.895C58.86 187.614 56.3457 192.009 56.3457 197C56.3457 198.751 56.6885 200.427 57.2599 202.029C55.8123 203.668 54.8979 205.828 54.8979 208.175C54.8979 213.426 59.241 217.673 64.6126 217.673C66.5556 217.673 68.308 217.114 69.8319 216.145C71.8891 219.312 75.5084 221.435 79.6609 221.435C85.5279 221.435 90.328 217.188 91.128 211.676C94.8996 209.813 97.5664 206.014 97.5664 201.545Z" fill="#66A646"/>
<path d="M92.7672 192.419C93.9482 190.78 94.6339 188.768 94.6339 186.608C94.6339 181.691 91.0528 177.594 86.2907 176.663C83.8144 182.623 79.2047 187.502 73.452 190.445C73.9854 192.158 74.2902 193.983 74.2902 195.883C74.2902 205.493 66.785 213.389 57.1846 214.283C58.9751 216.369 61.6038 217.71 64.5754 217.71C66.5183 217.71 68.2709 217.151 69.7948 216.182C71.852 219.349 75.4711 221.472 79.6237 221.472C85.4906 221.472 90.2909 217.225 91.0909 211.713C94.9006 209.85 97.5673 206.014 97.5673 201.582C97.5673 197.782 95.6626 194.467 92.7672 192.419Z" fill="#277C33"/>
<path d="M405.732 207.281H401.427V240.431H405.732V207.281Z" fill="#BC7637"/>
<path d="M420.895 209.18C420.895 206.163 419.371 203.481 417.047 201.842C417.999 200.501 418.533 198.9 418.533 197.186C418.533 192.717 414.875 189.104 410.304 188.992C410.113 186.012 407.599 183.628 404.475 183.628C402.075 183.628 400.018 185.044 399.103 187.055C399.065 187.055 399.027 187.055 398.989 187.055C395.332 187.055 392.36 189.96 392.36 193.536C392.36 194.356 392.512 195.101 392.817 195.808C389.731 198.006 387.712 201.544 387.712 205.567C387.712 206.982 387.979 208.323 388.436 209.59C387.255 210.931 386.531 212.644 386.531 214.506C386.531 218.715 390.036 222.142 394.341 222.142C395.903 222.142 397.313 221.695 398.532 220.913C400.208 223.483 403.103 225.196 406.418 225.196C411.142 225.196 414.99 221.77 415.637 217.337C418.761 215.81 420.895 212.756 420.895 209.18Z" fill="#66A646"/>
<path d="M417.084 201.805C418.036 200.464 418.57 198.863 418.57 197.149C418.57 193.201 415.674 189.886 411.865 189.141C409.884 193.909 406.188 197.857 401.54 200.204C401.959 201.582 402.226 203.034 402.226 204.562C402.226 212.272 396.207 218.641 388.473 219.349C389.921 221.025 392.016 222.105 394.416 222.105C395.978 222.105 397.388 221.658 398.607 220.876C400.283 223.446 403.178 225.159 406.493 225.159C411.217 225.159 415.065 221.733 415.712 217.3C418.798 215.81 420.932 212.719 420.932 209.143C420.894 206.163 419.37 203.481 417.084 201.805Z" fill="#3F8A49"/>
<path d="M377.96 200.279H372.779V240.394H377.96V200.279Z" fill="#BC7637"/>
<path d="M396.399 202.588C396.399 198.937 394.571 195.697 391.751 193.686C392.894 192.084 393.58 190.147 393.58 188.061C393.58 182.66 389.123 178.265 383.599 178.153C383.37 174.54 380.322 171.672 376.551 171.672C373.655 171.672 371.141 173.386 370.074 175.844C370.036 175.844 369.998 175.844 369.96 175.844C365.541 175.844 361.922 179.345 361.922 183.703C361.922 184.672 362.112 185.603 362.455 186.46C358.721 189.104 356.245 193.388 356.245 198.267C356.245 199.98 356.55 201.619 357.121 203.146C355.712 204.748 354.835 206.834 354.835 209.106C354.835 214.209 359.064 218.343 364.284 218.343C366.15 218.343 367.903 217.785 369.35 216.853C371.37 219.945 374.874 222.031 378.913 222.031C384.627 222.031 389.313 217.896 390.075 212.533C393.809 210.633 396.399 206.908 396.399 202.588Z" fill="#66A646"/>
<path d="M391.751 193.685C392.894 192.083 393.579 190.146 393.579 188.06C393.579 183.255 390.074 179.27 385.427 178.376C383.027 184.149 378.531 188.917 372.931 191.785C373.464 193.461 373.731 195.249 373.731 197.074C373.731 206.423 366.416 214.133 357.083 214.99C358.797 217.001 361.388 218.305 364.283 218.305C366.15 218.305 367.902 217.746 369.35 216.815C371.369 219.907 374.874 221.993 378.912 221.993C384.627 221.993 389.313 217.858 390.074 212.495C393.808 210.669 396.361 206.945 396.361 202.624C396.399 198.899 394.57 195.696 391.751 193.685Z" fill="#3F8A49"/>
<path d="M0 239.685C10.2481 348.075 103.433 432.999 217 432.999C330.567 432.999 423.752 348.112 434 239.685H0Z" fill="#7F4C2F"/>
<path d="M19.6587 310.232C54.4412 382.752 129.683 432.999 217.001 432.999C304.319 432.999 379.56 382.752 414.343 310.232C414.343 310.232 341.159 346.659 217.001 326.993C92.0809 307.252 19.6587 310.232 19.6587 310.232Z" fill="#935638"/>
<path d="M67.5459 374.894C106.557 410.875 159.093 433 217 433C274.869 433 327.443 410.912 366.454 374.894C366.454 374.894 294.642 408.081 214.257 384.504C122.405 357.537 67.5459 374.894 67.5459 374.894Z" fill="#B16430"/>
<path d="M428.628 270.749C431.143 260.655 432.971 250.301 434 239.685H0C0.99052 250.301 2.81919 260.655 5.37168 270.749C5.37168 270.749 25.7535 266.54 32.5348 266.54C40.9161 266.54 57.7169 270.749 66.0982 270.749C75.3938 270.749 94.0232 266.54 103.319 266.54C113.681 266.54 134.444 270.749 144.806 270.749C155.473 270.749 176.846 266.54 187.513 266.54C198.79 266.54 221.381 270.749 232.658 270.749C244.239 270.749 267.44 266.54 279.022 266.54C289.994 266.54 311.976 270.749 322.948 270.749C334.072 270.749 356.359 266.54 367.483 266.54C375.407 266.54 391.255 270.749 399.218 270.749C406.57 270.749 428.628 270.749 428.628 270.749Z" fill="#66A646"/>
<path d="M135.358 177.781H132.653V239.612H135.358V177.781Z" fill="#125E7F"/>
<path d="M138.177 205.865H74.5548L74.4023 204.487L177.226 151.894L177.378 153.234L138.177 205.865Z" fill="#A5A5A5"/>
<path d="M138.024 204.487H74.4023L124.995 151.894H177.226L138.024 204.487Z" fill="#CACCCB"/>
<path d="M140.958 162.472H116.233L125.948 152.267H149.72L140.958 162.472Z" fill="#125E7F"/>
<path d="M167.93 162.472H143.167L151.815 152.267H175.549L167.93 162.472Z" fill="#125E7F"/>
<path d="M130.519 174.651H104.575L115.242 163.477H140.119L130.519 174.651Z" fill="#125E7F"/>
<path d="M158.749 174.651H132.805L142.291 163.477H167.169L158.749 174.651Z" fill="#125E7F"/>
<path d="M118.976 188.062H91.6987L103.509 175.77H129.567L118.976 188.062Z" fill="#125E7F"/>
<path d="M148.69 188.062H121.413L131.852 175.77H157.91L148.69 188.062Z" fill="#125E7F"/>
<path d="M106.214 202.96H77.4888L90.5178 189.29H117.948L106.214 202.96Z" fill="#125E7F"/>
<path d="M137.491 202.96H108.766L120.347 189.29H147.739L137.491 202.96Z" fill="#125E7F"/>
<path d="M209.075 161.802H205.684V239.575H209.075V161.802Z" fill="#125E7F"/>
<path d="M212.618 197.15H132.576L132.424 195.436L261.763 129.285L261.953 130.999L212.618 197.15Z" fill="#A5A5A5"/>
<path d="M212.465 195.436H132.424L196.084 129.285H261.763L212.465 195.436Z" fill="#CACCCB"/>
<path d="M216.161 142.546H185.036L197.265 129.733H227.171L216.161 142.546Z" fill="#125E7F"/>
<path d="M250.068 142.546H218.905L229.801 129.733H259.669L250.068 142.546Z" fill="#125E7F"/>
<path d="M203.018 157.892H170.369L183.817 143.85H215.056L203.018 157.892Z" fill="#125E7F"/>
<path d="M238.525 157.892H205.876L217.838 143.85H249.116L238.525 157.892Z" fill="#125E7F"/>
<path d="M188.504 174.802H154.216L169.036 159.307H201.799L188.504 174.802Z" fill="#125E7F"/>
<path d="M225.876 174.802H191.551L204.694 159.307H237.496L225.876 174.802Z" fill="#125E7F"/>
<path d="M172.464 193.499H136.31L152.73 176.328H187.169L172.464 193.499Z" fill="#125E7F"/>
<path d="M211.819 193.499H175.665L190.218 176.328H224.695L211.819 193.499Z" fill="#125E7F"/>
<path d="M307.213 138.337H302.794V239.612H307.213V138.337Z" fill="#125E7F"/>
<path d="M311.823 184.337H207.628L207.399 182.139L375.788 95.9863L376.016 98.1839L311.823 184.337Z" fill="#A5A5A5"/>
<path d="M311.594 182.139H207.399L290.298 95.9863H375.788L311.594 182.139Z" fill="#CACCCB"/>
<path d="M316.433 113.27H275.897L291.86 96.583H330.757L316.433 113.27Z" fill="#125E7F"/>
<path d="M360.549 113.27H320.014L334.186 96.583H373.083L360.549 113.27Z" fill="#125E7F"/>
<path d="M299.328 133.233H256.812L274.298 114.945H315.024L299.328 133.233Z" fill="#125E7F"/>
<path d="M345.577 133.233H303.061L318.604 114.945H359.292L345.577 133.233Z" fill="#125E7F"/>
<path d="M280.432 155.21H235.782L255.059 135.06H297.728L280.432 155.21Z" fill="#125E7F"/>
<path d="M329.043 155.21H284.394L301.499 135.06H344.206L329.043 155.21Z" fill="#125E7F"/>
<path d="M259.554 179.569H212.466L233.839 157.221H278.717L259.554 179.569Z" fill="#125E7F"/>
<path d="M310.756 179.569H263.706L282.678 157.221H327.518L310.756 179.569Z" fill="#125E7F"/>
<path d="M161.836 100.492H154.064C154.178 99.9709 154.216 99.4122 154.216 98.8535C154.216 93.9741 150.178 90.0259 145.187 90.0259H129.911C129.606 87.2323 127.244 85.072 124.348 85.072H116.843C115.7 82.7999 113.338 81.1982 110.557 81.1982H81.2609C77.375 81.1982 74.2129 84.2898 74.2129 88.089C74.2129 89.3927 74.5939 90.6218 75.2796 91.6647H52.5359C48.3452 91.6647 44.9165 94.9797 44.9165 99.1142C44.9165 103.211 48.3071 106.564 52.5359 106.564H52.8025C52.4215 107.42 52.231 108.352 52.231 109.32C52.231 113.268 55.5074 116.471 59.5457 116.471H79.8132C82.8609 116.471 85.4516 114.646 86.5564 112.076H97.6045C98.7093 115.875 102.29 118.669 106.557 118.669H161.798C166.941 118.669 171.093 114.609 171.093 109.581C171.093 104.552 166.979 100.492 161.836 100.492Z" fill="#ADC8E3"/>
<path d="M256.279 61.1973C257.041 59.1487 257.651 56.9884 258.031 54.7908L272.547 49.4272L257.993 43.0206C257.612 40.8231 257.003 38.6627 256.203 36.6141L266.032 24.8812L250.184 26.4456C248.736 24.7322 247.098 23.1306 245.345 21.7152L247.822 6.77901L234.869 15.9046C232.773 15.1597 230.564 14.5637 228.316 14.1912L222.83 0L216.277 14.2285C214.03 14.6009 211.82 15.1969 209.725 15.9791L197.724 6.36929L199.324 21.8642C197.572 23.2796 195.934 24.8812 194.486 26.5946L179.209 24.1735L188.543 36.8376C187.781 38.8862 187.171 41.0465 186.79 43.2441L172.275 48.6077L186.828 55.0143C187.209 57.2491 187.819 59.3722 188.619 61.4208L178.79 73.1537L194.638 71.5893C196.086 73.3027 197.724 74.9043 199.477 76.3197L197 91.2559L209.953 82.1303C212.049 82.8753 214.258 83.4712 216.506 83.8437L221.992 98.0349L228.544 83.8065C230.792 83.434 233.002 82.838 235.097 82.0558L247.098 91.6656L245.498 76.1708C247.25 74.7554 248.888 73.1537 250.336 71.4404L265.613 73.8614L256.279 61.1973Z" fill="#FFEF24"/>
<path d="M258.031 54.7905L272.546 49.4269L257.993 43.0203C257.612 40.8228 257.003 38.6624 256.241 36.6138L266.07 24.8809L250.221 26.4453C249.079 25.1044 247.745 23.9125 246.412 22.7578C246.717 24.9182 246.945 27.153 246.945 29.3878C246.945 54.9395 225.763 75.6862 199.591 75.6862C199.286 75.6862 199.019 75.649 198.752 75.649C198.981 75.8725 199.172 76.096 199.438 76.3195L196.962 91.2556L209.915 82.13C212.01 82.875 214.22 83.4709 216.468 83.8434L221.953 98.0346L228.506 83.8062C230.754 83.4337 232.964 82.8377 235.059 82.0555L247.059 91.6653L245.459 76.1705C247.212 74.7551 248.85 73.1534 250.298 71.4401L265.575 73.8611L256.241 61.197C257.079 59.1484 257.65 56.9881 258.031 54.7905Z" fill="#FFBC27"/>
</svg>
