<svg width="327" height="327" viewBox="0 0 327 327" fill="none" xmlns="http://www.w3.org/2000/svg">
<path d="M327 170.435C327 256.727 253.799 326.681 163.5 326.681C74.0824 327.357 1.02564 257.472 0 170.435C0 84.1425 73.2014 14.1886 163.5 14.1886C253.799 14.1886 327 84.1425 327 170.435Z" fill="#A2C5E5"/>
<ellipse cx="163.167" cy="156.086" rx="133.198" ry="127.867" fill="#A2C5E5"/>
<path d="M114.883 203.917L89.5752 209.337C92.2265 238.996 97.3498 254.439 111.22 280.445C129.086 305.649 140.527 315.632 163.167 327C172.447 326.943 176.983 326.868 184.145 326.044C220.33 319.452 234.221 312.7 256.072 299.259C276.234 285.519 286.042 276.938 297.363 260.357C294.303 249.832 286.855 237.138 282.251 229.876C279.786 225.987 276.169 223.031 271.886 221.341C260.378 216.797 235.362 207.707 211.451 204.235L167.718 215.077H157.839L114.883 203.917Z" fill="#205C92"/>
<path d="M131.533 193.075V166.609C137.832 173.545 142.293 176.449 151.179 180.639C159.371 183.53 164.417 184.032 175.155 180.639C184.189 176.132 188.095 172.14 194.802 165.971V193.075C185.28 202.318 180.933 207.791 165.831 215.396H159.837C147.689 208.926 141.261 204.514 131.533 193.075Z" fill="#FCAD6D"/>
<path d="M138.859 200.728L131.533 193.296V165.971C136.566 172.512 141.038 175.645 150.846 180.639C160.323 183.905 165.562 183.715 174.822 180.639C184.612 175.685 188.229 172.236 194.537 166.224L194.802 165.971V171.073C192.078 176.021 190.963 178.697 186.144 184.147C178.08 191.704 172.758 193.291 163.5 196.901C155.674 199.547 149.689 199.876 138.859 200.728Z" fill="#FD995B"/>
<path d="M222.772 93.2678C222.772 133.42 193.914 183.189 162.833 183.189C132.176 183.082 104.252 133.33 103.894 93.2678C103.894 53.1154 135.083 35.8712 166.163 35.8712C197.244 35.8712 222.772 53.1154 222.772 93.2678Z" fill="#F9BA8F"/>
<path d="M128.536 46.0758C134.503 53.5942 138.859 57.2363 138.859 57.2363L133.647 74.4255C133.127 76.141 132.793 77.8988 132.669 79.6871C132.326 84.6585 131.665 95.5803 131.809 104.148C131.833 105.609 132.02 107.065 132.329 108.492C136.105 125.967 138.744 136.241 147.517 152.26C156.322 166.595 163.192 172.697 176.154 180.162C172.047 182.065 168.223 183.116 161.169 183.19C146.142 182.229 135.897 175.414 121.21 152.26C112.163 137.232 109.206 127.597 105.559 109.212C104.003 97.2882 102.386 92.1297 107.383 72.8653C107.715 71.5875 108.157 70.3362 108.719 69.1419C113.721 58.5244 118.547 53.4036 128.536 46.0758Z" fill="#FCAD6D"/>
<path d="M179.162 139.382C177.185 139.069 151.434 139.18 147.866 139.367C146.162 139.456 145.184 140.319 144.627 141.195C143.885 142.364 143.717 143.846 144.108 145.174C144.15 145.316 144.195 145.466 144.243 145.628C144.529 146.606 144.423 146.458 145.89 148.75C147.356 151.043 148.17 152.26 149.513 153.435C150.857 154.61 153.196 156.918 159.396 158.119C162.612 158.356 164.416 158.41 167.632 158.119C172.337 157.415 174.217 156.147 177.185 153.435C181.132 149.789 182.785 145.003 183.115 143.129C183.444 141.256 181.138 139.694 179.162 139.382Z" fill="#162544"/>
<path d="M167.495 149.389C163.088 148.382 161.191 148.726 157.839 149.389C151.529 151.353 152.058 151.883 149.639 153.472C151.93 155.538 153.214 156.233 155.508 157.042C160.854 158.516 165.054 158.598 170.825 157.361C173.892 156.32 174.989 155.401 176.819 153.534C173.999 151.533 172.198 150.513 167.495 149.389Z" fill="#FF4155"/>
<path d="M149.514 153.534L149.639 153.472M149.639 153.472C152.058 151.883 151.529 151.353 157.839 149.389C161.191 148.726 163.088 148.382 167.495 149.389C172.198 150.513 173.999 151.533 176.819 153.534C174.989 155.401 173.892 156.32 170.825 157.361C165.054 158.598 160.854 158.516 155.508 157.042C153.214 156.233 151.93 155.538 149.639 153.472Z" stroke="#FF4155" stroke-width="0.5"/>
<path d="M157.607 116.572C159.902 112.5 165.766 112.5 168.061 116.572L170.193 120.354C172.447 124.354 169.557 129.3 164.966 129.3H160.703C156.112 129.3 153.222 124.354 155.476 120.354L157.607 116.572Z" fill="#FD995B"/>
<path d="M202.57 83.3224L202.569 83.3364L202.571 83.3503C202.761 85.549 202.309 86.8892 201.547 87.6938C200.782 88.5017 199.655 88.8225 198.377 88.8701C197.101 88.9176 195.717 88.6909 194.482 88.4452C194.194 88.3878 193.908 88.3282 193.634 88.2711C193.333 88.2083 193.046 88.1485 192.788 88.0983C192.29 88.0016 191.848 87.93 191.513 87.9256C191.174 87.9212 190.733 87.9884 190.239 88.0825C189.954 88.1367 189.641 88.2022 189.31 88.2713C189.067 88.3221 188.814 88.3749 188.557 88.4265C187.331 88.6726 185.953 88.9026 184.668 88.8515C183.382 88.8004 182.223 88.4697 181.396 87.6283C180.571 86.7887 180.035 85.3959 180.092 83.1237C180.107 82.5129 180.419 81.9733 181.01 81.4993C181.606 81.0218 182.472 80.624 183.55 80.3117C185.704 79.6876 188.636 79.4241 191.749 79.4958C194.866 79.5676 197.621 79.8832 199.58 80.5223C200.56 80.842 201.321 81.2366 201.83 81.7061C202.332 82.1694 202.585 82.7018 202.57 83.3224Z" fill="#FF940A" stroke="#F9BA8F" stroke-width="0.5"/>
<path d="M146.999 83.3282C147.774 92.277 138.171 88.2082 135.688 88.1756C133.205 88.1429 123.789 92.3625 124.021 83.118C124.092 80.3011 129.683 79.1019 135.934 79.2458C142.185 79.3898 147.07 80.5113 146.999 83.3282Z" fill="#FF9715"/>
<path d="M120.211 292.244C134.933 309.666 145.353 317.369 163.167 327.001C134.692 326.481 120.737 322.632 95.902 313.289C77.9981 304.634 69.0083 299.758 53.2788 286.185C43.232 278.164 37.6198 271.706 29.6362 259.719C33.0291 248.063 37.0419 240.487 44.0054 230.087C46.1344 226.907 49.019 224.296 52.3877 222.481C65.088 215.638 74.1061 211.947 89.5751 209.338C91.0203 224.072 92.5201 232.357 95.902 245.37C104.315 268.473 109.961 279.646 120.211 292.244Z" fill="#11426E"/>
<path d="M123.54 29.1757C126.29 39.3446 127.903 45.1284 134.196 53.0909C129.772 55.3981 127.665 57.0815 124.539 60.7438C119.765 67.5599 117.183 75.1887 116.548 77.9628C115.913 80.7369 109.207 90.87 104.227 91.0365C103.731 90.4468 103.635 92.0824 101.563 91.0365C99.0215 90.4182 97.4921 90.2753 94.237 91.0365C93.2345 80.2357 93.4903 72.8777 95.236 60.7438C98.8416 47.5214 102.665 40.6429 112.219 29.1757C112.476 24.8104 112.43 22.4518 114.883 17.0586C116.19 12.5127 117.757 10.5616 122.208 8.13025C120.986 23.993 122.806 25.4338 123.54 29.1757Z" fill="#FFC839"/>
<path d="M104.227 91.0366C104.812 106.311 106.15 114.396 110.221 128.026C100.742 121.982 92.8882 120.998 89.2427 97.7328C89.3493 96.1387 89.2452 94.9744 89.8979 93.5947C91.5972 90.0027 96.0044 87.925 99.8948 88.7345C101.539 89.0765 102.719 89.9116 104.227 91.0366Z" fill="#FCAD6D"/>
<path d="M140.519 97.5942C140.066 97.2266 139.601 96.9121 139.091 96.6158C137.662 95.7852 136.176 95.2529 134.525 95.3311C133.735 95.3685 132.817 95.6223 132.086 95.9253C130.764 96.4735 129.887 97.0163 129.168 97.6787C127.915 98.8323 127.032 100.401 126.772 102.084C126.692 102.604 126.686 103.077 126.725 103.576C126.785 104.359 126.922 105.168 127.37 105.814C127.447 105.925 127.528 106.022 127.617 106.109C128.127 106.613 128.891 106.74 129.606 106.783C129.791 106.794 129.973 106.798 130.164 106.794C131.071 106.776 132.029 106.432 132.687 105.807C133.365 105.161 133.896 104.265 134.831 104.219C134.946 104.213 135.056 104.222 135.162 104.243C135.914 104.393 136.437 105.053 136.981 105.594C137.089 105.701 137.192 105.798 137.293 105.888C138.02 106.531 139.028 106.911 139.979 106.718C140.051 106.703 140.12 106.684 140.19 106.661C140.385 106.625 140.893 106.45 141.439 106.186C142.819 105.521 143.304 103.821 143.141 102.297C142.938 100.41 141.993 98.7901 140.519 97.5942Z" fill="#162544"/>
<path d="M196.965 97.5942C196.512 97.2266 196.046 96.9121 195.536 96.6158C194.107 95.7852 192.622 95.2529 190.97 95.3311C190.18 95.3685 189.263 95.6223 188.532 95.9253C187.209 96.4735 186.333 97.0163 185.613 97.6787C184.36 98.8323 183.478 100.401 183.218 102.084C183.137 102.604 183.132 103.077 183.17 103.576C183.231 104.359 183.368 105.168 183.815 105.814C183.892 105.925 183.973 106.022 184.062 106.109C184.573 106.613 185.336 106.74 186.052 106.783C186.236 106.794 186.419 106.798 186.609 106.794C187.517 106.776 188.475 106.432 189.132 105.807C189.811 105.161 190.341 104.265 191.277 104.219C191.392 104.213 191.501 104.222 191.607 104.243C192.359 104.393 192.883 105.053 193.427 105.594C193.534 105.701 193.637 105.798 193.739 105.888C194.465 106.531 195.474 106.911 196.425 106.718C196.496 106.703 196.565 106.684 196.635 106.661C196.83 106.625 197.338 106.45 197.884 106.186C199.265 105.521 199.75 103.821 199.586 102.297C199.383 100.41 198.439 98.7901 196.965 97.5942Z" fill="#162544"/>
<path d="M230.099 45.4376C234.28 61.2262 235.669 73.0925 234.428 91.3549C229.424 88.868 226.813 88.7783 222.773 92.6304C218.837 88.7269 216.115 85.3465 208.787 79.5567C198.787 70.8166 192.476 66.6563 179.89 61.6719C179.697 61.5954 179.527 61.8255 179.66 61.984L184.812 68.0774C189.093 72.3106 185.96 75.1645 180.042 74.0561C172.212 72.5895 164.441 70.2597 155.508 66.8019C142.848 61.6089 137.051 56.7719 128.536 45.4376C121.893 33.2192 120.542 25.0313 122.209 8.12984C127.349 4.86513 129.655 4.78776 134.197 3.34679C165.457 -3.03845 178.84 0.053978 200.129 9.72419C220.499 20.5401 225.046 29.0876 230.099 45.4376Z" fill="#FFDD40"/>
<path d="M222.44 91.0366C221.855 106.311 220.517 114.396 216.446 128.026C225.926 121.982 233.779 120.998 237.425 97.7328C237.318 96.1387 237.422 94.9744 236.77 93.5947C235.07 90.0027 230.663 87.925 226.773 88.7345C225.129 89.0765 223.948 89.9116 222.44 91.0366Z" fill="#FCAD6D"/>
<path d="M157.839 215.077H167.829V285.593C167.829 288.591 166.682 292.124 163.716 292.561C163.273 292.626 162.823 292.626 162.352 292.556C159.196 292.082 157.839 288.443 157.839 285.252V215.077Z" fill="#144979"/>
<path d="M193.282 194.384C184.625 203.578 178.388 208.562 166.164 215.076C165.518 215.461 165.625 216.379 166.187 218.21C166.592 219.526 167.155 220.789 167.801 222.005L174.646 234.88C175.647 236.763 176.738 238.725 178.57 239.816C178.697 239.892 178.823 239.961 178.948 240.022C181.297 241.179 183.996 239.641 186.236 238.285C196.993 231.776 202.697 225.288 209.603 211.671C210.174 210.547 210.662 209.376 211.006 208.162C211.345 206.968 211.536 205.995 211.466 205.145C211.332 203.514 209.772 202.493 208.45 201.528C205.402 199.302 203.054 197.34 199.628 194.161C198.856 193.445 197.943 192.72 196.911 192.506C195.478 192.207 194.286 193.318 193.282 194.384Z" fill="#11426E"/>
<path d="M133.166 194.512C141.728 203.66 147.668 208.91 159.837 215.395C160.478 215.777 160.394 216.5 159.852 218.213C159.436 219.526 158.876 220.789 158.229 222.005L151.384 234.88C150.383 236.763 149.293 238.725 147.46 239.816C147.333 239.892 147.207 239.961 147.082 240.022C144.733 241.179 142.035 239.641 139.794 238.285C129.037 231.776 123.333 225.288 116.427 211.671C115.857 210.547 115.368 209.376 115.024 208.162C114.686 206.968 114.494 205.995 114.564 205.145C114.698 203.514 116.258 202.493 117.58 201.528C120.602 199.321 122.935 197.374 126.312 194.245C127.145 193.473 128.117 192.711 129.233 192.506C130.784 192.22 132.088 193.36 133.166 194.512Z" fill="#11426E"/>
<ellipse cx="163.167" cy="243.456" rx="6.65988" ry="6.69627" fill="#11426E"/>
<ellipse cx="163.167" cy="268.965" rx="6.65988" ry="6.69627" fill="#11426E"/>
<path d="M269.2 268.768C269.833 268.722 270.71 268.858 271.308 269.062C273.07 269.662 273.43 271.558 273.509 273.418L274.053 286.185C268.867 290.771 264.812 293.029 258.07 297.665C258.07 297.665 265.551 272.038 266.395 270.561C267.096 269.333 267.789 268.871 269.2 268.768Z" fill="#144979"/>
<path d="M58.3495 268.768C57.7167 268.722 56.8396 268.858 56.2414 269.062C54.4794 269.662 54.1198 271.558 54.0405 273.418L53.4963 286.185C58.6828 290.771 62.7383 293.029 69.48 297.665C69.48 297.665 61.9987 272.038 61.1552 270.561C60.454 269.333 59.7607 268.871 58.3495 268.768Z" fill="#11426E"/>
</svg>
