<svg width="327" height="327" viewBox="0 0 327 327" fill="none" xmlns="http://www.w3.org/2000/svg">
<path d="M327 170.435C327 256.728 253.799 326.682 163.5 326.682C74.0824 327.357 1.02564 257.472 0 170.435C0 84.1427 73.2014 14.1888 163.5 14.1888C253.799 14.1888 327 84.1427 327 170.435Z" fill="#A2C5E5"/>
<ellipse cx="163.167" cy="156.086" rx="133.198" ry="127.867" fill="#A2C5E5"/>
<path d="M114.883 203.917L89.5752 209.338C92.2265 238.996 97.3498 254.439 111.22 280.446C129.086 305.649 140.527 315.632 163.167 327.001C172.447 326.943 176.983 326.868 184.145 326.044C220.33 319.452 234.221 312.701 256.072 299.259C276.234 285.519 286.042 276.938 297.363 260.357C294.303 249.832 286.855 237.139 282.251 229.876C279.786 225.987 276.169 223.032 271.886 221.341C260.378 216.798 235.362 207.707 211.451 204.236L167.718 215.077H157.839L114.883 203.917Z" fill="#205C92"/>
<path d="M131.533 193.075V166.609C137.832 173.545 142.293 176.449 151.18 180.639C159.372 183.53 164.418 184.032 175.155 180.639C184.19 176.132 188.095 172.14 194.802 165.971V193.075C185.28 202.318 180.934 207.791 165.832 215.396H159.838C147.689 208.926 141.261 204.513 131.533 193.075Z" fill="#FCAD6D"/>
<path d="M138.859 200.728L131.533 193.296V165.971C136.567 172.512 141.038 175.645 150.847 180.639C160.324 183.905 165.562 183.715 174.822 180.639C184.612 175.684 188.23 172.236 194.537 166.223L194.802 165.971V171.073C192.078 176.021 190.964 178.696 186.144 184.146C178.081 191.704 172.758 193.291 163.501 196.901C155.675 199.546 149.689 199.876 138.859 200.728Z" fill="#FD995B"/>
<path d="M222.773 93.2678C222.773 133.42 193.915 183.189 162.834 183.189C132.177 183.082 104.253 133.33 103.895 93.2678C103.895 53.1154 135.084 35.8712 166.164 35.8712C197.245 35.8712 222.773 53.1154 222.773 93.2678Z" fill="#F9BA8F"/>
<path d="M128.535 46.0756C134.503 53.5939 138.858 57.236 138.858 57.236L133.647 74.4252C133.127 76.1407 132.792 77.8985 132.669 79.6869C132.325 84.6583 131.664 95.58 131.808 104.148C131.833 105.608 132.02 107.064 132.328 108.492C136.104 125.966 138.743 136.241 147.516 152.259C156.322 166.595 163.191 172.697 176.154 180.162C172.047 182.065 168.223 183.115 161.169 183.19C146.142 182.229 135.897 175.414 121.21 152.259C112.163 137.231 109.206 127.597 105.559 109.212C104.003 97.288 102.385 92.1295 107.383 72.865C107.714 71.5872 108.156 70.3359 108.719 69.1417C113.72 58.5241 118.547 53.4033 128.535 46.0756Z" fill="#FCAD6D"/>
<path d="M157.607 116.572C159.902 112.5 165.766 112.5 168.061 116.572L170.193 120.354C172.447 124.354 169.557 129.3 164.966 129.3H160.703C156.112 129.3 153.222 124.354 155.476 120.354L157.607 116.572Z" fill="#FD995B"/>
<ellipse cx="191.138" cy="100.763" rx="5.99389" ry="5.73966" fill="#162544"/>
<ellipse cx="134.529" cy="100.763" rx="5.99389" ry="5.73966" fill="#162544"/>
<path d="M202.819 92.9233C203.594 83.9745 193.991 88.0432 191.509 88.0759C189.026 88.1085 179.609 83.8889 179.841 93.1335C179.912 95.9504 185.503 97.1496 191.755 97.0056C198.006 96.8617 202.89 95.7402 202.819 92.9233Z" fill="#FF9100"/>
<path d="M158.838 145.723C155.711 146.678 153.906 147.641 152.255 148.955C150.38 150.448 148.383 153.385 150.18 154.97C151.786 156.34 153.912 155.237 155.44 153.782C156.814 152.475 157.668 152.136 158.838 151.782C161.665 151.209 163.346 151.205 165.427 151.498C166.584 151.66 167.711 152.009 168.746 152.551C169.428 152.908 169.985 153.242 170.46 153.572C172.464 154.966 175.067 156.956 176.487 154.97C177.952 153.122 175.995 150.458 174.132 149.012C173.149 148.249 171.922 147.504 169.908 146.6C168.54 145.986 167.093 145.546 165.612 145.314C163.33 144.957 161.541 144.969 158.838 145.723Z" fill="#FD995B"/>
<path d="M146.999 77.0574C147.774 86.0062 138.171 81.9375 135.688 81.9048C133.205 81.8722 123.789 86.0918 124.021 76.8472C124.092 74.0303 129.683 72.8311 135.934 72.9751C142.185 73.119 147.07 74.2405 146.999 77.0574Z" fill="#FF9100"/>
<path d="M120.211 292.244C134.933 309.666 145.353 317.369 163.167 327C134.692 326.481 120.737 322.632 95.902 313.289C77.9981 304.634 69.0083 299.758 53.2788 286.185C43.232 278.163 37.6198 271.705 29.6362 259.719C33.0291 248.063 37.0419 240.487 44.0054 230.087C46.1344 226.907 49.019 224.296 52.3877 222.481C65.088 215.637 74.1061 211.947 89.5751 209.337C91.0203 224.072 92.5201 232.357 95.902 245.37C104.315 268.473 109.961 279.646 120.211 292.244Z" fill="#11426E"/>
<path d="M123.54 29.1759C126.29 39.3449 127.903 45.1287 134.196 53.0912C129.771 55.3983 127.664 57.0818 124.539 60.7441C119.764 67.5602 117.182 75.1889 116.547 77.963C115.912 80.7371 109.207 90.8703 104.226 91.0367C103.731 90.4471 103.634 92.0826 101.562 91.0367C99.021 90.4184 97.4916 90.2756 94.2365 91.0367C93.234 80.2359 93.4898 72.878 95.2355 60.7441C98.8411 47.5216 102.665 40.6431 112.218 29.1759C112.475 24.8106 112.43 22.452 114.882 17.0589C116.19 12.5129 117.756 10.5619 122.208 8.13049C120.986 23.9932 122.806 25.434 123.54 29.1759Z" fill="#FFC839"/>
<path d="M104.227 91.0367C104.812 106.311 106.15 114.396 110.221 128.026C100.741 121.982 92.8878 120.998 89.2422 97.733C89.3488 96.1388 89.2447 94.9745 89.8974 93.5949C91.5967 90.0028 96.0039 87.9251 99.8943 88.7346C101.538 89.0766 102.719 89.9117 104.227 91.0367Z" fill="#FCAD6D"/>
<path d="M230.099 45.4376C234.281 61.2262 235.669 73.0925 234.428 91.3549C229.424 88.868 226.813 88.7783 222.773 92.6304C218.838 88.7269 216.116 85.3465 208.788 79.5567C198.788 70.8166 192.476 66.6563 179.89 61.6718C179.697 61.5954 179.527 61.8255 179.661 61.984L184.812 68.0774C189.093 72.3106 185.96 75.1645 180.043 74.0561C172.213 72.5895 164.441 70.2597 155.509 66.8019C142.849 61.6089 137.052 56.7719 128.536 45.4376C121.893 33.2192 120.543 25.0313 122.209 8.12984C127.35 4.86513 129.656 4.78776 134.197 3.34679C165.458 -3.03845 178.841 0.053978 200.13 9.72419C220.499 20.5401 225.047 29.0876 230.099 45.4376Z" fill="#FFDD40"/>
<path d="M85.2019 174.574C85.0623 174.595 84.918 174.613 84.7689 174.629C81.7921 174.945 78.8574 173.739 76.4368 171.978C75.1873 171.069 73.9247 169.993 72.2594 168.364C69.0768 164.507 67.3217 161.714 65.2816 156.854C64.5833 155.19 64.111 153.436 63.8766 151.647C63.36 147.703 63.3281 144.821 64.2675 140.304C65.3066 134.943 65.7333 131.98 62.2696 127.868C59.1501 124.838 56.8392 123.18 52.0771 123.109C49.1204 123.065 46.2256 124.021 43.7 125.559C41.5811 126.849 40.0726 128.119 39.0801 129.877C38.0026 131.786 37.9205 134.095 38.3145 136.251C38.7798 138.797 39.7532 140.775 41.9569 143.492C43.9861 146.016 44.9415 147.917 45.2573 150.216C45.6292 152.923 45.1281 155.925 43.2059 157.867C42.4485 158.632 41.4181 159.273 39.8528 159.823C36.5169 160.994 32.6735 160.961 29.6003 159.213C27.958 158.279 26.5432 156.879 24.9743 154.334C21.0168 148.224 18.4788 144.744 18.2949 134.708C18.2544 132.496 18.6201 130.295 19.3171 128.196C22.5747 118.383 25.5253 114.714 30.9681 110.33C39.4739 104.986 45.1135 103.551 55.1914 103.866C56.5783 103.91 57.9599 104.094 59.3083 104.422C66.3456 106.13 70.3809 108.148 75.9223 113.837C82.7643 122.191 85.7737 127.199 84.5802 138.709C83.848 142.491 83.6136 144.979 84.0458 148.187C84.3125 150.166 84.9871 152.073 85.9948 153.798C86.8245 155.218 87.6802 156.461 88.6426 157.743C90.9269 160.785 93.4908 163.578 92.7156 167.302C92.0334 170.581 88.5131 174.075 85.2019 174.574Z" fill="#1091D9"/>
<ellipse cx="101.896" cy="183.67" rx="9.98982" ry="9.5661" fill="#1091D9"/>
<path d="M240.953 174.444C240.901 174.427 240.849 174.41 240.796 174.392C237.588 173.276 235.56 171.93 234.308 168.773C233.182 165.935 234.841 161.247 236.754 158.867C237.681 157.713 238.784 156.535 240.422 155C244.52 151.899 247.469 150.213 252.712 148.215C254.275 147.619 255.907 147.217 257.567 147.011C261.848 146.48 264.889 146.425 269.725 147.347C275.324 148.342 278.417 148.751 282.712 145.434C285.755 142.561 287.474 140.404 287.666 136.185C287.81 133.021 286.681 129.915 284.888 127.304C283.537 125.336 282.176 123.951 280.269 123.058C278.446 122.205 276.358 122.14 274.367 122.431C271.506 122.849 269.377 123.766 266.395 125.983C263.585 128.055 261.513 128.958 258.889 129.196C256.368 129.424 253.666 129.017 251.688 127.437C250.876 126.789 250.191 125.921 249.602 124.599C248.037 121.087 248.094 116.73 250.34 113.608C251.311 112.26 252.726 111.048 255.073 109.721C261.536 105.882 265.181 103.439 275.975 103.319C278.013 103.296 280.052 103.606 282.003 104.193C292.526 107.356 296.394 110.187 301.027 115.46C306.555 123.528 308.077 128.903 307.785 138.384C307.739 139.891 307.522 141.392 307.13 142.848C305.359 149.433 303.232 153.267 297.364 158.508C288.64 165.059 283.41 167.941 271.39 166.798C267.315 166.075 264.679 165.859 261.169 166.328C259.322 166.575 257.529 167.153 255.879 168.022C254.287 168.861 252.916 169.723 251.498 170.699C248.331 172.881 244.623 175.593 240.953 174.444Z" fill="#1091D9"/>
<ellipse cx="224.438" cy="183.378" rx="9.5661" ry="9.98982" transform="rotate(90 224.438 183.378)" fill="#1091D9"/>
<path d="M222.44 91.0367C221.855 106.311 220.517 114.396 216.446 128.026C225.926 121.982 233.779 120.998 237.425 97.733C237.318 96.1388 237.422 94.9745 236.77 93.5949C235.07 90.0028 230.663 87.9251 226.773 88.7346C225.129 89.0766 223.948 89.9117 222.44 91.0367Z" fill="#FCAD6D"/>
<path d="M157.839 215.076H167.829V285.593C167.829 288.591 166.681 292.124 163.715 292.561C163.273 292.626 162.822 292.626 162.351 292.555C159.196 292.082 157.839 288.443 157.839 285.252V215.076Z" fill="#144979"/>
<path d="M193.283 194.384C184.625 203.578 178.389 208.562 166.164 215.076C165.518 215.461 165.626 216.379 166.188 218.21C166.592 219.526 167.155 220.789 167.802 222.005L174.646 234.88C175.647 236.763 176.738 238.725 178.57 239.816C178.697 239.892 178.823 239.96 178.948 240.022C181.298 241.179 183.996 239.641 186.237 238.285C196.993 231.776 202.697 225.288 209.604 211.671C210.174 210.546 210.663 209.375 211.007 208.162C211.345 206.968 211.536 205.995 211.466 205.144C211.333 203.513 209.773 202.493 208.451 201.528C205.402 199.301 203.055 197.34 199.628 194.161C198.856 193.445 197.943 192.72 196.912 192.505C195.479 192.207 194.286 193.318 193.283 194.384Z" fill="#11426E"/>
<path d="M133.166 194.512C141.729 203.659 147.668 208.91 159.838 215.395C160.478 215.776 160.395 216.5 159.852 218.213C159.437 219.526 158.876 220.789 158.23 222.005L151.385 234.88C150.384 236.763 149.293 238.725 147.461 239.816C147.334 239.892 147.208 239.96 147.083 240.022C144.733 241.179 142.035 239.641 139.794 238.285C129.038 231.776 123.334 225.288 116.427 211.671C115.857 210.546 115.369 209.375 115.025 208.162C114.686 206.968 114.495 205.995 114.565 205.144C114.699 203.513 116.259 202.493 117.58 201.528C120.602 199.321 122.935 197.374 126.313 194.244C127.146 193.473 128.117 192.711 129.234 192.505C130.785 192.22 132.089 193.36 133.166 194.512Z" fill="#11426E"/>
<ellipse cx="163.167" cy="243.455" rx="6.65988" ry="6.69627" fill="#11426E"/>
<ellipse cx="163.167" cy="268.965" rx="6.65988" ry="6.69627" fill="#11426E"/>
<path d="M269.2 268.768C269.833 268.722 270.71 268.858 271.308 269.062C273.07 269.661 273.43 271.557 273.509 273.418L274.053 286.185C268.867 290.77 264.811 293.028 258.07 297.664C258.07 297.664 265.551 272.037 266.395 270.56C267.096 269.332 267.789 268.87 269.2 268.768Z" fill="#144979"/>
<path d="M58.2064 268.768C57.5736 268.722 56.6966 268.858 56.0983 269.062C54.3363 269.661 53.9767 271.557 53.8974 273.418L53.3533 286.185C58.5397 290.77 62.5952 293.028 69.337 297.664C69.337 297.664 61.8557 272.037 61.0121 270.56C60.3109 269.332 59.6176 268.87 58.2064 268.768Z" fill="#11426E"/>
</svg>
