<svg width="634" height="169" viewBox="0 0 634 169" fill="none" xmlns="http://www.w3.org/2000/svg">
<path d="M9.216 130V40.4H41.088C46.8907 40.4 52.0107 41.4667 56.448 43.6C60.9707 45.648 64.512 48.5067 67.072 52.176C69.632 55.8453 70.912 60.0693 70.912 64.848C70.912 69.0293 69.7173 72.8267 67.328 76.24C64.9387 79.568 61.7387 82.256 57.728 84.304C62.5067 86.1813 66.304 88.9547 69.12 92.624C72.0213 96.208 73.472 100.304 73.472 104.912C73.472 109.776 72.1493 114.128 69.504 117.968C66.944 121.723 63.4027 124.667 58.88 126.8C54.3573 128.933 49.1093 130 43.136 130H9.216ZM30.72 76.496H38.656C41.8133 76.496 44.3307 75.6427 46.208 73.936C48.1707 72.144 49.152 69.84 49.152 67.024C49.152 64.1227 48.2133 61.8187 46.336 60.112C44.4587 58.4053 41.8987 57.552 38.656 57.552H30.72V76.496ZM30.72 112.848H40.448C43.8613 112.848 46.5493 111.952 48.512 110.16C50.56 108.283 51.584 105.808 51.584 102.736C51.584 99.5787 50.56 97.104 48.512 95.312C46.5493 93.52 43.8613 92.624 40.448 92.624H30.72V112.848ZM82.382 130V111.568H104.142V58.832H82.382V40.4H147.918V58.832H126.158V111.568H147.918V130H82.382ZM180.892 130V58.832H155.292V40.4H228.508V58.832H202.908V130H180.892ZM316.216 130V40.4H348.088C353.891 40.4 359.011 41.4667 363.448 43.6C367.971 45.648 371.512 48.5067 374.072 52.176C376.632 55.8453 377.912 60.0693 377.912 64.848C377.912 69.0293 376.717 72.8267 374.328 76.24C371.939 79.568 368.739 82.256 364.728 84.304C369.507 86.1813 373.304 88.9547 376.12 92.624C379.021 96.208 380.472 100.304 380.472 104.912C380.472 109.776 379.149 114.128 376.504 117.968C373.944 121.723 370.403 124.667 365.88 126.8C361.357 128.933 356.109 130 350.136 130H316.216ZM337.72 76.496H345.656C348.813 76.496 351.331 75.6427 353.208 73.936C355.171 72.144 356.152 69.84 356.152 67.024C356.152 64.1227 355.213 61.8187 353.336 60.112C351.459 58.4053 348.899 57.552 345.656 57.552H337.72V76.496ZM337.72 112.848H347.448C350.861 112.848 353.549 111.952 355.512 110.16C357.56 108.283 358.584 105.808 358.584 102.736C358.584 99.5787 357.56 97.104 355.512 95.312C353.549 93.52 350.861 92.624 347.448 92.624H337.72V112.848ZM411.142 130V93.264L383.11 40.4H406.534L422.79 72.656L439.174 40.4H461.19L433.158 93.264V130H411.142ZM487.892 130V58.832H462.292V40.4H535.508V58.832H509.908V130H487.892Z" fill="white"/>
<path d="M261.738 131.408C255.85 131.408 250.687 130.341 246.25 128.208C241.898 126.075 238.485 123.088 236.01 119.248C233.535 115.408 232.298 110.928 232.298 105.808C232.298 101.029 233.45 96.72 235.754 92.88C238.058 88.9547 241.557 85.328 246.25 82C243.69 78.2453 241.855 74.832 240.746 71.76C239.722 68.688 239.21 65.36 239.21 61.776C239.21 57.424 240.277 53.5413 242.41 50.128C244.629 46.7147 247.658 44.0267 251.498 42.064C255.338 40.016 259.647 38.992 264.426 38.992C269.034 38.992 273.13 39.9307 276.714 41.808C280.298 43.6 283.114 46.0747 285.162 49.232C287.295 52.304 288.362 55.8453 288.362 59.856C288.362 63.0987 287.722 66.128 286.442 68.944C285.247 71.76 283.285 74.448 280.554 77.008C277.909 79.568 274.453 82.1707 270.186 84.816C271.893 86.6933 273.855 88.8267 276.074 91.216C278.378 93.52 280.853 95.952 283.498 98.512C284.437 96.2933 285.29 93.8613 286.058 91.216C286.911 88.4853 287.637 85.5413 288.234 82.384L304.618 85.072C303.509 90.0213 302.186 94.5867 300.65 98.768C299.199 102.864 297.535 106.576 295.658 109.904C298.73 112.549 301.162 114.597 302.954 116.048C304.746 117.413 306.325 118.608 307.69 119.632L295.786 132.432C293.653 130.725 291.647 129.147 289.77 127.696C287.978 126.245 286.314 124.837 284.778 123.472C281.621 126.117 278.122 128.123 274.282 129.488C270.442 130.768 266.261 131.408 261.738 131.408ZM256.234 61.52C256.234 63.3973 256.575 65.2747 257.258 67.152C258.026 68.944 259.221 71.0347 260.842 73.424C263.317 71.888 265.322 70.4373 266.858 69.072C268.394 67.6213 269.503 66.2133 270.186 64.848C270.954 63.3973 271.338 61.904 271.338 60.368C271.338 58.2347 270.613 56.4853 269.162 55.12C267.797 53.6693 266.047 52.944 263.914 52.944C261.61 52.944 259.733 53.712 258.282 55.248C256.917 56.784 256.234 58.8747 256.234 61.52ZM249.834 104.4C249.834 108.155 250.986 111.141 253.29 113.36C255.679 115.493 258.922 116.56 263.018 116.56C264.895 116.56 266.687 116.261 268.394 115.664C270.186 114.981 271.85 114.043 273.386 112.848C270.57 110.032 267.669 107.045 264.682 103.888C261.781 100.645 258.837 97.3173 255.85 93.904C253.802 95.5253 252.266 97.232 251.242 99.024C250.303 100.731 249.834 102.523 249.834 104.4Z" fill="#237BCA"/>
<path d="M538 41.2001V66.8H634V41.2001H538ZM558.8 58.7984H549.2V49.1984H558.8V58.7984Z" fill="#237BCA"/>
<path d="M538 98.8001H634V73.2H538V98.8001ZM549.2 81.1983H558.8V90.7983H549.2V81.1983Z" fill="#237BCA"/>
<path d="M538 130.8H634V105.2H538V130.8ZM549.2 113.198H558.8V122.798H549.2V113.198Z" fill="#237BCA"/>
</svg>
