<svg width="762" height="307" viewBox="0 0 762 307" fill="none" xmlns="http://www.w3.org/2000/svg">
<path d="M739.474 103C740.702 103 741.889 103.283 742.967 103.755C756.379 109.726 746.296 147.955 733.361 179.349C732.092 166.327 720.89 156.056 707.382 156.056C701.72 156.056 696.494 157.97 692.21 161.016C692.183 161.03 692.128 161.003 692.101 161.016C705.595 134.057 725.911 103 739.474 103ZM692.101 161.016C685.592 165.694 681.294 173.283 681.294 181.829C681.294 192.262 687.639 201.293 696.685 205.337C689.658 205.782 682.741 206.092 676.164 206.092C660.064 206.092 622.474 204.515 621.041 190.456C619.567 176.019 658.126 165.653 692.101 161.016ZM696.685 205.337C696.753 205.364 696.835 205.31 696.904 205.337C700.124 206.753 703.644 207.602 707.382 207.602C721.75 207.602 733.47 196.023 733.47 181.829C733.47 180.98 733.334 180.171 733.252 179.349C752.272 207.548 770.064 243.013 758.139 251.492C756.652 252.543 754.837 253.109 752.791 253.109C739.037 253.109 714.136 227.511 696.685 205.337ZM707.382 162.85C717.97 162.85 726.594 171.369 726.594 181.829C726.594 192.289 717.97 200.808 707.382 200.808C696.794 200.808 688.171 192.289 688.171 181.829C688.171 171.369 696.794 162.85 707.382 162.85ZM707.382 173.202C702.566 173.202 698.65 177.057 698.65 181.829C698.65 186.601 702.566 190.456 707.382 190.456C712.212 190.456 716.115 186.601 716.115 181.829C716.115 177.057 712.212 173.202 707.382 173.202ZM695.157 215.043C701.884 223.279 711.326 234.157 721.354 243.188L723.756 271.226C723.837 272.183 723.551 273.099 722.882 273.814C722.214 274.528 721.245 275 720.263 275H694.502C693.533 275 692.646 274.515 691.992 273.814C691.337 273.113 690.941 272.183 691.009 271.226L695.157 215.043Z" fill="#389ED7"/>
<path d="M108.37 66.5C108.37 74.7812 105.915 82.8764 101.314 89.7619C96.7132 96.6475 90.1739 102.014 82.5231 105.183C74.8723 108.352 66.4536 109.181 58.3315 107.566C50.2094 105.95 42.7489 101.963 36.8932 96.1068C31.0375 90.2511 27.0497 82.7906 25.4342 74.6685C23.8186 66.5464 24.6478 58.1277 27.8168 50.4769C30.9859 42.8261 36.3525 36.2868 43.2381 31.6861C50.1236 27.0853 58.2188 24.6296 66.5 24.6296C77.6008 24.6422 88.2434 29.0576 96.0929 36.9071C103.942 44.7566 108.358 55.3992 108.37 66.5ZM66.5 14.7778C67.1469 14.7778 67.7874 14.6504 68.3851 14.4028C68.9827 14.1553 69.5257 13.7924 69.9832 13.335C70.4406 12.8776 70.8034 12.3346 71.051 11.7369C71.2985 11.1393 71.4259 10.4987 71.4259 9.85185V4.92593C71.4259 3.61949 70.9069 2.36656 69.9832 1.44277C69.0594 0.51898 67.8064 0 66.5 0C65.1936 0 63.9406 0.51898 63.0168 1.44277C62.0931 2.36656 61.5741 3.61949 61.5741 4.92593V9.85185C61.5741 10.4987 61.7015 11.1393 61.949 11.7369C62.1966 12.3346 62.5594 12.8776 63.0168 13.335C63.4742 13.7924 64.0173 14.1553 64.6149 14.4028C65.2126 14.6504 65.8531 14.7778 66.5 14.7778ZM22.9604 29.9268C23.4175 30.3854 23.9606 30.7494 24.5586 30.9979C25.1565 31.2464 25.7976 31.3746 26.4451 31.3751C27.0926 31.3756 27.7339 31.2484 28.3322 31.0009C28.9305 30.7533 29.4742 30.3902 29.9321 29.9324C30.39 29.4745 30.7531 28.9309 31.0006 28.3326C31.2482 27.7342 31.3754 27.093 31.3749 26.4455C31.3744 25.7979 31.2463 25.1569 30.9978 24.5589C30.7493 23.961 30.3854 23.4179 29.9268 22.9607L26.4438 19.4774C25.9867 19.0187 25.4436 18.6546 24.8456 18.406C24.2476 18.1573 23.6065 18.0291 22.9589 18.0285C22.3113 18.0279 21.6699 18.155 21.0715 18.4026C20.473 18.6502 19.9293 19.0133 19.4714 19.4712C19.0134 19.9291 18.6503 20.4729 18.4028 21.0713C18.1552 21.6697 18.0281 22.3111 18.0286 22.9587C18.0292 23.6063 18.1575 24.2474 18.4061 24.8454C18.6548 25.4434 19.0189 25.9865 19.4776 26.4436L22.9604 29.9268ZM9.85185 61.5741H4.92593C3.61949 61.5741 2.36656 62.0931 1.44277 63.0168C0.51898 63.9406 0 65.1936 0 66.5C0 67.8064 0.51898 69.0594 1.44277 69.9832C2.36656 70.9069 3.61949 71.4259 4.92593 71.4259H9.85185C11.1583 71.4259 12.4112 70.9069 13.335 69.9832C14.2588 69.0594 14.7778 67.8064 14.7778 66.5C14.7778 65.1936 14.2588 63.9406 13.335 63.0168C12.4112 62.0931 11.1583 61.5741 9.85185 61.5741ZM22.9607 103.073L19.4776 106.556C19.0197 107.014 18.6565 107.557 18.4085 108.154C18.1606 108.752 18.0329 109.393 18.0327 110.04C18.0325 110.687 18.1598 111.328 18.4073 111.926C18.6549 112.524 19.0178 113.067 19.4754 113.525C19.933 113.982 20.4763 114.345 21.0742 114.593C21.6721 114.84 22.3129 114.968 22.9601 114.967C23.6072 114.967 24.2479 114.839 24.8457 114.591C25.4434 114.344 25.9865 113.98 26.4438 113.522L29.9269 110.039C30.8497 109.115 31.3678 107.863 31.3674 106.557C31.367 105.251 30.8481 103.999 29.9247 103.075C29.0013 102.152 27.749 101.633 26.4431 101.633C25.1373 101.632 23.8847 102.15 22.9607 103.073ZM66.5 118.222C65.8531 118.222 65.2126 118.35 64.6149 118.597C64.0173 118.845 63.4742 119.208 63.0168 119.665C62.5594 120.122 62.1965 120.665 61.949 121.263C61.7015 121.861 61.5741 122.501 61.5741 123.148V128.074C61.5741 129.381 62.0931 130.633 63.0168 131.557C63.9406 132.481 65.1936 133 66.5 133C67.8064 133 69.0594 132.481 69.9832 131.557C70.9069 130.633 71.4259 129.381 71.4259 128.074V123.148C71.4259 122.501 71.2985 121.861 71.051 121.263C70.8035 120.665 70.4406 120.122 69.9832 119.665C69.5258 119.208 68.9827 118.845 68.3851 118.597C67.7874 118.35 67.1469 118.222 66.5 118.222ZM110.039 103.073C109.115 102.153 107.863 101.637 106.559 101.639C105.254 101.64 104.004 102.159 103.081 103.081C102.159 104.004 101.64 105.254 101.639 106.559C101.637 107.863 102.153 109.115 103.073 110.039L106.556 113.522C107.48 114.445 108.733 114.963 110.039 114.963C111.345 114.963 112.597 114.444 113.52 113.52C114.444 112.597 114.963 111.345 114.963 110.039C114.963 108.733 114.445 107.48 113.522 106.556L110.039 103.073ZM128.074 61.5741H123.148C121.842 61.5741 120.589 62.0931 119.665 63.0168C118.741 63.9406 118.222 65.1936 118.222 66.5C118.222 67.8064 118.741 69.0594 119.665 69.9832C120.589 70.9069 121.842 71.4259 123.148 71.4259H128.074C129.381 71.4259 130.633 70.9069 131.557 69.9832C132.481 69.0594 133 67.8064 133 66.5C133 65.1936 132.481 63.9406 131.557 63.0168C130.633 62.0931 129.381 61.5741 128.074 61.5741ZM106.556 31.3697C107.203 31.3705 107.844 31.2434 108.442 30.9958C109.04 30.7482 109.583 30.3849 110.04 29.9269L113.522 26.4436C113.98 25.9862 114.343 25.4432 114.59 24.8456C114.838 24.2479 114.965 23.6074 114.965 22.9605C114.965 22.3137 114.838 21.6731 114.59 21.0755C114.343 20.4779 113.98 19.9349 113.522 19.4775C113.065 19.02 112.522 18.6572 111.924 18.4097C111.327 18.1621 110.686 18.0347 110.039 18.0347C109.392 18.0347 108.752 18.1621 108.154 18.4097C107.557 18.6572 107.014 19.0201 106.556 19.4775L103.073 22.9607C102.384 23.6496 101.915 24.5273 101.725 25.4828C101.535 26.4384 101.632 27.4288 102.005 28.3289C102.378 29.229 103.009 29.9983 103.82 30.5396C104.63 31.0808 105.582 31.3697 106.556 31.3697Z" fill="#ECA722"/>
<path d="M92.25 84.3125V120.188H110.188C112.646 120.188 114.958 119.729 117.125 118.812C119.292 117.854 121.188 116.562 122.812 114.938C124.438 113.312 125.708 111.417 126.625 109.25C127.583 107.042 128.062 104.708 128.062 102.25C128.062 99.7917 127.583 97.4792 126.625 95.3125C125.708 93.1042 124.438 91.1875 122.812 89.5625C121.188 87.9375 119.292 86.6667 117.125 85.75C114.958 84.7917 112.646 84.3125 110.188 84.3125H92.25ZM92.25 156H74.3125V66.375H110.188C113.479 66.375 116.646 66.8125 119.688 67.6875C122.729 68.5208 125.562 69.7292 128.188 71.3125C130.854 72.8542 133.271 74.7292 135.438 76.9375C137.646 79.1042 139.521 81.5208 141.062 84.1875C142.646 86.8542 143.854 89.7083 144.688 92.75C145.562 95.7917 146 98.9583 146 102.25C146 105.333 145.604 108.333 144.812 111.25C144.062 114.167 142.958 116.938 141.5 119.562C140.083 122.188 138.333 124.604 136.25 126.812C134.167 129.021 131.833 130.938 129.25 132.562L139.188 156H120.125L112.312 137.938L92.25 138.062V156ZM181.875 139.625C182.542 139.833 183.208 139.979 183.875 140.062C184.542 140.104 185.208 140.125 185.875 140.125C187.542 140.125 189.146 139.896 190.688 139.438C192.229 138.979 193.667 138.333 195 137.5C196.375 136.625 197.583 135.583 198.625 134.375C199.708 133.125 200.583 131.75 201.25 130.25L213.75 142.812C212.167 145.062 210.333 147.083 208.25 148.875C206.208 150.667 203.979 152.188 201.562 153.438C199.188 154.688 196.667 155.625 194 156.25C191.375 156.917 188.667 157.25 185.875 157.25C181.167 157.25 176.729 156.375 172.562 154.625C168.438 152.875 164.812 150.438 161.688 147.312C158.604 144.188 156.167 140.479 154.375 136.188C152.583 131.854 151.688 127.104 151.688 121.938C151.688 116.646 152.583 111.812 154.375 107.438C156.167 103.062 158.604 99.3333 161.688 96.25C164.812 93.1667 168.438 90.7708 172.562 89.0625C176.729 87.3542 181.167 86.5 185.875 86.5C188.667 86.5 191.396 86.8333 194.062 87.5C196.729 88.1667 199.25 89.125 201.625 90.375C204.042 91.625 206.292 93.1667 208.375 95C210.458 96.7917 212.292 98.8125 213.875 101.062L181.875 139.625ZM190.625 104.438C189.833 104.146 189.042 103.958 188.25 103.875C187.5 103.792 186.708 103.75 185.875 103.75C183.542 103.75 181.333 104.188 179.25 105.062C177.208 105.896 175.417 107.104 173.875 108.688C172.375 110.271 171.188 112.188 170.312 114.438C169.438 116.646 169 119.146 169 121.938C169 122.562 169.021 123.271 169.062 124.062C169.146 124.854 169.25 125.667 169.375 126.5C169.542 127.292 169.729 128.062 169.938 128.812C170.146 129.562 170.417 130.229 170.75 130.812L190.625 104.438ZM239.562 156H222.5V89.0625H226.625L232.25 95.5625C235 93.0625 238.104 91.1458 241.562 89.8125C245.062 88.4375 248.708 87.75 252.5 87.75C256.583 87.75 260.438 88.5417 264.062 90.125C267.688 91.6667 270.854 93.8125 273.562 96.5625C276.271 99.2708 278.396 102.458 279.938 106.125C281.521 109.75 282.312 113.625 282.312 117.75V156H265.25V117.75C265.25 116 264.917 114.354 264.25 112.812C263.583 111.229 262.667 109.854 261.5 108.688C260.333 107.521 258.979 106.604 257.438 105.938C255.896 105.271 254.25 104.938 252.5 104.938C250.708 104.938 249.021 105.271 247.438 105.938C245.854 106.604 244.479 107.521 243.312 108.688C242.146 109.854 241.229 111.229 240.562 112.812C239.896 114.354 239.562 116 239.562 117.75V156ZM359.188 121.938C359.188 126.938 358.292 131.604 356.5 135.938C354.708 140.229 352.271 143.958 349.188 147.125C346.104 150.25 342.479 152.729 338.312 154.562C334.188 156.354 329.75 157.25 325 157.25C320.292 157.25 315.854 156.354 311.688 154.562C307.562 152.729 303.938 150.25 300.812 147.125C297.729 143.958 295.292 140.229 293.5 135.938C291.708 131.604 290.812 126.938 290.812 121.938C290.812 116.854 291.708 112.146 293.5 107.812C295.292 103.479 297.729 99.75 300.812 96.625C303.938 93.4583 307.562 90.9792 311.688 89.1875C315.854 87.3958 320.292 86.5 325 86.5C329.75 86.5 334.188 87.3542 338.312 89.0625C342.479 90.7292 346.104 93.125 349.188 96.25C352.271 99.3333 354.708 103.062 356.5 107.438C358.292 111.771 359.188 116.604 359.188 121.938ZM342 121.938C342 119.188 341.542 116.708 340.625 114.5C339.75 112.25 338.542 110.333 337 108.75C335.458 107.125 333.646 105.896 331.562 105.062C329.521 104.188 327.333 103.75 325 103.75C322.667 103.75 320.458 104.188 318.375 105.062C316.333 105.896 314.542 107.125 313 108.75C311.5 110.333 310.312 112.25 309.438 114.5C308.562 116.708 308.125 119.188 308.125 121.938C308.125 124.521 308.562 126.917 309.438 129.125C310.312 131.333 311.5 133.25 313 134.875C314.542 136.5 316.333 137.792 318.375 138.75C320.458 139.667 322.667 140.125 325 140.125C327.333 140.125 329.521 139.688 331.562 138.812C333.646 137.938 335.458 136.708 337 135.125C338.542 133.542 339.75 131.625 340.625 129.375C341.542 127.125 342 124.646 342 121.938ZM385.625 156L360.125 89.0625H379.562L394.188 130.812L408.75 89.0625H428.25L402.75 156H385.625ZM499.562 156H495.438L488.812 146.812C487.188 148.271 485.458 149.646 483.625 150.938C481.833 152.188 479.938 153.292 477.938 154.25C475.938 155.167 473.875 155.896 471.75 156.438C469.667 156.979 467.542 157.25 465.375 157.25C460.667 157.25 456.229 156.458 452.062 154.875C447.938 153.292 444.312 151 441.188 148C438.104 144.958 435.667 141.25 433.875 136.875C432.083 132.5 431.188 127.521 431.188 121.938C431.188 116.729 432.083 111.958 433.875 107.625C435.667 103.25 438.104 99.5 441.188 96.375C444.312 93.25 447.938 90.8333 452.062 89.125C456.229 87.375 460.667 86.5 465.375 86.5C467.542 86.5 469.688 86.7708 471.812 87.3125C473.938 87.8542 476 88.6042 478 89.5625C480 90.5208 481.896 91.6458 483.688 92.9375C485.521 94.2292 487.229 95.625 488.812 97.125L495.438 89.1875H499.562V156ZM482.375 121.938C482.375 119.604 481.917 117.354 481 115.188C480.125 112.979 478.917 111.042 477.375 109.375C475.833 107.667 474.021 106.312 471.938 105.312C469.896 104.271 467.708 103.75 465.375 103.75C463.042 103.75 460.833 104.146 458.75 104.938C456.708 105.729 454.917 106.896 453.375 108.438C451.875 109.979 450.688 111.896 449.812 114.188C448.938 116.438 448.5 119.021 448.5 121.938C448.5 124.854 448.938 127.458 449.812 129.75C450.688 132 451.875 133.896 453.375 135.438C454.917 136.979 456.708 138.146 458.75 138.938C460.833 139.729 463.042 140.125 465.375 140.125C467.708 140.125 469.896 139.625 471.938 138.625C474.021 137.583 475.833 136.229 477.375 134.562C478.917 132.854 480.125 130.917 481 128.75C481.917 126.542 482.375 124.271 482.375 121.938ZM465.125 81.5L458.062 72.1875L476.625 54.875L486.875 67.9375L465.125 81.5ZM531.625 156L506.125 89.0625H525.562L540.188 130.812L554.75 89.0625H574.25L548.75 156H531.625ZM605.375 139.625C606.042 139.833 606.708 139.979 607.375 140.062C608.042 140.104 608.708 140.125 609.375 140.125C611.042 140.125 612.646 139.896 614.188 139.438C615.729 138.979 617.167 138.333 618.5 137.5C619.875 136.625 621.083 135.583 622.125 134.375C623.208 133.125 624.083 131.75 624.75 130.25L637.25 142.812C635.667 145.062 633.833 147.083 631.75 148.875C629.708 150.667 627.479 152.188 625.062 153.438C622.688 154.688 620.167 155.625 617.5 156.25C614.875 156.917 612.167 157.25 609.375 157.25C604.667 157.25 600.229 156.375 596.062 154.625C591.938 152.875 588.312 150.438 585.188 147.312C582.104 144.188 579.667 140.479 577.875 136.188C576.083 131.854 575.188 127.104 575.188 121.938C575.188 116.646 576.083 111.812 577.875 107.438C579.667 103.062 582.104 99.3333 585.188 96.25C588.312 93.1667 591.938 90.7708 596.062 89.0625C600.229 87.3542 604.667 86.5 609.375 86.5C612.167 86.5 614.896 86.8333 617.562 87.5C620.229 88.1667 622.75 89.125 625.125 90.375C627.542 91.625 629.792 93.1667 631.875 95C633.958 96.7917 635.792 98.8125 637.375 101.062L605.375 139.625ZM614.125 104.438C613.333 104.146 612.542 103.958 611.75 103.875C611 103.792 610.208 103.75 609.375 103.75C607.042 103.75 604.833 104.188 602.75 105.062C600.708 105.896 598.917 107.104 597.375 108.688C595.875 110.271 594.688 112.188 593.812 114.438C592.938 116.646 592.5 119.146 592.5 121.938C592.5 122.562 592.521 123.271 592.562 124.062C592.646 124.854 592.75 125.667 592.875 126.5C593.042 127.292 593.229 128.062 593.438 128.812C593.646 129.562 593.917 130.229 594.25 130.812L614.125 104.438ZM663.188 156H646V62.4375H663.188V156Z" fill="#292929"/>
<path d="M293.75 274H232.312V184.375H293.75V202.312H250.25V220.25H279.688V238.188H250.25V256.062H293.75V274ZM325.562 274H308.5V224.062H300.188V207.062H308.5V203.875C308.5 199.75 309.271 195.875 310.812 192.25C312.396 188.625 314.542 185.479 317.25 182.812C320 180.104 323.188 177.979 326.812 176.438C330.438 174.854 334.312 174.062 338.438 174.062H351.25V191.062H338.438C336.604 191.062 334.896 191.396 333.312 192.062C331.771 192.688 330.417 193.583 329.25 194.75C328.125 195.875 327.229 197.229 326.562 198.812C325.896 200.354 325.562 202.042 325.562 203.875V207.062H346.5V224.062H325.562V274ZM380 257.625C380.667 257.833 381.333 257.979 382 258.062C382.667 258.104 383.333 258.125 384 258.125C385.667 258.125 387.271 257.896 388.812 257.438C390.354 256.979 391.792 256.333 393.125 255.5C394.5 254.625 395.708 253.583 396.75 252.375C397.833 251.125 398.708 249.75 399.375 248.25L411.875 260.812C410.292 263.062 408.458 265.083 406.375 266.875C404.333 268.667 402.104 270.188 399.688 271.438C397.312 272.688 394.792 273.625 392.125 274.25C389.5 274.917 386.792 275.25 384 275.25C379.292 275.25 374.854 274.375 370.688 272.625C366.562 270.875 362.938 268.438 359.812 265.312C356.729 262.188 354.292 258.479 352.5 254.188C350.708 249.854 349.812 245.104 349.812 239.938C349.812 234.646 350.708 229.812 352.5 225.438C354.292 221.062 356.729 217.333 359.812 214.25C362.938 211.167 366.562 208.771 370.688 207.062C374.854 205.354 379.292 204.5 384 204.5C386.792 204.5 389.521 204.833 392.188 205.5C394.854 206.167 397.375 207.125 399.75 208.375C402.167 209.625 404.417 211.167 406.5 213C408.583 214.792 410.417 216.812 412 219.062L380 257.625ZM388.75 222.438C387.958 222.146 387.167 221.958 386.375 221.875C385.625 221.792 384.833 221.75 384 221.75C381.667 221.75 379.458 222.188 377.375 223.062C375.333 223.896 373.542 225.104 372 226.688C370.5 228.271 369.312 230.188 368.438 232.438C367.562 234.646 367.125 237.146 367.125 239.938C367.125 240.562 367.146 241.271 367.188 242.062C367.271 242.854 367.375 243.667 367.5 244.5C367.667 245.292 367.854 246.062 368.062 246.812C368.271 247.562 368.542 248.229 368.875 248.812L388.75 222.438ZM454.188 274C450.062 274 446.188 273.229 442.562 271.688C438.938 270.104 435.75 267.958 433 265.25C430.292 262.5 428.146 259.312 426.562 255.688C425.021 252.062 424.25 248.188 424.25 244.062V224.188H415.938V207.188H424.25V180.438H441.25V207.188H467.125V224.188H441.25V244.062C441.25 245.854 441.583 247.542 442.25 249.125C442.917 250.667 443.833 252.021 445 253.188C446.167 254.354 447.542 255.292 449.125 256C450.708 256.667 452.396 257 454.188 257H467.125V274H454.188ZM496.875 188.875C496.875 190.458 496.562 191.938 495.938 193.312C495.354 194.688 494.542 195.896 493.5 196.938C492.458 197.938 491.229 198.75 489.812 199.375C488.438 199.958 486.958 200.25 485.375 200.25C483.792 200.25 482.292 199.958 480.875 199.375C479.5 198.75 478.292 197.938 477.25 196.938C476.25 195.896 475.438 194.688 474.812 193.312C474.229 191.938 473.938 190.458 473.938 188.875C473.938 187.333 474.229 185.875 474.812 184.5C475.438 183.083 476.25 181.875 477.25 180.875C478.292 179.833 479.5 179.021 480.875 178.438C482.292 177.812 483.792 177.5 485.375 177.5C486.958 177.5 488.438 177.812 489.812 178.438C491.229 179.021 492.458 179.833 493.5 180.875C494.542 181.875 495.354 183.083 495.938 184.5C496.562 185.875 496.875 187.333 496.875 188.875ZM493.938 274H476.75V207.062H493.938V274Z" fill="#292929"/>
<path d="M668.312 274H664.188L657.562 264.812C655.938 266.271 654.208 267.646 652.375 268.938C650.583 270.188 648.688 271.292 646.688 272.25C644.688 273.167 642.625 273.896 640.5 274.438C638.417 274.979 636.292 275.25 634.125 275.25C629.417 275.25 624.979 274.458 620.812 272.875C616.688 271.292 613.062 269 609.938 266C606.854 262.958 604.417 259.25 602.625 254.875C600.833 250.5 599.938 245.521 599.938 239.938C599.938 234.729 600.833 229.958 602.625 225.625C604.417 221.25 606.854 217.5 609.938 214.375C613.062 211.25 616.688 208.833 620.812 207.125C624.979 205.375 629.417 204.5 634.125 204.5C636.292 204.5 638.438 204.771 640.562 205.312C642.688 205.854 644.75 206.604 646.75 207.562C648.75 208.521 650.646 209.646 652.438 210.938C654.271 212.229 655.979 213.625 657.562 215.125L664.188 207.188H668.312V274ZM651.125 239.938C651.125 237.604 650.667 235.354 649.75 233.188C648.875 230.979 647.667 229.042 646.125 227.375C644.583 225.667 642.771 224.312 640.688 223.312C638.646 222.271 636.458 221.75 634.125 221.75C631.792 221.75 629.583 222.146 627.5 222.938C625.458 223.729 623.667 224.896 622.125 226.438C620.625 227.979 619.438 229.896 618.562 232.188C617.688 234.438 617.25 237.021 617.25 239.938C617.25 242.854 617.688 245.458 618.562 247.75C619.438 250 620.625 251.896 622.125 253.438C623.667 254.979 625.458 256.146 627.5 256.938C629.583 257.729 631.792 258.125 634.125 258.125C636.458 258.125 638.646 257.625 640.688 256.625C642.771 255.583 644.583 254.229 646.125 252.562C647.667 250.854 648.875 248.917 649.75 246.75C650.667 244.542 651.125 242.271 651.125 239.938Z" fill="#292929"/>
<path fill-rule="evenodd" clip-rule="evenodd" d="M579.738 260.792C585.787 253.23 589.404 243.639 589.404 233.202C589.404 208.79 569.614 189 545.202 189C520.79 189 501 208.79 501 233.202C501 257.614 520.79 277.404 545.202 277.404C555.639 277.404 565.23 273.787 572.792 267.738L600.616 295.562C602.534 297.479 605.644 297.479 607.562 295.562C609.479 293.644 609.479 290.534 607.562 288.616L579.738 260.792ZM545.202 267.63C526.188 267.63 510.773 252.216 510.773 233.202C510.773 214.188 526.188 198.773 545.202 198.773C564.216 198.773 579.63 214.188 579.63 233.202C579.63 252.216 564.216 267.63 545.202 267.63Z" fill="#292929"/>
<path d="M523.477 222.992C522.423 221.743 520.947 220.985 519.369 220.883C517.791 220.781 516.239 221.343 515.05 222.446C513.86 223.549 513.129 225.106 513.016 226.777C512.902 228.448 513.414 230.099 514.442 231.372L535.453 256.826C536.004 257.494 536.68 258.032 537.439 258.406C538.197 258.78 539.021 258.982 539.858 258.999C540.694 259.016 541.525 258.847 542.296 258.503C543.068 258.16 543.763 257.649 544.337 257.004L595.363 199.734C596.456 198.506 597.044 196.868 596.997 195.181C596.951 193.493 596.275 191.894 595.116 190.736C593.958 189.577 592.413 188.954 590.821 189.003C589.229 189.052 587.721 189.769 586.628 190.997L540.135 243.176L523.477 222.992Z" fill="#5DDF47"/>
</svg>
