<svg width="1011" height="1011" viewBox="0 0 1011 1011" fill="none" xmlns="http://www.w3.org/2000/svg">
<path opacity="0.4" d="M505.417 1010.83C784.548 1010.83 1010.83 784.553 1010.83 505.416C1010.83 226.283 784.548 0 505.417 0C226.283 0 0 226.283 0 505.416C0 784.553 226.283 1010.83 505.417 1010.83Z" fill="#237BCA"/>
<path d="M505.417 249.167C400.796 249.167 315.886 334.077 315.886 438.696C315.886 541.296 396.247 624.689 502.89 627.722C504.406 627.722 506.428 627.722 507.439 627.722C508.449 627.722 509.966 627.722 510.977 627.722C511.482 627.722 511.987 627.722 511.987 627.722C614.082 624.184 694.443 541.296 694.948 438.696C694.948 334.077 610.038 249.167 505.417 249.167Z" fill="#237BCA"/>
<path d="M848.125 876.897C758.161 959.786 637.872 1010.83 505.453 1010.83C373.034 1010.83 252.744 959.786 162.78 876.897C174.91 830.904 207.762 788.955 255.777 756.608C393.756 664.622 618.161 664.622 755.129 756.608C803.649 788.955 835.995 830.904 848.125 876.897Z" fill="#237BCA"/>
</svg>
