<svg width="193" height="192" viewBox="0 0 193 192" fill="none" xmlns="http://www.w3.org/2000/svg">
<rect width="193" height="192" rx="96" fill="#389ED7"/>
<path d="M115.074 74.5C115.074 81.5359 112.988 88.4138 109.079 94.2639C105.17 100.114 99.6139 104.674 93.1136 107.366C86.6133 110.059 79.4605 110.763 72.5598 109.391C65.6591 108.018 59.3205 104.63 54.3453 99.6547C49.3702 94.6795 45.9821 88.3408 44.6095 81.4402C43.2368 74.5395 43.9413 67.3867 46.6338 60.8864C49.3264 54.3861 53.886 48.8302 59.7361 44.9212C65.5862 41.0123 72.4641 38.9259 79.5 38.9259C88.9315 38.9366 97.9737 42.688 104.643 49.3571C111.312 56.0263 115.063 65.0685 115.074 74.5ZM79.5 30.5556C80.0496 30.5556 80.5938 30.4473 81.1016 30.237C81.6094 30.0267 82.0707 29.7184 82.4594 29.3298C82.848 28.9411 83.1563 28.4797 83.3666 27.972C83.5769 27.4642 83.6852 26.92 83.6852 26.3704V22.1852C83.6852 21.0752 83.2442 20.0107 82.4594 19.2258C81.6745 18.4409 80.61 18 79.5 18C78.39 18 77.3255 18.4409 76.5406 19.2258C75.7558 20.0107 75.3148 21.0752 75.3148 22.1852V26.3704C75.3148 26.92 75.4231 27.4642 75.6334 27.972C75.8437 28.4797 76.152 28.9411 76.5406 29.3298C76.9292 29.7184 77.3906 30.0267 77.8984 30.237C78.4062 30.4473 78.9504 30.5556 79.5 30.5556ZM42.5077 43.4266C42.8961 43.8162 43.3575 44.1254 43.8655 44.3365C44.3736 44.5477 44.9182 44.6566 45.4684 44.657C46.0185 44.6575 46.5634 44.5494 47.0717 44.3391C47.5801 44.1288 48.042 43.8203 48.431 43.4313C48.82 43.0423 49.1285 42.5804 49.3389 42.072C49.5492 41.5637 49.6573 41.0188 49.6569 40.4687C49.6565 39.9185 49.5476 39.3739 49.3365 38.8658C49.1254 38.3578 48.8162 37.8964 48.4266 37.508L45.4673 34.5485C45.0789 34.1587 44.6175 33.8494 44.1094 33.6382C43.6014 33.4269 43.0566 33.3179 42.5064 33.3174C41.9562 33.3169 41.4113 33.4249 40.9028 33.6353C40.3944 33.8456 39.9324 34.1541 39.5433 34.5432C39.1543 34.9323 38.8458 35.3942 38.6354 35.9027C38.4251 36.4111 38.3171 36.956 38.3176 37.5063C38.3181 38.0565 38.427 38.6012 38.6383 39.1093C38.8495 39.6173 39.1589 40.0787 39.5486 40.4671L42.5077 43.4266ZM31.3704 70.3148H27.1852C26.0752 70.3148 25.0107 70.7558 24.2258 71.5406C23.4409 72.3255 23 73.39 23 74.5C23 75.61 23.4409 76.6745 24.2258 77.4594C25.0107 78.2442 26.0752 78.6852 27.1852 78.6852H31.3704C32.4804 78.6852 33.5449 78.2442 34.3297 77.4594C35.1146 76.6745 35.5556 75.61 35.5556 74.5C35.5556 73.39 35.1146 72.3255 34.3297 71.5406C33.5449 70.7558 32.4804 70.3148 31.3704 70.3148ZM42.508 105.573L39.5486 108.533C39.1596 108.921 38.851 109.383 38.6403 109.891C38.4297 110.398 38.3212 110.943 38.321 111.493C38.3208 112.042 38.429 112.587 38.6393 113.095C38.8496 113.603 39.158 114.064 39.5468 114.453C39.9356 114.842 40.3971 115.15 40.9051 115.361C41.4131 115.571 41.9576 115.679 42.5074 115.679C43.0572 115.679 43.6016 115.57 44.1095 115.36C44.6174 115.149 45.0787 114.84 45.4673 114.451L48.4266 111.492C49.2106 110.707 49.6509 109.643 49.6505 108.533C49.6502 107.424 49.2093 106.36 48.4247 105.575C47.6402 104.791 46.5762 104.35 45.4667 104.349C44.3572 104.349 43.293 104.789 42.508 105.573ZM79.5 118.444C78.9504 118.444 78.4062 118.553 77.8984 118.763C77.3906 118.973 76.9292 119.282 76.5406 119.67C76.152 120.059 75.8437 120.52 75.6334 121.028C75.423 121.536 75.3148 122.08 75.3148 122.63V126.815C75.3148 127.925 75.7558 128.989 76.5406 129.774C77.3255 130.559 78.39 131 79.5 131C80.61 131 81.6745 130.559 82.4594 129.774C83.2442 128.989 83.6852 127.925 83.6852 126.815V122.63C83.6852 122.08 83.577 121.536 83.3666 121.028C83.1563 120.52 82.848 120.059 82.4594 119.67C82.0708 119.282 81.6094 118.973 81.1016 118.763C80.5938 118.553 80.0496 118.444 79.5 118.444ZM116.492 105.573C115.707 104.792 114.643 104.353 113.535 104.355C112.427 104.356 111.364 104.797 110.58 105.58C109.797 106.364 109.356 107.427 109.355 108.535C109.353 109.643 109.792 110.707 110.573 111.492L113.533 114.451C114.318 115.235 115.382 115.676 116.492 115.675C117.601 115.675 118.665 115.234 119.45 114.449C120.234 113.665 120.675 112.601 120.675 111.491C120.676 110.382 120.235 109.318 119.451 108.533L116.492 105.573ZM131.815 70.3148H127.63C126.52 70.3148 125.455 70.7558 124.67 71.5406C123.885 72.3255 123.444 73.39 123.444 74.5C123.444 75.61 123.885 76.6745 124.67 77.4594C125.455 78.2442 126.52 78.6852 127.63 78.6852H131.815C132.925 78.6852 133.989 78.2442 134.774 77.4594C135.559 76.6745 136 75.61 136 74.5C136 73.39 135.559 72.3255 134.774 71.5406C133.989 70.7558 132.925 70.3148 131.815 70.3148ZM113.533 44.6525C114.082 44.6531 114.627 44.5452 115.135 44.3348C115.643 44.1244 116.104 43.8158 116.492 43.4266L119.451 40.4671C119.84 40.0785 120.148 39.6172 120.359 39.1094C120.569 38.6016 120.677 38.0574 120.677 37.5078C120.677 36.9582 120.569 36.414 120.359 35.9063C120.148 35.3985 119.84 34.9371 119.451 34.5485C119.063 34.1599 118.601 33.8516 118.094 33.6413C117.586 33.431 117.042 33.3227 116.492 33.3227C115.942 33.3227 115.398 33.431 114.89 33.6413C114.383 33.8516 113.921 34.1599 113.533 34.5485L110.573 37.508C109.988 38.0933 109.589 38.839 109.428 39.6508C109.267 40.4627 109.349 41.3042 109.666 42.0689C109.983 42.8336 110.519 43.4873 111.208 43.9471C111.896 44.407 112.705 44.6525 113.533 44.6525Z" fill="white"/>
<path d="M147.497 80C148.124 80 148.731 80.1432 149.281 80.3818C156.13 83.4023 150.981 102.739 144.376 118.618C143.728 112.032 138.008 106.836 131.11 106.836C128.219 106.836 125.55 107.805 123.362 109.345C123.349 109.352 123.321 109.339 123.307 109.345C130.197 95.7091 140.572 80 147.497 80ZM123.307 109.345C119.983 111.711 117.789 115.55 117.789 119.873C117.789 125.15 121.028 129.718 125.648 131.764C122.06 131.989 118.527 132.145 115.169 132.145C106.947 132.145 87.7525 131.348 87.0209 124.236C86.2684 116.934 105.958 111.691 123.307 109.345ZM125.648 131.764C125.683 131.777 125.724 131.75 125.759 131.764C127.404 132.48 129.201 132.909 131.11 132.909C138.447 132.909 144.432 127.052 144.432 119.873C144.432 119.443 144.362 119.034 144.32 118.618C154.033 132.882 163.118 150.82 157.029 155.109C156.269 155.641 155.343 155.927 154.297 155.927C147.274 155.927 134.559 142.98 125.648 131.764ZM131.11 110.273C136.517 110.273 140.92 114.582 140.92 119.873C140.92 125.164 136.517 129.473 131.11 129.473C125.704 129.473 121.3 125.164 121.3 119.873C121.3 114.582 125.704 110.273 131.11 110.273ZM131.11 115.509C128.651 115.509 126.651 117.459 126.651 119.873C126.651 122.286 128.651 124.236 131.11 124.236C133.577 124.236 135.569 122.286 135.569 119.873C135.569 117.459 133.577 115.509 131.11 115.509ZM124.867 136.673C128.302 140.839 133.124 146.341 138.245 150.909L139.471 165.091C139.513 165.575 139.366 166.039 139.025 166.4C138.684 166.761 138.189 167 137.687 167H124.533C124.038 167 123.585 166.755 123.251 166.4C122.917 166.045 122.715 165.575 122.749 165.091L124.867 136.673Z" fill="white"/>
</svg>
